<?xml version="1.0" encoding="utf-8"?>
<!-- Generator: Adobe Illustrator 16.0.3, SVG Export Plug-In . SVG Version: 6.00 Build 0)  -->
<!DOCTYPE svg PUBLIC "-//W3C//DTD SVG 1.1//EN" "http://www.w3.org/Graphics/SVG/1.1/DTD/svg11.dtd">
<svg version="1.1" id="Capa_1" xmlns="http://www.w3.org/2000/svg" xmlns:xlink="http://www.w3.org/1999/xlink" x="0px" y="0px"
	 width="841px" height="841px" viewBox="0 0 841 841" enable-background="new 0 0 841 841" xml:space="preserve">
<g>
	<defs>
		<rect id="SVGID_1_" width="841" height="841"/>
	</defs>
	<clipPath id="SVGID_2_">
		<use xlink:href="#SVGID_1_"  overflow="visible"/>
	</clipPath>
	<g clip-path="url(#SVGID_2_)">
		<defs>
			<rect id="SVGID_3_" width="841.89" height="841.89"/>
		</defs>
		<clipPath id="SVGID_4_">
			<use xlink:href="#SVGID_3_"  overflow="visible"/>
		</clipPath>
		<rect opacity="0" clip-path="url(#SVGID_4_)" fill-rule="evenodd" clip-rule="evenodd" width="841.89" height="841.89"/>
		
			<rect x="403.333" clip-path="url(#SVGID_4_)" fill-rule="evenodd" clip-rule="evenodd" fill="#FAB518" width="438.567" height="841.89"/>
		
			<rect x="621.169" y="786.874" opacity="0" clip-path="url(#SVGID_4_)" fill-rule="evenodd" clip-rule="evenodd" width="198.65" height="31.685"/>
		<g clip-path="url(#SVGID_4_)">
			<defs>
				<rect id="SVGID_5_" x="621.169" y="786.874" width="198.65" height="31.685"/>
			</defs>
			<clipPath id="SVGID_6_">
				<use xlink:href="#SVGID_5_"  overflow="visible"/>
			</clipPath>
			<g clip-path="url(#SVGID_6_)">
				<defs>
					<rect id="SVGID_7_" x="621.169" y="786.874" width="198.65" height="31.685"/>
				</defs>
				<clipPath id="SVGID_8_">
					<use xlink:href="#SVGID_7_"  overflow="visible"/>
				</clipPath>
				<g transform="matrix(1 0 0 1 1.680857e-005 -3.932452e-005)" clip-path="url(#SVGID_8_)">
					
						<image overflow="visible" width="815" height="130" xlink:href="6822253C.png"  transform="matrix(0.2437 0 0 0.2437 621.1689 786.874)">
					</image>
				</g>
			</g>
		</g>
		
			<rect x="498.306" y="31.567" opacity="0" clip-path="url(#SVGID_4_)" fill-rule="evenodd" clip-rule="evenodd" width="248.62" height="107.357"/>
		<g clip-path="url(#SVGID_4_)">
			<defs>
				<rect id="SVGID_9_" x="498.306" y="31.567" width="248.62" height="107.357"/>
			</defs>
			<clipPath id="SVGID_10_">
				<use xlink:href="#SVGID_9_"  overflow="visible"/>
			</clipPath>
			<g clip-path="url(#SVGID_10_)">
				<defs>
					<rect id="SVGID_11_" x="498.306" y="-32.847" width="248.62" height="248.606"/>
				</defs>
				<clipPath id="SVGID_12_">
					<use xlink:href="#SVGID_11_"  overflow="visible"/>
				</clipPath>
				<g transform="matrix(1 0 0 1 -1.433389e-005 6.895259e-007)" clip-path="url(#SVGID_12_)">
					
						<image overflow="visible" width="1080" height="1080" xlink:href="6822253D.png"  transform="matrix(0.2302 0 0 0.2302 498.3057 -32.8472)">
					</image>
				</g>
			</g>
		</g>
		
			<rect x="420.945" y="167.25" opacity="0" clip-path="url(#SVGID_4_)" fill-rule="evenodd" clip-rule="evenodd" width="397.016" height="497.882"/>
		<g clip-path="url(#SVGID_4_)">
			<text transform="matrix(1 0 0 1 525.2393 197.0396)"><tspan x="0" y="0" fill="#FFFFFF" font-family="'Corbel-Bold'" font-size="24">ESCUCHA</tspan><tspan x="104.871" y="0" fill="#FFFFFF" font-family="'Corbel-Bold'" font-size="24" letter-spacing="-1"> </tspan><tspan x="108.784" y="0" fill="#FFFFFF" font-family="'Corbel-Bold'" font-size="24">A</tspan><tspan x="124.342" y="0" fill="#FFFFFF" font-family="'Corbel-Bold'" font-size="24">CTI</tspan><tspan x="158.678" y="0" fill="#FFFFFF" font-family="'Corbel-Bold'" font-size="24" letter-spacing="-1">V</tspan><tspan x="172.711" y="0" fill="#FFFFFF" font-family="'Corbel-Bold'" font-size="24">A</tspan></text>
		</g>
		<g clip-path="url(#SVGID_4_)">
			<text transform="matrix(1 0 0 1 566.9932 225.8389)"><tspan x="0" y="0" fill="#FFFFFF" font-family="'Corbel-Bold'" font-size="24">[</tspan><tspan x="7.57" y="0" fill="#FFFFFF" font-family="'Corbel-Bold'" font-size="24">0</tspan><tspan x="19.478" y="0" fill="#FFFFFF" font-family="'Corbel-Bold'" font-size="24">2 Horas]</tspan></text>
		</g>
		<g clip-path="url(#SVGID_4_)">
			<text transform="matrix(1 0 0 1 462.5205 283.4395)" fill="#FFFFFF" font-family="'Corbel'" font-size="24">Escuchar es el resultado de oír + </text>
		</g>
		<g clip-path="url(#SVGID_4_)">
			<text transform="matrix(1 0 0 1 471.5322 312.2393)"><tspan x="0" y="0" fill="#FFFFFF" font-family="'Corbel'" font-size="24">interpreta</tspan><tspan x="99.34" y="0" fill="#FFFFFF" font-family="'Corbel'" font-size="24" letter-spacing="-1">r</tspan><tspan x="106.227" y="0" fill="#FFFFFF" font-family="'Corbel'" font-size="24">, es la capacidad de </tspan></text>
		</g>
		<g clip-path="url(#SVGID_4_)">
			<text transform="matrix(1 0 0 1 430.7393 341.0396)" fill="#FFFFFF" font-family="'Corbel'" font-size="24">capturar la información más allá de las </text>
		</g>
		<g clip-path="url(#SVGID_4_)">
			<text transform="matrix(1 0 0 1 442.6572 369.8389)" fill="#FFFFFF" font-family="'Corbel'" font-size="24">palabras con intención de encontrar </text>
		</g>
		<g clip-path="url(#SVGID_4_)">
			<text transform="matrix(1 0 0 1 437.6182 398.6396)" fill="#FFFFFF" font-family="'Corbel'" font-size="24">necesidades primarias y secundarias. </text>
		</g>
		<g clip-path="url(#SVGID_4_)">
			<text transform="matrix(1 0 0 1 436.7217 456.2393)" fill="#FFFFFF" font-family="'Corbel'" font-size="24">Los participantes podrán reconocer y </text>
		</g>
		<g clip-path="url(#SVGID_4_)">
			<text transform="matrix(1 0 0 1 430.3818 485.04)" fill="#FFFFFF" font-family="'Corbel'" font-size="24">priorizar las necesidades de acuerdo al </text>
		</g>
		<g clip-path="url(#SVGID_4_)">
			<text transform="matrix(1 0 0 1 450.4502 513.8398)" fill="#FFFFFF" font-family="'Corbel'" font-size="24">entendimiento de las mismas y así </text>
		</g>
		<g clip-path="url(#SVGID_4_)">
			<text transform="matrix(1 0 0 1 469.2588 542.6387)" fill="#FFFFFF" font-family="'Corbel'" font-size="24">descifrar los mensajes ocultos. </text>
		</g>
		
			<rect x="14.293" y="70.801" opacity="0" clip-path="url(#SVGID_4_)" fill-rule="evenodd" clip-rule="evenodd" width="404.48" height="58.181"/>
		<g clip-path="url(#SVGID_4_)">
			<text transform="matrix(1 0 0 1 128.4756 112.1108)"><tspan x="0" y="0" font-family="'Corbel-Bold'" font-size="36">Mes:</tspan><tspan x="73.986" y="0" font-family="'Corbel-Bold'" font-size="36"> </tspan><tspan x="80.72" y="0" font-family="'Corbel-Bold'" font-size="36">JULIO</tspan></text>
		</g>
		
			<rect x="621.169" y="786.874" opacity="0" clip-path="url(#SVGID_4_)" fill-rule="evenodd" clip-rule="evenodd" width="198.65" height="31.685"/>
		<g clip-path="url(#SVGID_4_)">
			<defs>
				<rect id="SVGID_13_" x="621.169" y="786.874" width="198.65" height="31.685"/>
			</defs>
			<clipPath id="SVGID_14_">
				<use xlink:href="#SVGID_13_"  overflow="visible"/>
			</clipPath>
			<g clip-path="url(#SVGID_14_)">
				<defs>
					<rect id="SVGID_15_" x="621.169" y="786.874" width="198.65" height="31.685"/>
				</defs>
				<clipPath id="SVGID_16_">
					<use xlink:href="#SVGID_15_"  overflow="visible"/>
				</clipPath>
				<g transform="matrix(1 0 0 1 1.680857e-005 -3.932452e-005)" clip-path="url(#SVGID_16_)">
					
						<image overflow="visible" width="815" height="130" xlink:href="6822253B.png"  transform="matrix(0.2437 0 0 0.2437 621.1689 786.874)">
					</image>
				</g>
			</g>
		</g>
		
			<rect x="2.573" y="185.246" opacity="0" clip-path="url(#SVGID_4_)" fill-rule="evenodd" clip-rule="evenodd" width="404.48" height="123.614"/>
		<g clip-path="url(#SVGID_4_)">
			<text transform="matrix(1 0 0 1 61.832 220.7949)" font-family="'Handlee-Regular'" font-size="30">“</text>
		</g>
		<g clip-path="url(#SVGID_4_)">
			
				<text transform="matrix(1 0 0 1 61.832 220.7949)" fill="none" stroke="#000000" stroke-width="0.0033" stroke-linecap="square" stroke-miterlimit="10" font-family="'Handlee-Regular'" font-size="30">“</text>
		</g>
		<g clip-path="url(#SVGID_4_)">
			<text transform="matrix(1 0 0 1 71.7324 220.7949)" font-family="'Handlee-Regular'" font-size="30">L</text>
		</g>
		<g clip-path="url(#SVGID_4_)">
			
				<text transform="matrix(1 0 0 1 71.7324 220.7949)" fill="none" stroke="#000000" stroke-width="0.0033" stroke-linecap="square" stroke-miterlimit="10" font-family="'Handlee-Regular'" font-size="30">L</text>
		</g>
		<g clip-path="url(#SVGID_4_)">
			<text transform="matrix(1 0 0 1 87.7822 220.7949)" font-family="'Handlee-Regular'" font-size="30">a</text>
		</g>
		<g clip-path="url(#SVGID_4_)">
			
				<text transform="matrix(1 0 0 1 87.7822 220.7949)" fill="none" stroke="#000000" stroke-width="0.0033" stroke-linecap="square" stroke-miterlimit="10" font-family="'Handlee-Regular'" font-size="30">a</text>
		</g>
		<g clip-path="url(#SVGID_4_)">
			<text transform="matrix(1 0 0 1 101.2529 220.7949)" font-family="'Handlee-Regular'" font-size="30">s</text>
		</g>
		<g clip-path="url(#SVGID_4_)">
			
				<text transform="matrix(1 0 0 1 101.2529 220.7949)" fill="none" stroke="#000000" stroke-width="0.0033" stroke-linecap="square" stroke-miterlimit="10" font-family="'Handlee-Regular'" font-size="30">s</text>
		</g>
		<g clip-path="url(#SVGID_4_)">
			<text transform="matrix(1 0 0 1 114.333 220.7949)" font-family="'Handlee-Regular'" font-size="30"> </text>
		</g>
		<g clip-path="url(#SVGID_4_)">
			
				<text transform="matrix(1 0 0 1 114.333 220.7949)" fill="none" stroke="#000000" stroke-width="0.0033" stroke-linecap="square" stroke-miterlimit="10" font-family="'Handlee-Regular'" font-size="30"> </text>
		</g>
		<g clip-path="url(#SVGID_4_)">
			<text transform="matrix(1 0 0 1 121.1123 220.7949)" font-family="'Handlee-Regular'" font-size="30">i</text>
		</g>
		<g clip-path="url(#SVGID_4_)">
			
				<text transform="matrix(1 0 0 1 121.1123 220.7949)" fill="none" stroke="#000000" stroke-width="0.0033" stroke-linecap="square" stroke-miterlimit="10" font-family="'Handlee-Regular'" font-size="30">i</text>
		</g>
		<g clip-path="url(#SVGID_4_)">
			<text transform="matrix(1 0 0 1 127.1123 220.7949)" font-family="'Handlee-Regular'" font-size="30">d</text>
		</g>
		<g clip-path="url(#SVGID_4_)">
			
				<text transform="matrix(1 0 0 1 127.1123 220.7949)" fill="none" stroke="#000000" stroke-width="0.0033" stroke-linecap="square" stroke-miterlimit="10" font-family="'Handlee-Regular'" font-size="30">d</text>
		</g>
		<g clip-path="url(#SVGID_4_)">
			<text transform="matrix(1 0 0 1 141.3027 220.7949)" font-family="'Handlee-Regular'" font-size="30">e</text>
		</g>
		<g clip-path="url(#SVGID_4_)">
			
				<text transform="matrix(1 0 0 1 141.3027 220.7949)" fill="none" stroke="#000000" stroke-width="0.0033" stroke-linecap="square" stroke-miterlimit="10" font-family="'Handlee-Regular'" font-size="30">e</text>
		</g>
		<g clip-path="url(#SVGID_4_)">
			<text transform="matrix(1 0 0 1 155.4932 220.7949)" font-family="'Handlee-Regular'" font-size="30">a</text>
		</g>
		<g clip-path="url(#SVGID_4_)">
			
				<text transform="matrix(1 0 0 1 155.4932 220.7949)" fill="none" stroke="#000000" stroke-width="0.0033" stroke-linecap="square" stroke-miterlimit="10" font-family="'Handlee-Regular'" font-size="30">a</text>
		</g>
		<g clip-path="url(#SVGID_4_)">
			<text transform="matrix(1 0 0 1 168.9629 220.7949)" font-family="'Handlee-Regular'" font-size="30">s</text>
		</g>
		<g clip-path="url(#SVGID_4_)">
			
				<text transform="matrix(1 0 0 1 168.9629 220.7949)" fill="none" stroke="#000000" stroke-width="0.0033" stroke-linecap="square" stroke-miterlimit="10" font-family="'Handlee-Regular'" font-size="30">s</text>
		</g>
		<g clip-path="url(#SVGID_4_)">
			<text transform="matrix(1 0 0 1 182.043 220.7949)" font-family="'Handlee-Regular'" font-size="30"> </text>
		</g>
		<g clip-path="url(#SVGID_4_)">
			
				<text transform="matrix(1 0 0 1 182.043 220.7949)" fill="none" stroke="#000000" stroke-width="0.0033" stroke-linecap="square" stroke-miterlimit="10" font-family="'Handlee-Regular'" font-size="30"> </text>
		</g>
		<g clip-path="url(#SVGID_4_)">
			<text transform="matrix(1 0 0 1 188.8232 220.7949)" font-family="'Handlee-Regular'" font-size="30">p</text>
		</g>
		<g clip-path="url(#SVGID_4_)">
			
				<text transform="matrix(1 0 0 1 188.8232 220.7949)" fill="none" stroke="#000000" stroke-width="0.0033" stroke-linecap="square" stroke-miterlimit="10" font-family="'Handlee-Regular'" font-size="30">p</text>
		</g>
		<g clip-path="url(#SVGID_4_)">
			<text transform="matrix(1 0 0 1 202.9531 220.7949)" font-family="'Handlee-Regular'" font-size="30">u</text>
		</g>
		<g clip-path="url(#SVGID_4_)">
			
				<text transform="matrix(1 0 0 1 202.9531 220.7949)" fill="none" stroke="#000000" stroke-width="0.0033" stroke-linecap="square" stroke-miterlimit="10" font-family="'Handlee-Regular'" font-size="30">u</text>
		</g>
		<g clip-path="url(#SVGID_4_)">
			<text transform="matrix(1 0 0 1 216.6934 220.7949)" font-family="'Handlee-Regular'" font-size="30">e</text>
		</g>
		<g clip-path="url(#SVGID_4_)">
			
				<text transform="matrix(1 0 0 1 216.6934 220.7949)" fill="none" stroke="#000000" stroke-width="0.0033" stroke-linecap="square" stroke-miterlimit="10" font-family="'Handlee-Regular'" font-size="30">e</text>
		</g>
		<g clip-path="url(#SVGID_4_)">
			<text transform="matrix(1 0 0 1 230.8828 220.7949)" font-family="'Handlee-Regular'" font-size="30">d</text>
		</g>
		<g clip-path="url(#SVGID_4_)">
			
				<text transform="matrix(1 0 0 1 230.8828 220.7949)" fill="none" stroke="#000000" stroke-width="0.0033" stroke-linecap="square" stroke-miterlimit="10" font-family="'Handlee-Regular'" font-size="30">d</text>
		</g>
		<g clip-path="url(#SVGID_4_)">
			<text transform="matrix(1 0 0 1 245.0732 220.7949)" font-family="'Handlee-Regular'" font-size="30">e</text>
		</g>
		<g clip-path="url(#SVGID_4_)">
			
				<text transform="matrix(1 0 0 1 245.0732 220.7949)" fill="none" stroke="#000000" stroke-width="0.0033" stroke-linecap="square" stroke-miterlimit="10" font-family="'Handlee-Regular'" font-size="30">e</text>
		</g>
		<g clip-path="url(#SVGID_4_)">
			<text transform="matrix(1 0 0 1 259.2637 220.7949)" font-family="'Handlee-Regular'" font-size="30">n</text>
		</g>
		<g clip-path="url(#SVGID_4_)">
			
				<text transform="matrix(1 0 0 1 259.2637 220.7949)" fill="none" stroke="#000000" stroke-width="0.0033" stroke-linecap="square" stroke-miterlimit="10" font-family="'Handlee-Regular'" font-size="30">n</text>
		</g>
		<g clip-path="url(#SVGID_4_)">
			<text transform="matrix(1 0 0 1 273.5439 220.7949)" font-family="'Handlee-Regular'" font-size="30"> </text>
		</g>
		<g clip-path="url(#SVGID_4_)">
			
				<text transform="matrix(1 0 0 1 273.5439 220.7949)" fill="none" stroke="#000000" stroke-width="0.0033" stroke-linecap="square" stroke-miterlimit="10" font-family="'Handlee-Regular'" font-size="30"> </text>
		</g>
		<g clip-path="url(#SVGID_4_)">
			<text transform="matrix(1 0 0 1 280.3232 220.7949)" font-family="'Handlee-Regular'" font-size="30">s</text>
		</g>
		<g clip-path="url(#SVGID_4_)">
			
				<text transform="matrix(1 0 0 1 280.3232 220.7949)" fill="none" stroke="#000000" stroke-width="0.0033" stroke-linecap="square" stroke-miterlimit="10" font-family="'Handlee-Regular'" font-size="30">s</text>
		</g>
		<g clip-path="url(#SVGID_4_)">
			<text transform="matrix(1 0 0 1 293.4033 220.7949)" font-family="'Handlee-Regular'" font-size="30">o</text>
		</g>
		<g clip-path="url(#SVGID_4_)">
			
				<text transform="matrix(1 0 0 1 293.4033 220.7949)" fill="none" stroke="#000000" stroke-width="0.0033" stroke-linecap="square" stroke-miterlimit="10" font-family="'Handlee-Regular'" font-size="30">o</text>
		</g>
		<g clip-path="url(#SVGID_4_)">
			<text transform="matrix(1 0 0 1 308.1035 220.7949)" font-family="'Handlee-Regular'" font-size="30">n</text>
		</g>
		<g clip-path="url(#SVGID_4_)">
			
				<text transform="matrix(1 0 0 1 308.1035 220.7949)" fill="none" stroke="#000000" stroke-width="0.0033" stroke-linecap="square" stroke-miterlimit="10" font-family="'Handlee-Regular'" font-size="30">n</text>
		</g>
		<g clip-path="url(#SVGID_4_)">
			<text transform="matrix(1 0 0 1 322.3828 220.7949)" font-family="'Handlee-Regular'" font-size="30">a</text>
		</g>
		<g clip-path="url(#SVGID_4_)">
			
				<text transform="matrix(1 0 0 1 322.3828 220.7949)" fill="none" stroke="#000000" stroke-width="0.0033" stroke-linecap="square" stroke-miterlimit="10" font-family="'Handlee-Regular'" font-size="30">a</text>
		</g>
		<g clip-path="url(#SVGID_4_)">
			<text transform="matrix(1 0 0 1 335.8535 220.7949)" font-family="'Handlee-Regular'" font-size="30">r</text>
		</g>
		<g clip-path="url(#SVGID_4_)">
			
				<text transform="matrix(1 0 0 1 335.8535 220.7949)" fill="none" stroke="#000000" stroke-width="0.0033" stroke-linecap="square" stroke-miterlimit="10" font-family="'Handlee-Regular'" font-size="30">r</text>
		</g>
		<g clip-path="url(#SVGID_4_)">
			<text transform="matrix(1 0 0 1 347.7939 220.7949)" font-family="'Handlee-Regular'" font-size="30"> </text>
		</g>
		<g clip-path="url(#SVGID_4_)">
			
				<text transform="matrix(1 0 0 1 347.7939 220.7949)" fill="none" stroke="#000000" stroke-width="0.0033" stroke-linecap="square" stroke-miterlimit="10" font-family="'Handlee-Regular'" font-size="30"> </text>
		</g>
		<g clip-path="url(#SVGID_4_)">
			<text transform="matrix(1 0 0 1 49.0527 256.7949)" font-family="'Handlee-Regular'" font-size="30">a</text>
		</g>
		<g clip-path="url(#SVGID_4_)">
			
				<text transform="matrix(1 0 0 1 49.0527 256.7949)" fill="none" stroke="#000000" stroke-width="0.0033" stroke-linecap="square" stroke-miterlimit="10" font-family="'Handlee-Regular'" font-size="30">a</text>
		</g>
		<g clip-path="url(#SVGID_4_)">
			<text transform="matrix(1 0 0 1 62.5225 256.7949)" font-family="'Handlee-Regular'" font-size="30">l</text>
		</g>
		<g clip-path="url(#SVGID_4_)">
			
				<text transform="matrix(1 0 0 1 62.5225 256.7949)" fill="none" stroke="#000000" stroke-width="0.0033" stroke-linecap="square" stroke-miterlimit="10" font-family="'Handlee-Regular'" font-size="30">l</text>
		</g>
		<g clip-path="url(#SVGID_4_)">
			<text transform="matrix(1 0 0 1 69.6631 256.7949)" font-family="'Handlee-Regular'" font-size="30">o</text>
		</g>
		<g clip-path="url(#SVGID_4_)">
			
				<text transform="matrix(1 0 0 1 69.6631 256.7949)" fill="none" stroke="#000000" stroke-width="0.0033" stroke-linecap="square" stroke-miterlimit="10" font-family="'Handlee-Regular'" font-size="30">o</text>
		</g>
		<g clip-path="url(#SVGID_4_)">
			<text transform="matrix(1 0 0 1 84.3633 256.7949)" font-family="'Handlee-Regular'" font-size="30">c</text>
		</g>
		<g clip-path="url(#SVGID_4_)">
			
				<text transform="matrix(1 0 0 1 84.3633 256.7949)" fill="none" stroke="#000000" stroke-width="0.0033" stroke-linecap="square" stroke-miterlimit="10" font-family="'Handlee-Regular'" font-size="30">c</text>
		</g>
		<g clip-path="url(#SVGID_4_)">
			<text transform="matrix(1 0 0 1 97.7432 256.7949)" font-family="'Handlee-Regular'" font-size="30">a</text>
		</g>
		<g clip-path="url(#SVGID_4_)">
			
				<text transform="matrix(1 0 0 1 97.7432 256.7949)" fill="none" stroke="#000000" stroke-width="0.0033" stroke-linecap="square" stroke-miterlimit="10" font-family="'Handlee-Regular'" font-size="30">a</text>
		</g>
		<g clip-path="url(#SVGID_4_)">
			<text transform="matrix(1 0 0 1 111.2129 256.7949)" font-family="'Handlee-Regular'" font-size="30">d</text>
		</g>
		<g clip-path="url(#SVGID_4_)">
			
				<text transform="matrix(1 0 0 1 111.2129 256.7949)" fill="none" stroke="#000000" stroke-width="0.0033" stroke-linecap="square" stroke-miterlimit="10" font-family="'Handlee-Regular'" font-size="30">d</text>
		</g>
		<g clip-path="url(#SVGID_4_)">
			<text transform="matrix(1 0 0 1 125.4033 256.7949)" font-family="'Handlee-Regular'" font-size="30">a</text>
		</g>
		<g clip-path="url(#SVGID_4_)">
			
				<text transform="matrix(1 0 0 1 125.4033 256.7949)" fill="none" stroke="#000000" stroke-width="0.0033" stroke-linecap="square" stroke-miterlimit="10" font-family="'Handlee-Regular'" font-size="30">a</text>
		</g>
		<g clip-path="url(#SVGID_4_)">
			<text transform="matrix(1 0 0 1 138.874 256.7949)" font-family="'Handlee-Regular'" font-size="30">s</text>
		</g>
		<g clip-path="url(#SVGID_4_)">
			
				<text transform="matrix(1 0 0 1 138.874 256.7949)" fill="none" stroke="#000000" stroke-width="0.0033" stroke-linecap="square" stroke-miterlimit="10" font-family="'Handlee-Regular'" font-size="30">s</text>
		</g>
		<g clip-path="url(#SVGID_4_)">
			<text transform="matrix(1 0 0 1 151.9531 256.7949)" font-family="'Handlee-Regular'" font-size="30">,</text>
		</g>
		<g clip-path="url(#SVGID_4_)">
			
				<text transform="matrix(1 0 0 1 151.9531 256.7949)" fill="none" stroke="#000000" stroke-width="0.0033" stroke-linecap="square" stroke-miterlimit="10" font-family="'Handlee-Regular'" font-size="30">,</text>
		</g>
		<g clip-path="url(#SVGID_4_)">
			<text transform="matrix(1 0 0 1 157.4434 256.7949)" font-family="'Handlee-Regular'" font-size="30"> </text>
		</g>
		<g clip-path="url(#SVGID_4_)">
			
				<text transform="matrix(1 0 0 1 157.4434 256.7949)" fill="none" stroke="#000000" stroke-width="0.0033" stroke-linecap="square" stroke-miterlimit="10" font-family="'Handlee-Regular'" font-size="30"> </text>
		</g>
		<g clip-path="url(#SVGID_4_)">
			<text transform="matrix(1 0 0 1 164.2236 256.7949)" font-family="'Handlee-Regular'" font-size="30">e</text>
		</g>
		<g clip-path="url(#SVGID_4_)">
			
				<text transform="matrix(1 0 0 1 164.2236 256.7949)" fill="none" stroke="#000000" stroke-width="0.0033" stroke-linecap="square" stroke-miterlimit="10" font-family="'Handlee-Regular'" font-size="30">e</text>
		</g>
		<g clip-path="url(#SVGID_4_)">
			<text transform="matrix(1 0 0 1 178.4141 256.7949)" font-family="'Handlee-Regular'" font-size="30">s</text>
		</g>
		<g clip-path="url(#SVGID_4_)">
			
				<text transform="matrix(1 0 0 1 178.4141 256.7949)" fill="none" stroke="#000000" stroke-width="0.0033" stroke-linecap="square" stroke-miterlimit="10" font-family="'Handlee-Regular'" font-size="30">s</text>
		</g>
		<g clip-path="url(#SVGID_4_)">
			<text transform="matrix(1 0 0 1 191.4941 256.7949)" font-family="'Handlee-Regular'" font-size="30">t</text>
		</g>
		<g clip-path="url(#SVGID_4_)">
			
				<text transform="matrix(1 0 0 1 191.4941 256.7949)" fill="none" stroke="#000000" stroke-width="0.0033" stroke-linecap="square" stroke-miterlimit="10" font-family="'Handlee-Regular'" font-size="30">t</text>
		</g>
		<g clip-path="url(#SVGID_4_)">
			<text transform="matrix(1 0 0 1 202.2344 256.7949)" font-family="'Handlee-Regular'" font-size="30">ú</text>
		</g>
		<g clip-path="url(#SVGID_4_)">
			
				<text transform="matrix(1 0 0 1 202.2344 256.7949)" fill="none" stroke="#000000" stroke-width="0.0033" stroke-linecap="square" stroke-miterlimit="10" font-family="'Handlee-Regular'" font-size="30">ú</text>
		</g>
		<g clip-path="url(#SVGID_4_)">
			<text transform="matrix(1 0 0 1 215.9736 256.7949)" font-family="'Handlee-Regular'" font-size="30">p</text>
		</g>
		<g clip-path="url(#SVGID_4_)">
			
				<text transform="matrix(1 0 0 1 215.9736 256.7949)" fill="none" stroke="#000000" stroke-width="0.0033" stroke-linecap="square" stroke-miterlimit="10" font-family="'Handlee-Regular'" font-size="30">p</text>
		</g>
		<g clip-path="url(#SVGID_4_)">
			<text transform="matrix(1 0 0 1 230.1035 256.7949)" font-family="'Handlee-Regular'" font-size="30">i</text>
		</g>
		<g clip-path="url(#SVGID_4_)">
			
				<text transform="matrix(1 0 0 1 230.1035 256.7949)" fill="none" stroke="#000000" stroke-width="0.0033" stroke-linecap="square" stroke-miterlimit="10" font-family="'Handlee-Regular'" font-size="30">i</text>
		</g>
		<g clip-path="url(#SVGID_4_)">
			<text transform="matrix(1 0 0 1 236.1035 256.7949)" font-family="'Handlee-Regular'" font-size="30">d</text>
		</g>
		<g clip-path="url(#SVGID_4_)">
			
				<text transform="matrix(1 0 0 1 236.1035 256.7949)" fill="none" stroke="#000000" stroke-width="0.0033" stroke-linecap="square" stroke-miterlimit="10" font-family="'Handlee-Regular'" font-size="30">d</text>
		</g>
		<g clip-path="url(#SVGID_4_)">
			<text transform="matrix(1 0 0 1 250.2939 256.7949)" font-family="'Handlee-Regular'" font-size="30">a</text>
		</g>
		<g clip-path="url(#SVGID_4_)">
			
				<text transform="matrix(1 0 0 1 250.2939 256.7949)" fill="none" stroke="#000000" stroke-width="0.0033" stroke-linecap="square" stroke-miterlimit="10" font-family="'Handlee-Regular'" font-size="30">a</text>
		</g>
		<g clip-path="url(#SVGID_4_)">
			<text transform="matrix(1 0 0 1 263.7637 256.7949)" font-family="'Handlee-Regular'" font-size="30">s</text>
		</g>
		<g clip-path="url(#SVGID_4_)">
			
				<text transform="matrix(1 0 0 1 263.7637 256.7949)" fill="none" stroke="#000000" stroke-width="0.0033" stroke-linecap="square" stroke-miterlimit="10" font-family="'Handlee-Regular'" font-size="30">s</text>
		</g>
		<g clip-path="url(#SVGID_4_)">
			<text transform="matrix(1 0 0 1 276.8438 256.7949)" font-family="'Handlee-Regular'" font-size="30"> </text>
		</g>
		<g clip-path="url(#SVGID_4_)">
			
				<text transform="matrix(1 0 0 1 276.8438 256.7949)" fill="none" stroke="#000000" stroke-width="0.0033" stroke-linecap="square" stroke-miterlimit="10" font-family="'Handlee-Regular'" font-size="30"> </text>
		</g>
		<g clip-path="url(#SVGID_4_)">
			<text transform="matrix(1 0 0 1 283.624 256.7949)" font-family="'Handlee-Regular'" font-size="30">y</text>
		</g>
		<g clip-path="url(#SVGID_4_)">
			
				<text transform="matrix(1 0 0 1 283.624 256.7949)" fill="none" stroke="#000000" stroke-width="0.0033" stroke-linecap="square" stroke-miterlimit="10" font-family="'Handlee-Regular'" font-size="30">y</text>
		</g>
		<g clip-path="url(#SVGID_4_)">
			<text transform="matrix(1 0 0 1 296.8838 256.7949)" font-family="'Handlee-Regular'" font-size="30"> </text>
		</g>
		<g clip-path="url(#SVGID_4_)">
			
				<text transform="matrix(1 0 0 1 296.8838 256.7949)" fill="none" stroke="#000000" stroke-width="0.0033" stroke-linecap="square" stroke-miterlimit="10" font-family="'Handlee-Regular'" font-size="30"> </text>
		</g>
		<g clip-path="url(#SVGID_4_)">
			<text transform="matrix(1 0 0 1 303.6641 256.7949)" font-family="'Handlee-Regular'" font-size="30">p</text>
		</g>
		<g clip-path="url(#SVGID_4_)">
			
				<text transform="matrix(1 0 0 1 303.6641 256.7949)" fill="none" stroke="#000000" stroke-width="0.0033" stroke-linecap="square" stroke-miterlimit="10" font-family="'Handlee-Regular'" font-size="30">p</text>
		</g>
		<g clip-path="url(#SVGID_4_)">
			<text transform="matrix(1 0 0 1 317.793 256.7949)" font-family="'Handlee-Regular'" font-size="30">o</text>
		</g>
		<g clip-path="url(#SVGID_4_)">
			
				<text transform="matrix(1 0 0 1 317.793 256.7949)" fill="none" stroke="#000000" stroke-width="0.0033" stroke-linecap="square" stroke-miterlimit="10" font-family="'Handlee-Regular'" font-size="30">o</text>
		</g>
		<g clip-path="url(#SVGID_4_)">
			<text transform="matrix(1 0 0 1 332.4932 256.7949)" font-family="'Handlee-Regular'" font-size="30">c</text>
		</g>
		<g clip-path="url(#SVGID_4_)">
			
				<text transform="matrix(1 0 0 1 332.4932 256.7949)" fill="none" stroke="#000000" stroke-width="0.0033" stroke-linecap="square" stroke-miterlimit="10" font-family="'Handlee-Regular'" font-size="30">c</text>
		</g>
		<g clip-path="url(#SVGID_4_)">
			<text transform="matrix(1 0 0 1 345.873 256.7949)" font-family="'Handlee-Regular'" font-size="30">o</text>
		</g>
		<g clip-path="url(#SVGID_4_)">
			
				<text transform="matrix(1 0 0 1 345.873 256.7949)" fill="none" stroke="#000000" stroke-width="0.0033" stroke-linecap="square" stroke-miterlimit="10" font-family="'Handlee-Regular'" font-size="30">o</text>
		</g>
		<g clip-path="url(#SVGID_4_)">
			<text transform="matrix(1 0 0 1 360.5742 256.7949)" font-family="'Handlee-Regular'" font-size="30"> </text>
		</g>
		<g clip-path="url(#SVGID_4_)">
			
				<text transform="matrix(1 0 0 1 360.5742 256.7949)" fill="none" stroke="#000000" stroke-width="0.0033" stroke-linecap="square" stroke-miterlimit="10" font-family="'Handlee-Regular'" font-size="30"> </text>
		</g>
		<g clip-path="url(#SVGID_4_)">
			<text transform="matrix(1 0 0 1 17.8379 292.7949)" font-family="'Handlee-Regular'" font-size="30">r</text>
		</g>
		<g clip-path="url(#SVGID_4_)">
			
				<text transform="matrix(1 0 0 1 17.8379 292.7949)" fill="none" stroke="#000000" stroke-width="0.0033" stroke-linecap="square" stroke-miterlimit="10" font-family="'Handlee-Regular'" font-size="30">r</text>
		</g>
		<g clip-path="url(#SVGID_4_)">
			<text transform="matrix(1 0 0 1 29.2969 292.7949)" font-family="'Handlee-Regular'" font-size="30">e</text>
		</g>
		<g clip-path="url(#SVGID_4_)">
			
				<text transform="matrix(1 0 0 1 29.2969 292.7949)" fill="none" stroke="#000000" stroke-width="0.0033" stroke-linecap="square" stroke-miterlimit="10" font-family="'Handlee-Regular'" font-size="30">e</text>
		</g>
		<g clip-path="url(#SVGID_4_)">
			<text transform="matrix(1 0 0 1 43.4873 292.7949)" font-family="'Handlee-Regular'" font-size="30">n</text>
		</g>
		<g clip-path="url(#SVGID_4_)">
			
				<text transform="matrix(1 0 0 1 43.4873 292.7949)" fill="none" stroke="#000000" stroke-width="0.0033" stroke-linecap="square" stroke-miterlimit="10" font-family="'Handlee-Regular'" font-size="30">n</text>
		</g>
		<g clip-path="url(#SVGID_4_)">
			<text transform="matrix(1 0 0 1 57.7676 292.7949)" font-family="'Handlee-Regular'" font-size="30">t</text>
		</g>
		<g clip-path="url(#SVGID_4_)">
			
				<text transform="matrix(1 0 0 1 57.7676 292.7949)" fill="none" stroke="#000000" stroke-width="0.0033" stroke-linecap="square" stroke-miterlimit="10" font-family="'Handlee-Regular'" font-size="30">t</text>
		</g>
		<g clip-path="url(#SVGID_4_)">
			<text transform="matrix(1 0 0 1 68.5068 292.7949)" font-family="'Handlee-Regular'" font-size="30">a</text>
		</g>
		<g clip-path="url(#SVGID_4_)">
			
				<text transform="matrix(1 0 0 1 68.5068 292.7949)" fill="none" stroke="#000000" stroke-width="0.0033" stroke-linecap="square" stroke-miterlimit="10" font-family="'Handlee-Regular'" font-size="30">a</text>
		</g>
		<g clip-path="url(#SVGID_4_)">
			<text transform="matrix(1 0 0 1 81.9775 292.7949)" font-family="'Handlee-Regular'" font-size="30">b</text>
		</g>
		<g clip-path="url(#SVGID_4_)">
			
				<text transform="matrix(1 0 0 1 81.9775 292.7949)" fill="none" stroke="#000000" stroke-width="0.0033" stroke-linecap="square" stroke-miterlimit="10" font-family="'Handlee-Regular'" font-size="30">b</text>
		</g>
		<g clip-path="url(#SVGID_4_)">
			<text transform="matrix(1 0 0 1 95.5371 292.7949)" font-family="'Handlee-Regular'" font-size="30">l</text>
		</g>
		<g clip-path="url(#SVGID_4_)">
			
				<text transform="matrix(1 0 0 1 95.5371 292.7949)" fill="none" stroke="#000000" stroke-width="0.0033" stroke-linecap="square" stroke-miterlimit="10" font-family="'Handlee-Regular'" font-size="30">l</text>
		</g>
		<g clip-path="url(#SVGID_4_)">
			<text transform="matrix(1 0 0 1 102.6777 292.7949)" font-family="'Handlee-Regular'" font-size="30">e</text>
		</g>
		<g clip-path="url(#SVGID_4_)">
			
				<text transform="matrix(1 0 0 1 102.6777 292.7949)" fill="none" stroke="#000000" stroke-width="0.0033" stroke-linecap="square" stroke-miterlimit="10" font-family="'Handlee-Regular'" font-size="30">e</text>
		</g>
		<g clip-path="url(#SVGID_4_)">
			<text transform="matrix(1 0 0 1 116.8672 292.7949)" font-family="'Handlee-Regular'" font-size="30">s</text>
		</g>
		<g clip-path="url(#SVGID_4_)">
			
				<text transform="matrix(1 0 0 1 116.8672 292.7949)" fill="none" stroke="#000000" stroke-width="0.0033" stroke-linecap="square" stroke-miterlimit="10" font-family="'Handlee-Regular'" font-size="30">s</text>
		</g>
		<g clip-path="url(#SVGID_4_)">
			<text transform="matrix(1 0 0 1 129.9482 292.7949)" font-family="'Handlee-Regular'" font-size="30">,</text>
		</g>
		<g clip-path="url(#SVGID_4_)">
			
				<text transform="matrix(1 0 0 1 129.9482 292.7949)" fill="none" stroke="#000000" stroke-width="0.0033" stroke-linecap="square" stroke-miterlimit="10" font-family="'Handlee-Regular'" font-size="30">,</text>
		</g>
		<g clip-path="url(#SVGID_4_)">
			<text transform="matrix(1 0 0 1 135.4375 292.7949)" font-family="'Handlee-Regular'" font-size="30"> </text>
		</g>
		<g clip-path="url(#SVGID_4_)">
			
				<text transform="matrix(1 0 0 1 135.4375 292.7949)" fill="none" stroke="#000000" stroke-width="0.0033" stroke-linecap="square" stroke-miterlimit="10" font-family="'Handlee-Regular'" font-size="30"> </text>
		</g>
		<g clip-path="url(#SVGID_4_)">
			<text transform="matrix(1 0 0 1 142.2178 292.7949)" font-family="'Handlee-Regular'" font-size="30">l</text>
		</g>
		<g clip-path="url(#SVGID_4_)">
			
				<text transform="matrix(1 0 0 1 142.2178 292.7949)" fill="none" stroke="#000000" stroke-width="0.0033" stroke-linecap="square" stroke-miterlimit="10" font-family="'Handlee-Regular'" font-size="30">l</text>
		</g>
		<g clip-path="url(#SVGID_4_)">
			<text transform="matrix(1 0 0 1 149.3574 292.7949)" font-family="'Handlee-Regular'" font-size="30">u</text>
		</g>
		<g clip-path="url(#SVGID_4_)">
			
				<text transform="matrix(1 0 0 1 149.3574 292.7949)" fill="none" stroke="#000000" stroke-width="0.0033" stroke-linecap="square" stroke-miterlimit="10" font-family="'Handlee-Regular'" font-size="30">u</text>
		</g>
		<g clip-path="url(#SVGID_4_)">
			<text transform="matrix(1 0 0 1 163.0977 292.7949)" font-family="'Handlee-Regular'" font-size="30">e</text>
		</g>
		<g clip-path="url(#SVGID_4_)">
			
				<text transform="matrix(1 0 0 1 163.0977 292.7949)" fill="none" stroke="#000000" stroke-width="0.0033" stroke-linecap="square" stroke-miterlimit="10" font-family="'Handlee-Regular'" font-size="30">e</text>
		</g>
		<g clip-path="url(#SVGID_4_)">
			<text transform="matrix(1 0 0 1 177.2881 292.7949)" font-family="'Handlee-Regular'" font-size="30">g</text>
		</g>
		<g clip-path="url(#SVGID_4_)">
			
				<text transform="matrix(1 0 0 1 177.2881 292.7949)" fill="none" stroke="#000000" stroke-width="0.0033" stroke-linecap="square" stroke-miterlimit="10" font-family="'Handlee-Regular'" font-size="30">g</text>
		</g>
		<g clip-path="url(#SVGID_4_)">
			<text transform="matrix(1 0 0 1 191.2686 292.7949)" font-family="'Handlee-Regular'" font-size="30">o</text>
		</g>
		<g clip-path="url(#SVGID_4_)">
			
				<text transform="matrix(1 0 0 1 191.2686 292.7949)" fill="none" stroke="#000000" stroke-width="0.0033" stroke-linecap="square" stroke-miterlimit="10" font-family="'Handlee-Regular'" font-size="30">o</text>
		</g>
		<g clip-path="url(#SVGID_4_)">
			<text transform="matrix(1 0 0 1 205.9678 292.7949)" font-family="'Handlee-Regular'" font-size="30"> </text>
		</g>
		<g clip-path="url(#SVGID_4_)">
			
				<text transform="matrix(1 0 0 1 205.9678 292.7949)" fill="none" stroke="#000000" stroke-width="0.0033" stroke-linecap="square" stroke-miterlimit="10" font-family="'Handlee-Regular'" font-size="30"> </text>
		</g>
		<g clip-path="url(#SVGID_4_)">
			<text transform="matrix(1 0 0 1 212.748 292.7949)" font-family="'Handlee-Regular'" font-size="30">s</text>
		</g>
		<g clip-path="url(#SVGID_4_)">
			
				<text transform="matrix(1 0 0 1 212.748 292.7949)" fill="none" stroke="#000000" stroke-width="0.0033" stroke-linecap="square" stroke-miterlimit="10" font-family="'Handlee-Regular'" font-size="30">s</text>
		</g>
		<g clip-path="url(#SVGID_4_)">
			<text transform="matrix(1 0 0 1 225.8281 292.7949)" font-family="'Handlee-Regular'" font-size="30">e</text>
		</g>
		<g clip-path="url(#SVGID_4_)">
			
				<text transform="matrix(1 0 0 1 225.8281 292.7949)" fill="none" stroke="#000000" stroke-width="0.0033" stroke-linecap="square" stroke-miterlimit="10" font-family="'Handlee-Regular'" font-size="30">e</text>
		</g>
		<g clip-path="url(#SVGID_4_)">
			<text transform="matrix(1 0 0 1 240.0186 292.7949)" font-family="'Handlee-Regular'" font-size="30">r</text>
		</g>
		<g clip-path="url(#SVGID_4_)">
			
				<text transform="matrix(1 0 0 1 240.0186 292.7949)" fill="none" stroke="#000000" stroke-width="0.0033" stroke-linecap="square" stroke-miterlimit="10" font-family="'Handlee-Regular'" font-size="30">r</text>
		</g>
		<g clip-path="url(#SVGID_4_)">
			<text transform="matrix(1 0 0 1 251.958 292.7949)" font-family="'Handlee-Regular'" font-size="30">á</text>
		</g>
		<g clip-path="url(#SVGID_4_)">
			
				<text transform="matrix(1 0 0 1 251.958 292.7949)" fill="none" stroke="#000000" stroke-width="0.0033" stroke-linecap="square" stroke-miterlimit="10" font-family="'Handlee-Regular'" font-size="30">á</text>
		</g>
		<g clip-path="url(#SVGID_4_)">
			<text transform="matrix(1 0 0 1 265.4287 292.7949)" font-family="'Handlee-Regular'" font-size="30">n</text>
		</g>
		<g clip-path="url(#SVGID_4_)">
			
				<text transform="matrix(1 0 0 1 265.4287 292.7949)" fill="none" stroke="#000000" stroke-width="0.0033" stroke-linecap="square" stroke-miterlimit="10" font-family="'Handlee-Regular'" font-size="30">n</text>
		</g>
		<g clip-path="url(#SVGID_4_)">
			<text transform="matrix(1 0 0 1 279.708 292.7949)" font-family="'Handlee-Regular'" font-size="30"> </text>
		</g>
		<g clip-path="url(#SVGID_4_)">
			
				<text transform="matrix(1 0 0 1 279.708 292.7949)" fill="none" stroke="#000000" stroke-width="0.0033" stroke-linecap="square" stroke-miterlimit="10" font-family="'Handlee-Regular'" font-size="30"> </text>
		</g>
		<g clip-path="url(#SVGID_4_)">
			<text transform="matrix(1 0 0 1 286.4883 292.7949)" font-family="'Handlee-Regular'" font-size="30">u</text>
		</g>
		<g clip-path="url(#SVGID_4_)">
			
				<text transform="matrix(1 0 0 1 286.4883 292.7949)" fill="none" stroke="#000000" stroke-width="0.0033" stroke-linecap="square" stroke-miterlimit="10" font-family="'Handlee-Regular'" font-size="30">u</text>
		</g>
		<g clip-path="url(#SVGID_4_)">
			<text transform="matrix(1 0 0 1 300.2285 292.7949)" font-family="'Handlee-Regular'" font-size="30">n</text>
		</g>
		<g clip-path="url(#SVGID_4_)">
			
				<text transform="matrix(1 0 0 1 300.2285 292.7949)" fill="none" stroke="#000000" stroke-width="0.0033" stroke-linecap="square" stroke-miterlimit="10" font-family="'Handlee-Regular'" font-size="30">n</text>
		</g>
		<g clip-path="url(#SVGID_4_)">
			<text transform="matrix(1 0 0 1 314.5078 292.7949)" font-family="'Handlee-Regular'" font-size="30"> </text>
		</g>
		<g clip-path="url(#SVGID_4_)">
			
				<text transform="matrix(1 0 0 1 314.5078 292.7949)" fill="none" stroke="#000000" stroke-width="0.0033" stroke-linecap="square" stroke-miterlimit="10" font-family="'Handlee-Regular'" font-size="30"> </text>
		</g>
		<g clip-path="url(#SVGID_4_)">
			<text transform="matrix(1 0 0 1 321.2881 292.7949)" font-family="'Handlee-Regular'" font-size="30">é</text>
		</g>
		<g clip-path="url(#SVGID_4_)">
			
				<text transform="matrix(1 0 0 1 321.2881 292.7949)" fill="none" stroke="#000000" stroke-width="0.0033" stroke-linecap="square" stroke-miterlimit="10" font-family="'Handlee-Regular'" font-size="30">é</text>
		</g>
		<g clip-path="url(#SVGID_4_)">
			<text transform="matrix(1 0 0 1 335.4785 292.7949)" font-family="'Handlee-Regular'" font-size="30">x</text>
		</g>
		<g clip-path="url(#SVGID_4_)">
			
				<text transform="matrix(1 0 0 1 335.4785 292.7949)" fill="none" stroke="#000000" stroke-width="0.0033" stroke-linecap="square" stroke-miterlimit="10" font-family="'Handlee-Regular'" font-size="30">x</text>
		</g>
		<g clip-path="url(#SVGID_4_)">
			<text transform="matrix(1 0 0 1 347.0879 292.7949)" font-family="'Handlee-Regular'" font-size="30">i</text>
		</g>
		<g clip-path="url(#SVGID_4_)">
			
				<text transform="matrix(1 0 0 1 347.0879 292.7949)" fill="none" stroke="#000000" stroke-width="0.0033" stroke-linecap="square" stroke-miterlimit="10" font-family="'Handlee-Regular'" font-size="30">i</text>
		</g>
		<g clip-path="url(#SVGID_4_)">
			<text transform="matrix(1 0 0 1 353.0879 292.7949)" font-family="'Handlee-Regular'" font-size="30">t</text>
		</g>
		<g clip-path="url(#SVGID_4_)">
			
				<text transform="matrix(1 0 0 1 353.0879 292.7949)" fill="none" stroke="#000000" stroke-width="0.0033" stroke-linecap="square" stroke-miterlimit="10" font-family="'Handlee-Regular'" font-size="30">t</text>
		</g>
		<g clip-path="url(#SVGID_4_)">
			<text transform="matrix(1 0 0 1 363.8281 292.7949)" font-family="'Handlee-Regular'" font-size="30">o</text>
		</g>
		<g clip-path="url(#SVGID_4_)">
			
				<text transform="matrix(1 0 0 1 363.8281 292.7949)" fill="none" stroke="#000000" stroke-width="0.0033" stroke-linecap="square" stroke-miterlimit="10" font-family="'Handlee-Regular'" font-size="30">o</text>
		</g>
		<g clip-path="url(#SVGID_4_)">
			<text transform="matrix(1 0 0 1 378.5273 292.7949)" font-family="'Handlee-Regular'" font-size="30">.</text>
		</g>
		<g clip-path="url(#SVGID_4_)">
			
				<text transform="matrix(1 0 0 1 378.5273 292.7949)" fill="none" stroke="#000000" stroke-width="0.0033" stroke-linecap="square" stroke-miterlimit="10" font-family="'Handlee-Regular'" font-size="30">.</text>
		</g>
		<g clip-path="url(#SVGID_4_)">
			<text transform="matrix(1 0 0 1 381.9482 292.7949)" font-family="'Handlee-Regular'" font-size="30">”</text>
		</g>
		<g clip-path="url(#SVGID_4_)">
			
				<text transform="matrix(1 0 0 1 381.9482 292.7949)" fill="none" stroke="#000000" stroke-width="0.0033" stroke-linecap="square" stroke-miterlimit="10" font-family="'Handlee-Regular'" font-size="30">”</text>
		</g>
		
			<rect x="58.692" y="334.216" opacity="0" clip-path="url(#SVGID_4_)" fill-rule="evenodd" clip-rule="evenodd" width="292.243" height="448.342"/>
		<g clip-path="url(#SVGID_4_)">
			<defs>
				<rect id="SVGID_17_" x="58.692" y="334.216" width="292.243" height="448.342"/>
			</defs>
			<clipPath id="SVGID_18_">
				<use xlink:href="#SVGID_17_"  overflow="visible"/>
			</clipPath>
			<g clip-path="url(#SVGID_18_)">
				<defs>
					<rect id="SVGID_19_" x="30.169" y="304.716" width="377.782" height="534.917"/>
				</defs>
				<clipPath id="SVGID_20_">
					<use xlink:href="#SVGID_19_"  overflow="visible"/>
				</clipPath>
				<g transform="matrix(1 0 0 1 1.424134e-006 -1.279873e-005)" clip-path="url(#SVGID_20_)">
					
						<image overflow="visible" width="904" height="1280" xlink:href="68222544.jpg"  transform="matrix(0.4179 0 0 0.4179 30.1689 304.7158)">
					</image>
				</g>
			</g>
		</g>
	</g>
</g>
</svg>
