<?xml version="1.0" encoding="utf-8"?>
<!-- Generator: Adobe Illustrator 16.0.3, SVG Export Plug-In . SVG Version: 6.00 Build 0)  -->
<!DOCTYPE svg PUBLIC "-//W3C//DTD SVG 1.1//EN" "http://www.w3.org/Graphics/SVG/1.1/DTD/svg11.dtd">
<svg version="1.1" id="Capa_1" xmlns="http://www.w3.org/2000/svg" xmlns:xlink="http://www.w3.org/1999/xlink" x="0px" y="0px"
	 width="841px" height="841px" viewBox="0 0 841 841" enable-background="new 0 0 841 841" xml:space="preserve">
<g>
	<defs>
		<rect id="SVGID_1_" width="841" height="841"/>
	</defs>
	<clipPath id="SVGID_2_">
		<use xlink:href="#SVGID_1_"  overflow="visible"/>
	</clipPath>
	<g clip-path="url(#SVGID_2_)">
		<defs>
			<rect id="SVGID_3_" width="841.89" height="841.89"/>
		</defs>
		<clipPath id="SVGID_4_">
			<use xlink:href="#SVGID_3_"  overflow="visible"/>
		</clipPath>
		<rect clip-path="url(#SVGID_4_)" fill-rule="evenodd" clip-rule="evenodd" fill="#EF7723" width="841.89" height="841.89"/>
		
			<rect x="16.421" y="61.329" opacity="0" clip-path="url(#SVGID_4_)" fill-rule="evenodd" clip-rule="evenodd" width="368.504" height="43.276"/>
		<g clip-path="url(#SVGID_4_)">
			<text transform="matrix(1 0 0 1 94.8027 104.5659)" fill="#FFFFFF" font-family="'Handlee-Regular'" font-size="60">C</text>
		</g>
		<g clip-path="url(#SVGID_4_)">
			
				<text transform="matrix(1 0 0 1 94.8027 104.5659)" fill="none" stroke="#FFFFFF" stroke-width="0.0066" stroke-linecap="square" stroke-miterlimit="10" font-family="'Handlee-Regular'" font-size="60">C</text>
		</g>
		<g clip-path="url(#SVGID_4_)">
			<text transform="matrix(1 0 0 1 139.083 104.5659)" fill="#FFFFFF" font-family="'Handlee-Regular'" font-size="60">r</text>
		</g>
		<g clip-path="url(#SVGID_4_)">
			
				<text transform="matrix(1 0 0 1 139.083 104.5659)" fill="none" stroke="#FFFFFF" stroke-width="0.0066" stroke-linecap="square" stroke-miterlimit="10" font-family="'Handlee-Regular'" font-size="60">r</text>
		</g>
		<g clip-path="url(#SVGID_4_)">
			<text transform="matrix(1 0 0 1 161.9434 104.5659)" fill="#FFFFFF" font-family="'Handlee-Regular'" font-size="60">e</text>
		</g>
		<g clip-path="url(#SVGID_4_)">
			
				<text transform="matrix(1 0 0 1 161.9434 104.5659)" fill="none" stroke="#FFFFFF" stroke-width="0.0066" stroke-linecap="square" stroke-miterlimit="10" font-family="'Handlee-Regular'" font-size="60">e</text>
		</g>
		<g clip-path="url(#SVGID_4_)">
			<text transform="matrix(1 0 0 1 190.3232 104.5659)" fill="#FFFFFF" font-family="'Handlee-Regular'" font-size="60">a</text>
		</g>
		<g clip-path="url(#SVGID_4_)">
			
				<text transform="matrix(1 0 0 1 190.3232 104.5659)" fill="none" stroke="#FFFFFF" stroke-width="0.0066" stroke-linecap="square" stroke-miterlimit="10" font-family="'Handlee-Regular'" font-size="60">a</text>
		</g>
		<g clip-path="url(#SVGID_4_)">
			<text transform="matrix(1 0 0 1 217.2637 104.5659)" fill="#FFFFFF" font-family="'Handlee-Regular'" font-size="60">t</text>
		</g>
		<g clip-path="url(#SVGID_4_)">
			
				<text transform="matrix(1 0 0 1 217.2637 104.5659)" fill="none" stroke="#FFFFFF" stroke-width="0.0066" stroke-linecap="square" stroke-miterlimit="10" font-family="'Handlee-Regular'" font-size="60">t</text>
		</g>
		<g clip-path="url(#SVGID_4_)">
			<text transform="matrix(1 0 0 1 238.7441 104.5659)" fill="#FFFFFF" font-family="'Handlee-Regular'" font-size="60">i</text>
		</g>
		<g clip-path="url(#SVGID_4_)">
			
				<text transform="matrix(1 0 0 1 238.7441 104.5659)" fill="none" stroke="#FFFFFF" stroke-width="0.0066" stroke-linecap="square" stroke-miterlimit="10" font-family="'Handlee-Regular'" font-size="60">i</text>
		</g>
		<g clip-path="url(#SVGID_4_)">
			<text transform="matrix(1 0 0 1 250.7441 104.5659)" fill="#FFFFFF" font-family="'Handlee-Regular'" font-size="60">v</text>
		</g>
		<g clip-path="url(#SVGID_4_)">
			
				<text transform="matrix(1 0 0 1 250.7441 104.5659)" fill="none" stroke="#FFFFFF" stroke-width="0.0066" stroke-linecap="square" stroke-miterlimit="10" font-family="'Handlee-Regular'" font-size="60">v</text>
		</g>
		<g clip-path="url(#SVGID_4_)">
			<text transform="matrix(1 0 0 1 277.1436 104.5659)" fill="#FFFFFF" font-family="'Handlee-Regular'" font-size="60">o</text>
		</g>
		<g clip-path="url(#SVGID_4_)">
			
				<text transform="matrix(1 0 0 1 277.1436 104.5659)" fill="none" stroke="#FFFFFF" stroke-width="0.0066" stroke-linecap="square" stroke-miterlimit="10" font-family="'Handlee-Regular'" font-size="60">o</text>
		</g>
		
			<rect x="403.333" clip-path="url(#SVGID_4_)" fill-rule="evenodd" clip-rule="evenodd" fill="#FFFFFF" width="438.567" height="841.89"/>
		
			<rect x="621.169" y="786.874" opacity="0" clip-path="url(#SVGID_4_)" fill-rule="evenodd" clip-rule="evenodd" width="198.65" height="31.685"/>
		<g clip-path="url(#SVGID_4_)">
			<defs>
				<rect id="SVGID_5_" x="621.169" y="786.874" width="198.65" height="31.685"/>
			</defs>
			<clipPath id="SVGID_6_">
				<use xlink:href="#SVGID_5_"  overflow="visible"/>
			</clipPath>
			<g clip-path="url(#SVGID_6_)">
				<defs>
					<rect id="SVGID_7_" x="621.169" y="786.874" width="198.65" height="31.685"/>
				</defs>
				<clipPath id="SVGID_8_">
					<use xlink:href="#SVGID_7_"  overflow="visible"/>
				</clipPath>
				<g transform="matrix(1 0 0 1 1.680857e-005 -3.932452e-005)" clip-path="url(#SVGID_8_)">
					
						<image overflow="visible" width="815" height="130" xlink:href="64AB9193.png"  transform="matrix(0.2437 0 0 0.2437 621.1689 786.874)">
					</image>
				</g>
			</g>
		</g>
		
			<rect x="10.421" y="778.115" opacity="0" clip-path="url(#SVGID_4_)" fill-rule="evenodd" clip-rule="evenodd" width="247.923" height="40.443"/>
		<g clip-path="url(#SVGID_4_)">
			<defs>
				<rect id="SVGID_9_" x="10.421" y="778.115" width="247.923" height="40.443"/>
			</defs>
			<clipPath id="SVGID_10_">
				<use xlink:href="#SVGID_9_"  overflow="visible"/>
			</clipPath>
			<g clip-path="url(#SVGID_10_)">
				<defs>
					<rect id="SVGID_11_" x="10.421" y="778.115" width="247.923" height="40.443"/>
				</defs>
				<clipPath id="SVGID_12_">
					<use xlink:href="#SVGID_11_"  overflow="visible"/>
				</clipPath>
				<g transform="matrix(1 0 0 1 3.122220e-007 2.572051e-005)" clip-path="url(#SVGID_12_)">
					
						<image overflow="visible" width="472" height="77" xlink:href="64AB9191.png"  transform="matrix(0.5253 0 0 0.5252 10.4214 778.1152)">
					</image>
				</g>
			</g>
		</g>
		
			<rect x="423.283" y="185.246" opacity="0" clip-path="url(#SVGID_4_)" fill-rule="evenodd" clip-rule="evenodd" width="398.646" height="87.26"/>
		<g clip-path="url(#SVGID_4_)">
			<text transform="matrix(1 0 0 1 489.0156 220.7949)" font-family="'Handlee-Regular'" font-size="30">“</text>
		</g>
		<g clip-path="url(#SVGID_4_)">
			
				<text transform="matrix(1 0 0 1 489.0156 220.7949)" fill="none" stroke="#000000" stroke-width="0.0033" stroke-linecap="square" stroke-miterlimit="10" font-family="'Handlee-Regular'" font-size="30">“</text>
		</g>
		<g clip-path="url(#SVGID_4_)">
			<text transform="matrix(1 0 0 1 498.916 220.7949)" font-family="'Handlee-Regular'" font-size="30">L</text>
		</g>
		<g clip-path="url(#SVGID_4_)">
			
				<text transform="matrix(1 0 0 1 498.916 220.7949)" fill="none" stroke="#000000" stroke-width="0.0033" stroke-linecap="square" stroke-miterlimit="10" font-family="'Handlee-Regular'" font-size="30">L</text>
		</g>
		<g clip-path="url(#SVGID_4_)">
			<text transform="matrix(1 0 0 1 514.9658 220.7949)" font-family="'Handlee-Regular'" font-size="30">a</text>
		</g>
		<g clip-path="url(#SVGID_4_)">
			
				<text transform="matrix(1 0 0 1 514.9658 220.7949)" fill="none" stroke="#000000" stroke-width="0.0033" stroke-linecap="square" stroke-miterlimit="10" font-family="'Handlee-Regular'" font-size="30">a</text>
		</g>
		<g clip-path="url(#SVGID_4_)">
			<text transform="matrix(1 0 0 1 528.4365 220.7949)" font-family="'Handlee-Regular'" font-size="30"> </text>
		</g>
		<g clip-path="url(#SVGID_4_)">
			
				<text transform="matrix(1 0 0 1 528.4365 220.7949)" fill="none" stroke="#000000" stroke-width="0.0033" stroke-linecap="square" stroke-miterlimit="10" font-family="'Handlee-Regular'" font-size="30"> </text>
		</g>
		<g clip-path="url(#SVGID_4_)">
			<text transform="matrix(1 0 0 1 535.2158 220.7949)" font-family="'Handlee-Regular'" font-size="30">c</text>
		</g>
		<g clip-path="url(#SVGID_4_)">
			
				<text transform="matrix(1 0 0 1 535.2158 220.7949)" fill="none" stroke="#000000" stroke-width="0.0033" stroke-linecap="square" stroke-miterlimit="10" font-family="'Handlee-Regular'" font-size="30">c</text>
		</g>
		<g clip-path="url(#SVGID_4_)">
			<text transform="matrix(1 0 0 1 548.5967 220.7949)" font-family="'Handlee-Regular'" font-size="30">r</text>
		</g>
		<g clip-path="url(#SVGID_4_)">
			
				<text transform="matrix(1 0 0 1 548.5967 220.7949)" fill="none" stroke="#000000" stroke-width="0.0033" stroke-linecap="square" stroke-miterlimit="10" font-family="'Handlee-Regular'" font-size="30">r</text>
		</g>
		<g clip-path="url(#SVGID_4_)">
			<text transform="matrix(1 0 0 1 560.0557 220.7949)" font-family="'Handlee-Regular'" font-size="30">e</text>
		</g>
		<g clip-path="url(#SVGID_4_)">
			
				<text transform="matrix(1 0 0 1 560.0557 220.7949)" fill="none" stroke="#000000" stroke-width="0.0033" stroke-linecap="square" stroke-miterlimit="10" font-family="'Handlee-Regular'" font-size="30">e</text>
		</g>
		<g clip-path="url(#SVGID_4_)">
			<text transform="matrix(1 0 0 1 574.2461 220.7949)" font-family="'Handlee-Regular'" font-size="30">a</text>
		</g>
		<g clip-path="url(#SVGID_4_)">
			
				<text transform="matrix(1 0 0 1 574.2461 220.7949)" fill="none" stroke="#000000" stroke-width="0.0033" stroke-linecap="square" stroke-miterlimit="10" font-family="'Handlee-Regular'" font-size="30">a</text>
		</g>
		<g clip-path="url(#SVGID_4_)">
			<text transform="matrix(1 0 0 1 587.7158 220.7949)" font-family="'Handlee-Regular'" font-size="30">t</text>
		</g>
		<g clip-path="url(#SVGID_4_)">
			
				<text transform="matrix(1 0 0 1 587.7158 220.7949)" fill="none" stroke="#000000" stroke-width="0.0033" stroke-linecap="square" stroke-miterlimit="10" font-family="'Handlee-Regular'" font-size="30">t</text>
		</g>
		<g clip-path="url(#SVGID_4_)">
			<text transform="matrix(1 0 0 1 598.4561 220.7949)" font-family="'Handlee-Regular'" font-size="30">i</text>
		</g>
		<g clip-path="url(#SVGID_4_)">
			
				<text transform="matrix(1 0 0 1 598.4561 220.7949)" fill="none" stroke="#000000" stroke-width="0.0033" stroke-linecap="square" stroke-miterlimit="10" font-family="'Handlee-Regular'" font-size="30">i</text>
		</g>
		<g clip-path="url(#SVGID_4_)">
			<text transform="matrix(1 0 0 1 604.4561 220.7949)" font-family="'Handlee-Regular'" font-size="30">v</text>
		</g>
		<g clip-path="url(#SVGID_4_)">
			
				<text transform="matrix(1 0 0 1 604.4561 220.7949)" fill="none" stroke="#000000" stroke-width="0.0033" stroke-linecap="square" stroke-miterlimit="10" font-family="'Handlee-Regular'" font-size="30">v</text>
		</g>
		<g clip-path="url(#SVGID_4_)">
			<text transform="matrix(1 0 0 1 617.9258 220.7949)" font-family="'Handlee-Regular'" font-size="30">i</text>
		</g>
		<g clip-path="url(#SVGID_4_)">
			
				<text transform="matrix(1 0 0 1 617.9258 220.7949)" fill="none" stroke="#000000" stroke-width="0.0033" stroke-linecap="square" stroke-miterlimit="10" font-family="'Handlee-Regular'" font-size="30">i</text>
		</g>
		<g clip-path="url(#SVGID_4_)">
			<text transform="matrix(1 0 0 1 623.9258 220.7949)" font-family="'Handlee-Regular'" font-size="30">d</text>
		</g>
		<g clip-path="url(#SVGID_4_)">
			
				<text transform="matrix(1 0 0 1 623.9258 220.7949)" fill="none" stroke="#000000" stroke-width="0.0033" stroke-linecap="square" stroke-miterlimit="10" font-family="'Handlee-Regular'" font-size="30">d</text>
		</g>
		<g clip-path="url(#SVGID_4_)">
			<text transform="matrix(1 0 0 1 638.1162 220.7949)" font-family="'Handlee-Regular'" font-size="30">a</text>
		</g>
		<g clip-path="url(#SVGID_4_)">
			
				<text transform="matrix(1 0 0 1 638.1162 220.7949)" fill="none" stroke="#000000" stroke-width="0.0033" stroke-linecap="square" stroke-miterlimit="10" font-family="'Handlee-Regular'" font-size="30">a</text>
		</g>
		<g clip-path="url(#SVGID_4_)">
			<text transform="matrix(1 0 0 1 651.5859 220.7949)" font-family="'Handlee-Regular'" font-size="30">d</text>
		</g>
		<g clip-path="url(#SVGID_4_)">
			
				<text transform="matrix(1 0 0 1 651.5859 220.7949)" fill="none" stroke="#000000" stroke-width="0.0033" stroke-linecap="square" stroke-miterlimit="10" font-family="'Handlee-Regular'" font-size="30">d</text>
		</g>
		<g clip-path="url(#SVGID_4_)">
			<text transform="matrix(1 0 0 1 665.7764 220.7949)" font-family="'Handlee-Regular'" font-size="30"> </text>
		</g>
		<g clip-path="url(#SVGID_4_)">
			
				<text transform="matrix(1 0 0 1 665.7764 220.7949)" fill="none" stroke="#000000" stroke-width="0.0033" stroke-linecap="square" stroke-miterlimit="10" font-family="'Handlee-Regular'" font-size="30"> </text>
		</g>
		<g clip-path="url(#SVGID_4_)">
			<text transform="matrix(1 0 0 1 672.5566 220.7949)" font-family="'Handlee-Regular'" font-size="30">e</text>
		</g>
		<g clip-path="url(#SVGID_4_)">
			
				<text transform="matrix(1 0 0 1 672.5566 220.7949)" fill="none" stroke="#000000" stroke-width="0.0033" stroke-linecap="square" stroke-miterlimit="10" font-family="'Handlee-Regular'" font-size="30">e</text>
		</g>
		<g clip-path="url(#SVGID_4_)">
			<text transform="matrix(1 0 0 1 686.7461 220.7949)" font-family="'Handlee-Regular'" font-size="30">s</text>
		</g>
		<g clip-path="url(#SVGID_4_)">
			
				<text transform="matrix(1 0 0 1 686.7461 220.7949)" fill="none" stroke="#000000" stroke-width="0.0033" stroke-linecap="square" stroke-miterlimit="10" font-family="'Handlee-Regular'" font-size="30">s</text>
		</g>
		<g clip-path="url(#SVGID_4_)">
			<text transform="matrix(1 0 0 1 699.8271 220.7949)" font-family="'Handlee-Regular'" font-size="30"> </text>
		</g>
		<g clip-path="url(#SVGID_4_)">
			
				<text transform="matrix(1 0 0 1 699.8271 220.7949)" fill="none" stroke="#000000" stroke-width="0.0033" stroke-linecap="square" stroke-miterlimit="10" font-family="'Handlee-Regular'" font-size="30"> </text>
		</g>
		<g clip-path="url(#SVGID_4_)">
			<text transform="matrix(1 0 0 1 706.6064 220.7949)" font-family="'Handlee-Regular'" font-size="30">s</text>
		</g>
		<g clip-path="url(#SVGID_4_)">
			
				<text transform="matrix(1 0 0 1 706.6064 220.7949)" fill="none" stroke="#000000" stroke-width="0.0033" stroke-linecap="square" stroke-miterlimit="10" font-family="'Handlee-Regular'" font-size="30">s</text>
		</g>
		<g clip-path="url(#SVGID_4_)">
			<text transform="matrix(1 0 0 1 719.6865 220.7949)" font-family="'Handlee-Regular'" font-size="30">o</text>
		</g>
		<g clip-path="url(#SVGID_4_)">
			
				<text transform="matrix(1 0 0 1 719.6865 220.7949)" fill="none" stroke="#000000" stroke-width="0.0033" stroke-linecap="square" stroke-miterlimit="10" font-family="'Handlee-Regular'" font-size="30">o</text>
		</g>
		<g clip-path="url(#SVGID_4_)">
			<text transform="matrix(1 0 0 1 734.3867 220.7949)" font-family="'Handlee-Regular'" font-size="30">l</text>
		</g>
		<g clip-path="url(#SVGID_4_)">
			
				<text transform="matrix(1 0 0 1 734.3867 220.7949)" fill="none" stroke="#000000" stroke-width="0.0033" stroke-linecap="square" stroke-miterlimit="10" font-family="'Handlee-Regular'" font-size="30">l</text>
		</g>
		<g clip-path="url(#SVGID_4_)">
			<text transform="matrix(1 0 0 1 741.5273 220.7949)" font-family="'Handlee-Regular'" font-size="30">o</text>
		</g>
		<g clip-path="url(#SVGID_4_)">
			
				<text transform="matrix(1 0 0 1 741.5273 220.7949)" fill="none" stroke="#000000" stroke-width="0.0033" stroke-linecap="square" stroke-miterlimit="10" font-family="'Handlee-Regular'" font-size="30">o</text>
		</g>
		<g clip-path="url(#SVGID_4_)">
			<text transform="matrix(1 0 0 1 525.6758 256.7949)" font-family="'Handlee-Regular'" font-size="30">c</text>
		</g>
		<g clip-path="url(#SVGID_4_)">
			
				<text transform="matrix(1 0 0 1 525.6758 256.7949)" fill="none" stroke="#000000" stroke-width="0.0033" stroke-linecap="square" stroke-miterlimit="10" font-family="'Handlee-Regular'" font-size="30">c</text>
		</g>
		<g clip-path="url(#SVGID_4_)">
			<text transform="matrix(1 0 0 1 539.0557 256.7949)" font-family="'Handlee-Regular'" font-size="30">o</text>
		</g>
		<g clip-path="url(#SVGID_4_)">
			
				<text transform="matrix(1 0 0 1 539.0557 256.7949)" fill="none" stroke="#000000" stroke-width="0.0033" stroke-linecap="square" stroke-miterlimit="10" font-family="'Handlee-Regular'" font-size="30">o</text>
		</g>
		<g clip-path="url(#SVGID_4_)">
			<text transform="matrix(1 0 0 1 553.7559 256.7949)" font-family="'Handlee-Regular'" font-size="30">n</text>
		</g>
		<g clip-path="url(#SVGID_4_)">
			
				<text transform="matrix(1 0 0 1 553.7559 256.7949)" fill="none" stroke="#000000" stroke-width="0.0033" stroke-linecap="square" stroke-miterlimit="10" font-family="'Handlee-Regular'" font-size="30">n</text>
		</g>
		<g clip-path="url(#SVGID_4_)">
			<text transform="matrix(1 0 0 1 568.0361 256.7949)" font-family="'Handlee-Regular'" font-size="30">e</text>
		</g>
		<g clip-path="url(#SVGID_4_)">
			
				<text transform="matrix(1 0 0 1 568.0361 256.7949)" fill="none" stroke="#000000" stroke-width="0.0033" stroke-linecap="square" stroke-miterlimit="10" font-family="'Handlee-Regular'" font-size="30">e</text>
		</g>
		<g clip-path="url(#SVGID_4_)">
			<text transform="matrix(1 0 0 1 582.2256 256.7949)" font-family="'Handlee-Regular'" font-size="30">c</text>
		</g>
		<g clip-path="url(#SVGID_4_)">
			
				<text transform="matrix(1 0 0 1 582.2256 256.7949)" fill="none" stroke="#000000" stroke-width="0.0033" stroke-linecap="square" stroke-miterlimit="10" font-family="'Handlee-Regular'" font-size="30">c</text>
		</g>
		<g clip-path="url(#SVGID_4_)">
			<text transform="matrix(1 0 0 1 595.6064 256.7949)" font-family="'Handlee-Regular'" font-size="30">t</text>
		</g>
		<g clip-path="url(#SVGID_4_)">
			
				<text transform="matrix(1 0 0 1 595.6064 256.7949)" fill="none" stroke="#000000" stroke-width="0.0033" stroke-linecap="square" stroke-miterlimit="10" font-family="'Handlee-Regular'" font-size="30">t</text>
		</g>
		<g clip-path="url(#SVGID_4_)">
			<text transform="matrix(1 0 0 1 606.3457 256.7949)" font-family="'Handlee-Regular'" font-size="30">a</text>
		</g>
		<g clip-path="url(#SVGID_4_)">
			
				<text transform="matrix(1 0 0 1 606.3457 256.7949)" fill="none" stroke="#000000" stroke-width="0.0033" stroke-linecap="square" stroke-miterlimit="10" font-family="'Handlee-Regular'" font-size="30">a</text>
		</g>
		<g clip-path="url(#SVGID_4_)">
			<text transform="matrix(1 0 0 1 619.8164 256.7949)" font-family="'Handlee-Regular'" font-size="30">r</text>
		</g>
		<g clip-path="url(#SVGID_4_)">
			
				<text transform="matrix(1 0 0 1 619.8164 256.7949)" fill="none" stroke="#000000" stroke-width="0.0033" stroke-linecap="square" stroke-miterlimit="10" font-family="'Handlee-Regular'" font-size="30">r</text>
		</g>
		<g clip-path="url(#SVGID_4_)">
			<text transform="matrix(1 0 0 1 631.7559 256.7949)" font-family="'Handlee-Regular'" font-size="30"> </text>
		</g>
		<g clip-path="url(#SVGID_4_)">
			
				<text transform="matrix(1 0 0 1 631.7559 256.7949)" fill="none" stroke="#000000" stroke-width="0.0033" stroke-linecap="square" stroke-miterlimit="10" font-family="'Handlee-Regular'" font-size="30"> </text>
		</g>
		<g clip-path="url(#SVGID_4_)">
			<text transform="matrix(1 0 0 1 638.5361 256.7949)" font-family="'Handlee-Regular'" font-size="30">c</text>
		</g>
		<g clip-path="url(#SVGID_4_)">
			
				<text transform="matrix(1 0 0 1 638.5361 256.7949)" fill="none" stroke="#000000" stroke-width="0.0033" stroke-linecap="square" stroke-miterlimit="10" font-family="'Handlee-Regular'" font-size="30">c</text>
		</g>
		<g clip-path="url(#SVGID_4_)">
			<text transform="matrix(1 0 0 1 651.916 256.7949)" font-family="'Handlee-Regular'" font-size="30">o</text>
		</g>
		<g clip-path="url(#SVGID_4_)">
			
				<text transform="matrix(1 0 0 1 651.916 256.7949)" fill="none" stroke="#000000" stroke-width="0.0033" stroke-linecap="square" stroke-miterlimit="10" font-family="'Handlee-Regular'" font-size="30">o</text>
		</g>
		<g clip-path="url(#SVGID_4_)">
			<text transform="matrix(1 0 0 1 666.6162 256.7949)" font-family="'Handlee-Regular'" font-size="30">s</text>
		</g>
		<g clip-path="url(#SVGID_4_)">
			
				<text transform="matrix(1 0 0 1 666.6162 256.7949)" fill="none" stroke="#000000" stroke-width="0.0033" stroke-linecap="square" stroke-miterlimit="10" font-family="'Handlee-Regular'" font-size="30">s</text>
		</g>
		<g clip-path="url(#SVGID_4_)">
			<text transform="matrix(1 0 0 1 679.6963 256.7949)" font-family="'Handlee-Regular'" font-size="30">a</text>
		</g>
		<g clip-path="url(#SVGID_4_)">
			
				<text transform="matrix(1 0 0 1 679.6963 256.7949)" fill="none" stroke="#000000" stroke-width="0.0033" stroke-linecap="square" stroke-miterlimit="10" font-family="'Handlee-Regular'" font-size="30">a</text>
		</g>
		<g clip-path="url(#SVGID_4_)">
			<text transform="matrix(1 0 0 1 693.167 256.7949)" font-family="'Handlee-Regular'" font-size="30">s</text>
		</g>
		<g clip-path="url(#SVGID_4_)">
			
				<text transform="matrix(1 0 0 1 693.167 256.7949)" fill="none" stroke="#000000" stroke-width="0.0033" stroke-linecap="square" stroke-miterlimit="10" font-family="'Handlee-Regular'" font-size="30">s</text>
		</g>
		<g clip-path="url(#SVGID_4_)">
			<text transform="matrix(1 0 0 1 706.2461 256.7949)" font-family="'Handlee-Regular'" font-size="30">.</text>
		</g>
		<g clip-path="url(#SVGID_4_)">
			
				<text transform="matrix(1 0 0 1 706.2461 256.7949)" fill="none" stroke="#000000" stroke-width="0.0033" stroke-linecap="square" stroke-miterlimit="10" font-family="'Handlee-Regular'" font-size="30">.</text>
		</g>
		<g clip-path="url(#SVGID_4_)">
			<text transform="matrix(1 0 0 1 709.6357 256.7949)" font-family="'Handlee-Regular'" font-size="30">”</text>
		</g>
		<g clip-path="url(#SVGID_4_)">
			
				<text transform="matrix(1 0 0 1 709.6357 256.7949)" fill="none" stroke="#000000" stroke-width="0.0033" stroke-linecap="square" stroke-miterlimit="10" font-family="'Handlee-Regular'" font-size="30">”</text>
		</g>
		
			<rect x="419.012" y="292.254" opacity="0" clip-path="url(#SVGID_4_)" fill-rule="evenodd" clip-rule="evenodd" width="398.642" height="448.343"/>
		<g clip-path="url(#SVGID_4_)">
			<defs>
				<rect id="SVGID_13_" x="419.012" y="292.254" width="398.642" height="448.343"/>
			</defs>
			<clipPath id="SVGID_14_">
				<use xlink:href="#SVGID_13_"  overflow="visible"/>
			</clipPath>
			<g clip-path="url(#SVGID_14_)">
				<defs>
					<rect id="SVGID_15_" x="419.012" y="247.195" width="398.642" height="564.463"/>
				</defs>
				<clipPath id="SVGID_16_">
					<use xlink:href="#SVGID_15_"  overflow="visible"/>
				</clipPath>
				<g transform="matrix(1 0 0 1 1.249372e-005 1.556374e-005)" clip-path="url(#SVGID_16_)">
					
						<image overflow="visible" width="904" height="1280" xlink:href="64AB9197.jpg"  transform="matrix(0.441 0 0 0.441 419.0117 247.1953)">
					</image>
				</g>
			</g>
		</g>
		
			<rect x="423.295" y="70.801" opacity="0" clip-path="url(#SVGID_4_)" fill-rule="evenodd" clip-rule="evenodd" width="398.646" height="58.181"/>
		<g clip-path="url(#SVGID_4_)">
			<text transform="matrix(1 0 0 1 531.1406 112.1108)"><tspan x="0" y="0" font-family="'Corbel-Bold'" font-size="36">Mes:</tspan><tspan x="73.986" y="0" font-family="'Corbel-Bold'" font-size="36"> </tspan><tspan x="80.721" y="0" font-family="'Corbel-Bold'" font-size="36">JUNIO</tspan></text>
		</g>
		
			<rect x="13.02" y="166.834" opacity="0" clip-path="url(#SVGID_4_)" fill-rule="evenodd" clip-rule="evenodd" width="378.638" height="498.284"/>
		<g clip-path="url(#SVGID_4_)">
			<text transform="matrix(1 0 0 1 24.0171 196.624)" fill="#FFFFFF" font-family="'Montserrat-Regular'" font-size="24">1.</text>
		</g>
		<g clip-path="url(#SVGID_4_)">
			<text transform="matrix(1 0 0 1 53.769 196.624)"><tspan x="0" y="0" fill="#FFFFFF" font-family="'Corbel-Bold'" font-size="24">INN</tspan><tspan x="41.543" y="0" fill="#FFFFFF" font-family="'Corbel-Bold'" font-size="24">O</tspan><tspan x="58.952" y="0" fill="#FFFFFF" font-family="'Corbel-Bold'" font-size="24" letter-spacing="-1">V</tspan><tspan x="72.985" y="0" fill="#FFFFFF" font-family="'Corbel-Bold'" font-size="24">A</tspan><tspan x="88.542" y="0" fill="#FFFFFF" font-family="'Corbel-Bold'" font-size="24">CIÓN DISRUPTI</tspan><tspan x="252.827" y="0" fill="#FFFFFF" font-family="'Corbel-Bold'" font-size="24" letter-spacing="-1">V</tspan><tspan x="266.86" y="0" fill="#FFFFFF" font-family="'Corbel-Bold'" font-size="24">A:</tspan></text>
		</g>
		<g clip-path="url(#SVGID_4_)">
			<text transform="matrix(1 0 0 1 55.769 225.4238)" fill="#FFFFFF" font-family="'Corbel'" font-size="24">Decenas de casos y más casos de </text>
		</g>
		<g clip-path="url(#SVGID_4_)">
			<text transform="matrix(1 0 0 1 55.769 254.2246)" fill="#FFFFFF" font-family="'Corbel'" font-size="24">cómo generar disrupción.</text>
		</g>
		<g clip-path="url(#SVGID_4_)">
			<text transform="matrix(1 0 0 1 55.769 283.0244)" fill="#FFFFFF" font-family="'Corbel-Bold'" font-size="24">[04 Horas]</text>
		</g>
		<g clip-path="url(#SVGID_4_)">
			<text transform="matrix(1 0 0 1 18.8091 340.624)"><tspan x="0" y="0" fill="#FFFFFF" font-family="'Montserrat-Regular'" font-size="24">2</tspan><tspan x="12.216" y="0" fill="#FFFFFF" font-family="'Montserrat-Regular'" font-size="24">.</tspan></text>
		</g>
		<g clip-path="url(#SVGID_4_)">
			<text transform="matrix(1 0 0 1 53.769 340.624)"><tspan x="0" y="0" fill="#FFFFFF" font-family="'Corbel-Bold'" font-size="24">TEAM BUILDING</tspan><tspan x="175.898" y="0" fill="#FFFFFF" font-family="'Corbel-Bold'" font-size="24"> </tspan><tspan x="179.908" y="0" fill="#FFFFFF" font-family="'Corbel-Bold'" font-size="24">CRE</tspan><tspan x="222.634" y="0" fill="#FFFFFF" font-family="'Corbel-Bold'" font-size="24" letter-spacing="-1">A</tspan><tspan x="237.136" y="0" fill="#FFFFFF" font-family="'Corbel-Bold'" font-size="24">TI</tspan><tspan x="257.444" y="0" fill="#FFFFFF" font-family="'Corbel-Bold'" font-size="24">V</tspan><tspan x="272.533" y="0" fill="#FFFFFF" font-family="'Corbel-Bold'" font-size="24">O: </tspan></text>
		</g>
		<g clip-path="url(#SVGID_4_)">
			<text transform="matrix(1 0 0 1 53.769 369.4238)"><tspan x="0" y="0" fill="#FFFFFF" font-family="'Corbel'" font-size="24">¿</tspan><tspan x="9.654" y="0" fill="#FFFFFF" font-family="'Corbel'" font-size="24">Quieres crear el equipo soñado </tspan></text>
		</g>
		<g clip-path="url(#SVGID_4_)">
			<text transform="matrix(1 0 0 1 53.769 398.2246)" fill="#FFFFFF" font-family="'Corbel'" font-size="24">para innovar? Los perﬁles </text>
		</g>
		<g clip-path="url(#SVGID_4_)">
			<text transform="matrix(1 0 0 1 53.769 427.0244)" fill="#FFFFFF" font-family="'Corbel'" font-size="24">Foursight.</text>
		</g>
		<g clip-path="url(#SVGID_4_)">
			<text transform="matrix(1 0 0 1 55.769 455.8232)" fill="#FFFFFF" font-family="'Corbel-Bold'" font-size="24">[04 Horas]</text>
		</g>
		
			<rect x="621.169" y="786.874" opacity="0" clip-path="url(#SVGID_4_)" fill-rule="evenodd" clip-rule="evenodd" width="198.65" height="31.685"/>
		<g clip-path="url(#SVGID_4_)">
			<defs>
				<rect id="SVGID_17_" x="621.169" y="786.874" width="198.65" height="31.685"/>
			</defs>
			<clipPath id="SVGID_18_">
				<use xlink:href="#SVGID_17_"  overflow="visible"/>
			</clipPath>
			<g clip-path="url(#SVGID_18_)">
				<defs>
					<rect id="SVGID_19_" x="621.169" y="786.874" width="198.65" height="31.685"/>
				</defs>
				<clipPath id="SVGID_20_">
					<use xlink:href="#SVGID_19_"  overflow="visible"/>
				</clipPath>
				<g transform="matrix(1 0 0 1 1.680857e-005 -3.932452e-005)" clip-path="url(#SVGID_20_)">
					
						<image overflow="visible" width="815" height="130" xlink:href="64AB9190.png"  transform="matrix(0.2437 0 0 0.2437 621.1689 786.874)">
					</image>
				</g>
			</g>
		</g>
	</g>
</g>
</svg>
