<?xml version="1.0" encoding="utf-8"?>
<!-- Generator: Adobe Illustrator 16.0.3, SVG Export Plug-In . SVG Version: 6.00 Build 0)  -->
<!DOCTYPE svg PUBLIC "-//W3C//DTD SVG 1.1//EN" "http://www.w3.org/Graphics/SVG/1.1/DTD/svg11.dtd">
<svg version="1.1" id="Capa_1" xmlns="http://www.w3.org/2000/svg" xmlns:xlink="http://www.w3.org/1999/xlink" x="0px" y="0px"
	 width="640px" height="640px" viewBox="0 0 640 640" enable-background="new 0 0 640 640" xml:space="preserve">
<line fill="#FEFECA" x1="25" y1="263" x2="620.28" y2="263"/>
<g>
	<g>
		<path fill="#45A828" d="M319.108,637C146.198,637,5.524,496.326,5.524,323.416C5.524,150.5,146.198,9.833,319.108,9.833
			S632.691,150.5,632.691,323.416C632.691,496.326,492.018,637,319.108,637z M319.108,82.634
			c-132.769,0-240.779,108.01-240.779,240.782c0,132.766,108.01,240.775,240.779,240.775c132.765,0,240.775-108.01,240.775-240.775
			C559.883,190.645,451.873,82.634,319.108,82.634z"/>
	</g>
	<path fill-rule="evenodd" clip-rule="evenodd" fill="#45A828" d="M402.913,348.722c-3.789-2.072-22.413-12.125-25.901-13.543
		c-3.487-1.419-6.039-2.157-8.767,1.612c-2.707,3.757-10.44,12.177-12.775,14.664c-2.354,2.5-4.615,2.733-8.414,0.647
		c-3.775-2.072-16.065-6.619-30.315-20.318c-11.092-10.654-18.365-23.583-20.47-27.533c-2.122-3.951-0.013-5.959,1.988-7.805
		c1.804-1.677,4.032-4.372,6.049-6.548c2.001-2.176,2.711-3.77,4.094-6.296c1.383-2.52,0.822-4.799-0.075-6.769
		c-0.891-1.962-7.896-21.251-10.82-29.101c-2.931-7.837-6.188-6.678-8.439-6.762c-2.254-0.078-4.815-0.499-7.384-0.596
		c-2.584-0.104-6.801,0.713-10.473,4.437c-3.688,3.724-14.016,12.688-14.722,31.692c-0.716,18.99,12.433,37.864,14.266,40.5
		c1.83,2.648,25.092,43.816,63.74,60.748c38.671,16.931,38.875,11.774,45.964,11.386c7.102-0.375,23.188-8.484,26.746-17.371
		c3.557-8.886,3.841-16.62,2.938-18.265C409.238,351.856,406.696,350.794,402.913,348.722L402.913,348.722z M332.004,440.248
		c-25.556,0-49.371-7.669-69.246-20.823l-48.376,15.493l15.723-46.751c-15.068-20.753-23.968-46.246-23.968-73.799
		c0-69.427,56.47-125.893,125.868-125.893c69.423,0,125.89,56.466,125.89,125.893C457.894,383.775,401.427,440.248,332.004,440.248
		L332.004,440.248z M332.004,163.143c-83.502,0-151.206,67.704-151.206,151.225c0,28.57,7.931,55.288,21.701,78.081l-27.297,81.124
		l83.715-26.795c21.672,11.976,46.583,18.802,73.087,18.802c83.533,0,151.234-67.703,151.234-151.211
		C483.238,230.847,415.537,163.143,332.004,163.143L332.004,163.143z"/>
</g>
</svg>
