<?xml version="1.0" encoding="utf-8"?>
<!-- Generator: Adobe Illustrator 16.0.3, SVG Export Plug-In . SVG Version: 6.00 Build 0)  -->
<!DOCTYPE svg PUBLIC "-//W3C//DTD SVG 1.1//EN" "http://www.w3.org/Graphics/SVG/1.1/DTD/svg11.dtd">
<svg version="1.1" id="Capa_1" xmlns="http://www.w3.org/2000/svg" xmlns:xlink="http://www.w3.org/1999/xlink" x="0px" y="0px"
	 width="640px" height="640px" viewBox="0 0 640 640" enable-background="new 0 0 640 640" xml:space="preserve">
<g>
	<g>
		<g>
			<path fill="#F9B418" d="M328.512,619.662c-2.324-2.324-5.549-3.662-8.837-3.662s-6.514,1.338-8.837,3.662
				c-2.325,2.325-3.663,5.551-3.663,8.838s1.337,6.513,3.663,8.838c2.323,2.324,5.549,3.662,8.837,3.662s6.513-1.338,8.837-3.662
				c2.324-2.325,3.663-5.551,3.663-8.838S330.838,621.987,328.512,619.662z"/>
		</g>
	</g>
	<g>
		<g>
			<path fill="#F9B418" d="M573.2,409.839l-41.697-9.961v-16.54c23.145-14.629,38.56-40.428,38.56-69.772v-46.584
				c0-45.491-37.01-82.5-82.503-82.5c-24.54,0-46.599,10.782-61.725,27.844c-13.247-45.879-55.619-79.529-105.705-79.529h-0.001
				c-50.167,0-92.597,33.757-105.77,79.748c-15.13-17.188-37.27-28.063-61.915-28.063c-45.493,0-82.502,37.01-82.502,82.5v46.584
				c0,29.346,15.415,55.145,38.56,69.772v16.54l-41.697,9.961C27.47,419.233,0,454.037,0,494.474V578.5
				c0,6.903,5.598,12.5,12.5,12.5h99.954v37.5c0,6.903,5.598,12.5,12.5,12.5h137.13c6.902,0,12.5-5.597,12.5-12.5
				s-5.598-12.5-12.5-12.5H206.28v-55.015c0-6.904-5.597-12.5-12.5-12.5c-6.902,0-12.5,5.596-12.5,12.5V616h-43.827v-56.397
				c0-42.393,28.792-78.898,70.019-88.777l61.479-14.732l39.558,89.995c1.995,4.538,6.483,7.47,11.441,7.47h0.001
				c4.957,0,9.447-2.93,11.442-7.469l39.518-89.864l61.3,14.645c41.264,9.855,70.081,46.369,70.081,88.792v13.949
				c-0.639,1.502-0.993,3.153-0.993,4.889c0,1.734,0.354,3.387,0.993,4.889V616H458.72v-55.015c0-6.904-5.598-12.5-12.5-12.5
				s-12.5,5.596-12.5,12.5V616h-61.219c-6.902,0-12.5,5.597-12.5,12.5s5.598,12.5,12.5,12.5h142.29c6.902,0,12.5-5.597,12.5-12.5
				V591H627.5c6.902,0,12.5-5.597,12.5-12.5v-84.026C640,454.037,612.53,419.233,573.2,409.839z M487.559,209.481
				c31.706,0,57.503,25.795,57.503,57.5v3.095v1.256h-35.754c-27.008,0-53.546-7.091-76.936-20.532
				C439.38,226.947,461.468,209.481,487.559,209.481z M430.057,311.525c0.043-1.276,0.074-33.61,0.074-33.61
				c24.574,12.085,51.665,18.419,79.178,18.419h35.754v17.232c-0.001,31.705-25.798,57.499-57.504,57.499
				s-57.502-25.795-57.502-57.5V311.525L430.057,311.525z M235.125,242.798c0-46.87,38.132-85,85.004-85
				c46.87,0,85.002,38.131,85.002,85v1.63l-46.394-27.257c-5.264-3.094-11.991-1.93-15.912,2.749
				c-18.025,21.51-44.46,33.848-72.526,33.848h-35.174V242.798z M94.939,270.077v-3.096c0-31.706,25.796-57.5,57.502-57.5
				c26.091,0,48.179,17.466,55.185,41.319c-23.389,13.44-49.926,20.533-76.935,20.533H94.939V270.077z M94.939,313.565v-17.233
				h35.753c27.54,0,54.659-6.345,79.251-18.453v35.687c0,31.706-25.796,57.5-57.502,57.5
				C120.735,371.065,94.939,345.27,94.939,313.565z M112.454,559.603V566H75v-55.536c0-6.904-5.598-12.5-12.5-12.5
				S50,503.56,50,510.464V566H25v-71.526c0-28.818,19.578-53.622,47.609-60.318l39.623-9.467l25.86,61.944
				C121.917,506.725,112.454,532.192,112.454,559.603z M152.444,456.117l-18.984-45.474c0.021-0.299,0.039-0.598,0.039-0.899
				v-15.897c6.086,1.435,12.424,2.219,18.943,2.219c6.49,0,12.797-0.778,18.86-2.2v15.087c-0.014,0.235-0.02,0.471-0.02,0.705
				c0,0.394,0.038,0.785,0.075,1.177L152.444,456.117z M201.646,446.514c-7.381,1.769-14.435,4.23-21.133,7.265l12.175-29.152
				l39.628,9.496c3.074,0.736,6.069,1.711,8.968,2.893L201.646,446.514z M263.691,420.46c-7.848-4.867-16.458-8.472-25.548-10.648
				l-41.842-10.026v-16.394c10.406-6.56,19.245-15.374,25.833-25.759c9.424,18.411,23.888,33.828,41.557,44.434V420.46z
				 M351.166,439.017l-31.214,70.982l-31.261-71.121v-25.78c9.965,2.978,20.516,4.584,31.437,4.584
				c10.774,0,21.19-1.565,31.038-4.467V439.017L351.166,439.017z M320.129,392.683c-46.873-0.001-85.004-38.133-85.004-85.001
				v-28.913h35.172c31.905,0,62.144-12.609,84.484-34.926l50.276,29.536v37.236C403.503,356.129,366.017,392.683,320.129,392.683z
				 M376.166,402.301h0.002c17.777-10.568,32.342-25.997,41.838-44.448c6.575,10.289,15.361,19.025,25.693,25.539v16.394
				l-41.843,10.026c-9.146,2.191-17.804,5.827-25.69,10.739V402.301L376.166,402.301z M438.018,446.555l-39.531-9.444
				c2.97-1.226,6.041-2.231,9.196-2.988l39.532-9.472l12.226,29.282C452.656,450.843,445.505,448.344,438.018,446.555z
				 M468.617,411.02c0.051-0.453,0.087-0.909,0.087-1.367c0-0.116-0.002-0.233-0.005-0.35v-15.438
				c6.063,1.424,12.369,2.2,18.859,2.2c6.519,0,12.856-0.784,18.942-2.221v15.897c0,0.228,0.017,0.451,0.029,0.677l-19.085,45.698
				L468.617,411.02z M615,566h-25v-55.536c0-6.904-5.598-12.5-12.5-12.5s-12.5,5.596-12.5,12.5V566h-37.709v-6.338
				c0-27.373-9.433-52.806-25.56-72.881l25.941-62.115l39.719,9.489c28.031,6.696,47.608,31.5,47.608,60.318V566z"/>
		</g>
	</g>
	<g>
		<g>
			<path fill="#F9B418" d="M286.911,293.725c-2.324-2.324-5.549-3.662-8.836-3.662c-3.288,0-6.513,1.338-8.838,3.662
				c-2.325,2.325-3.662,5.551-3.662,8.838s1.336,6.513,3.662,8.838c2.327,2.324,5.55,3.662,8.838,3.662
				c3.3,0,6.512-1.338,8.836-3.662c2.337-2.325,3.664-5.551,3.664-8.838S289.249,296.05,286.911,293.725z"/>
		</g>
	</g>
	<g>
		<g>
			<path fill="#F9B418" d="M370.499,293.725c-2.324-2.324-5.549-3.662-8.837-3.662c-3.287,0-6.512,1.338-8.837,3.662
				c-2.325,2.325-3.663,5.551-3.663,8.838s1.337,6.513,3.663,8.838c2.326,2.324,5.55,3.662,8.837,3.662
				c3.288,0,6.513-1.338,8.837-3.662c2.337-2.325,3.663-5.551,3.663-8.838S372.836,296.05,370.499,293.725z"/>
		</g>
	</g>
	<g>
		<g>
			<path fill="#F9B418" d="M344.059,335.803c-4.883-4.882-12.795-4.882-17.679,0c-3.696,3.696-9.71,3.696-13.406,0
				c-4.883-4.882-12.795-4.882-17.679,0c-4.881,4.881-4.881,12.796,0,17.679c6.723,6.721,15.552,10.082,24.381,10.082
				c8.83,0,17.659-3.359,24.382-10.082C348.94,348.599,348.94,340.684,344.059,335.803z"/>
		</g>
	</g>
	<g>
		<g>
			<path fill="#F9B418" d="M516.849,68.5h-8.573c-6.903,0-12.5,5.597-12.5,12.5s5.597,12.5,12.5,12.5h8.573
				c6.902,0,12.5-5.597,12.5-12.5S523.751,68.5,516.849,68.5z"/>
		</g>
	</g>
	<g>
		<g>
			<path fill="#F9B418" d="M577.5,68.5h-8.574c-6.902,0-12.5,5.597-12.5,12.5s5.597,12.5,12.5,12.5h8.574
				c6.902,0,12.5-5.597,12.5-12.5S584.402,68.5,577.5,68.5z"/>
		</g>
	</g>
	<g>
		<g>
			<path fill="#F9B418" d="M542.889,94.539c-6.902,0-12.5,5.596-12.5,12.5v8.573c0,6.904,5.597,12.5,12.5,12.5
				c6.902,0,12.5-5.596,12.5-12.5v-8.573C555.389,100.135,549.791,94.539,542.889,94.539z"/>
		</g>
	</g>
	<g>
		<g>
			<path fill="#F9B418" d="M542.889,33.888c-6.902,0-12.5,5.596-12.5,12.5v8.573c0,6.904,5.597,12.5,12.5,12.5
				c6.902,0,12.5-5.596,12.5-12.5v-8.573C555.389,39.483,549.791,33.888,542.889,33.888z"/>
		</g>
	</g>
	<g>
		<g>
			<path fill="#F9B418" d="M70.377,68.5h-8.572c-6.903,0-12.5,5.597-12.5,12.5s5.597,12.5,12.5,12.5h8.572
				c6.902,0,12.5-5.597,12.5-12.5S77.28,68.5,70.377,68.5z"/>
		</g>
	</g>
	<g>
		<g>
			<path fill="#F9B418" d="M131.029,68.5h-8.573c-6.902,0-12.5,5.597-12.5,12.5s5.597,12.5,12.5,12.5h8.573
				c6.902,0,12.5-5.597,12.5-12.5S137.931,68.5,131.029,68.5z"/>
		</g>
	</g>
	<g>
		<g>
			<path fill="#F9B418" d="M96.417,94.539c-6.902,0-12.5,5.596-12.5,12.5v8.573c0,6.904,5.596,12.5,12.5,12.5
				c6.902,0,12.5-5.596,12.5-12.5v-8.573C108.917,100.135,103.32,94.539,96.417,94.539z"/>
		</g>
	</g>
	<g>
		<g>
			<path fill="#F9B418" d="M96.417,33.888c-6.902,0-12.5,5.596-12.5,12.5v8.573c0,6.904,5.596,12.5,12.5,12.5
				c6.902,0,12.5-5.596,12.5-12.5v-8.573C108.917,39.483,103.32,33.888,96.417,33.888z"/>
		</g>
	</g>
	<g>
		<g>
			<path fill="#F9B418" d="M320,48.608c-6.902,0-12.5,5.597-12.5,12.5v32.888c0,6.904,5.598,12.5,12.5,12.5s12.5-5.596,12.5-12.5
				V61.108C332.5,54.205,326.902,48.608,320,48.608z"/>
		</g>
	</g>
	<g>
		<g>
			<path fill="#F9B418" d="M328.836,4.662C326.513,2.338,323.287,1,320,1s-6.513,1.338-8.838,3.662
				c-2.326,2.325-3.662,5.551-3.662,8.838s1.336,6.513,3.662,8.838C313.488,24.662,316.713,26,320,26s6.513-1.338,8.836-3.662
				c2.326-2.325,3.664-5.551,3.664-8.838S331.162,6.987,328.836,4.662z"/>
		</g>
	</g>
	<g>
		<g>
			<path fill="#F9B418" d="M276.194,51.148l-18.292-18.292c-4.883-4.882-12.795-4.882-17.679,0c-4.881,4.881-4.881,12.796,0,17.679
				l18.293,18.292c2.441,2.441,5.64,3.661,8.839,3.661s6.397-1.22,8.839-3.661C281.075,63.946,281.075,56.031,276.194,51.148z"/>
		</g>
	</g>
	<g>
		<g>
			<path fill="#F9B418" d="M399.775,32.169c-4.883-4.882-12.795-4.882-17.679,0l-18.904,18.903c-4.881,4.882-4.881,12.797,0,17.679
				c2.442,2.441,5.64,3.661,8.84,3.661s6.397-1.22,8.839-3.661l18.904-18.903C404.656,44.966,404.656,37.051,399.775,32.169z"/>
		</g>
	</g>
	<g>
	</g>
	<g>
	</g>
	<g>
	</g>
	<g>
	</g>
	<g>
	</g>
	<g>
	</g>
	<g>
	</g>
	<g>
	</g>
	<g>
	</g>
	<g>
	</g>
	<g>
	</g>
	<g>
	</g>
	<g>
	</g>
	<g>
	</g>
	<g>
	</g>
</g>
</svg>
