<?xml version="1.0" encoding="utf-8"?>
<!-- Generator: Adobe Illustrator 16.0.3, SVG Export Plug-In . SVG Version: 6.00 Build 0)  -->
<!DOCTYPE svg PUBLIC "-//W3C//DTD SVG 1.1//EN" "http://www.w3.org/Graphics/SVG/1.1/DTD/svg11.dtd">
<svg version="1.1" id="Capa_1" xmlns="http://www.w3.org/2000/svg" xmlns:xlink="http://www.w3.org/1999/xlink" x="0px" y="0px"
	 width="640px" height="640px" viewBox="0 0 640 640" enable-background="new 0 0 640 640" xml:space="preserve">
<g>
	<g>
		<g>
			<path fill="#F9B418" d="M465.159,60.767C426.308,22.189,374.87,1,320.155,1c-0.495,0-1.002,0.002-1.496,0.005
				c-53.418,0.377-103.994,21.306-142.414,58.932c-38.428,37.634-60.392,87.764-61.843,141.152
				c-1.514,55.637,18.865,108.33,57.383,148.376C202.116,381,218.82,422.944,218.82,467.572v85.853
				c0,17.64,12.247,32.463,28.679,36.439v11.447c0,21.884,17.804,39.688,39.688,39.688h65.625c21.884,0,39.688-17.804,39.688-39.688
				v-11.381c16.576-3.874,28.964-18.766,28.964-36.506v-85.85c0-44.045,17.162-86.474,48.328-119.469
				c36.221-38.347,56.168-88.523,56.168-141.29C525.959,151.566,504.366,99.698,465.159,60.767z M367.5,601.313
				c0,8.099-6.589,14.688-14.688,14.688h-65.625c-8.099,0-14.688-6.589-14.688-14.688v-10.391h95V601.313z M396.464,553.426
				c0,6.89-5.605,12.496-12.496,12.496H380H260h-3.683c-6.891,0-12.496-5.606-12.496-12.496v-71.094h152.643V553.426
				L396.464,553.426z M300.506,457.332V299.223h38.943V457.33h-38.943V457.332z M451.619,330.939
				c-33.153,35.1-52.423,79.642-54.886,126.391h-32.284V299.223h11.234c19.98,0,36.236-16.255,36.236-36.236v-1.938
				c0-19.981-16.256-36.236-36.236-36.236c-19.979,0-36.234,16.255-36.234,36.236v13.174h-38.943v-13.174
				c0-19.981-16.254-36.236-36.234-36.236h-2.463c-19.98,0-36.235,16.255-36.235,36.236v1.938c0,19.98,16.255,36.236,36.235,36.236
				h13.698V457.33h-31.942c-2.386-47.278-21.263-91.41-53.76-125.196c-33.837-35.18-51.741-81.479-50.41-130.364
				c2.618-96.238,83.114-175.086,179.441-175.766c48.617-0.341,94.268,18.304,128.71,52.503
				c34.446,34.202,53.415,79.771,53.415,128.31C500.96,253.174,483.437,297.254,451.619,330.939z M364.449,274.223v-13.174
				c0-6.196,5.039-11.236,11.234-11.236c6.196,0,11.236,5.042,11.236,11.236v1.938c0,6.196-5.04,11.236-11.236,11.236H364.449z
				 M275.505,261.049v13.174l0,0h-13.697c-6.195,0-11.235-5.04-11.235-11.236v-1.938c0-6.196,5.04-11.236,11.235-11.236h2.462
				C270.465,249.813,275.505,254.855,275.505,261.049z"/>
		</g>
	</g>
	<g>
		<g>
			<path fill="#F9B418" d="M454.134,152.705c-10.737-26.657-29-49.344-52.812-65.606c-24.407-16.668-53.018-25.368-82.663-25.159
				c-6.904,0.048-12.462,5.685-12.413,12.588c0.049,6.874,5.637,12.412,12.498,12.412c0.029,0,0.061,0,0.09,0
				c0.294-0.002,0.58-0.003,0.872-0.003c49.224,0,92.828,29.406,111.24,75.11c1.963,4.872,6.648,7.832,11.598,7.832
				c1.555,0,3.138-0.291,4.667-0.908C453.613,166.391,456.715,159.107,454.134,152.705z"/>
		</g>
	</g>
	<g>
		<g>
			<path fill="#F9B418" d="M460.925,197.976c-2.325-2.325-5.55-3.663-8.837-3.663c-3.288,0-6.513,1.338-8.838,3.663
				c-2.338,2.324-3.662,5.55-3.662,8.837c0,3.3,1.324,6.513,3.662,8.838c2.325,2.337,5.537,3.662,8.838,3.662
				c3.287,0,6.512-1.325,8.837-3.662c2.324-2.325,3.663-5.537,3.663-8.838C464.588,203.525,463.25,200.3,460.925,197.976z"/>
		</g>
	</g>
	<g>
		<g>
			<path fill="#F9B418" d="M580.537,63.261c-4.882-4.882-12.795-4.882-17.679,0L539.57,86.549c-4.882,4.882-4.882,12.797,0,17.679
				c2.441,2.441,5.64,3.661,8.84,3.661s6.397-1.22,8.839-3.661l23.288-23.288C585.419,76.058,585.419,68.143,580.537,63.261z"/>
		</g>
	</g>
	<g>
		<g>
			<path fill="#F9B418" d="M580.536,332.696l-23.287-23.288c-4.882-4.882-12.794-4.882-17.679,0c-4.882,4.881-4.882,12.796,0,17.677
				l23.288,23.289c2.441,2.441,5.641,3.661,8.839,3.661c3.199,0,6.397-1.221,8.839-3.661
				C585.418,345.493,585.418,337.578,580.536,332.696z"/>
		</g>
	</g>
	<g>
		<g>
			<path fill="#F9B418" d="M627.5,194.317h-32.937c-6.902,0-12.5,5.597-12.5,12.5c0,6.904,5.598,12.5,12.5,12.5H627.5
				c6.902,0,12.5-5.596,12.5-12.5C640,199.914,634.402,194.317,627.5,194.317z"/>
		</g>
	</g>
	<g>
		<g>
			<path fill="#F9B418" d="M100.429,86.55L77.141,63.262c-4.882-4.882-12.795-4.882-17.679,0c-4.881,4.881-4.881,12.796,0,17.679
				l23.289,23.289c2.441,2.44,5.64,3.661,8.838,3.661s6.397-1.221,8.839-3.661C105.31,99.347,105.31,91.433,100.429,86.55z"/>
		</g>
	</g>
	<g>
		<g>
			<path fill="#F9B418" d="M100.429,309.406c-4.881-4.882-12.795-4.882-17.677,0l-23.289,23.29c-4.881,4.882-4.881,12.797,0,17.678
				c2.441,2.441,5.64,3.661,8.839,3.661s6.397-1.221,8.839-3.661l23.289-23.289C105.31,322.203,105.31,314.289,100.429,309.406z"/>
		</g>
	</g>
	<g>
		<g>
			<path fill="#F9B418" d="M45.436,194.317H12.5c-6.902,0-12.5,5.597-12.5,12.5c0,6.904,5.598,12.5,12.5,12.5h32.936
				c6.903,0,12.5-5.596,12.5-12.5C57.936,199.914,52.339,194.317,45.436,194.317z"/>
		</g>
	</g>
	<g>
	</g>
	<g>
	</g>
	<g>
	</g>
	<g>
	</g>
	<g>
	</g>
	<g>
	</g>
	<g>
	</g>
	<g>
	</g>
	<g>
	</g>
	<g>
	</g>
	<g>
	</g>
	<g>
	</g>
	<g>
	</g>
	<g>
	</g>
	<g>
	</g>
</g>
</svg>
