<?xml version="1.0" encoding="utf-8"?>
<!-- Generator: Adobe Illustrator 16.0.3, SVG Export Plug-In . SVG Version: 6.00 Build 0)  -->
<!DOCTYPE svg PUBLIC "-//W3C//DTD SVG 1.1//EN" "http://www.w3.org/Graphics/SVG/1.1/DTD/svg11.dtd">
<svg version="1.1" id="Capa_1" xmlns="http://www.w3.org/2000/svg" xmlns:xlink="http://www.w3.org/1999/xlink" x="0px" y="0px"
	 width="640px" height="640px" viewBox="0 0 640 640" enable-background="new 0 0 640 640" xml:space="preserve">
<g>
	<g>
		<path fill="#FFFFFF" d="M319.173,638.403c-175.429,0-318.15-142.721-318.15-318.149c0-175.426,142.721-318.147,318.15-318.147
			c175.426,0,318.153,142.721,318.153,318.147C637.326,495.683,494.6,638.403,319.173,638.403z M319.173,75.971
			c-134.697,0-244.282,109.586-244.282,244.283s109.584,244.285,244.282,244.285c134.705,0,244.286-109.588,244.286-244.285
			S453.878,75.971,319.173,75.971z"/>
	</g>
	<path fill="#FFFFFF" d="M480.779,342.698v111.926h-64.891V350.205c0-26.226-9.37-44.128-32.862-44.128
		c-17.933,0-28.585,12.057-33.283,23.727c-1.709,4.173-2.148,9.966-2.148,15.818v109.002h-64.902c0,0,0.871-176.86,0-195.172h64.902
		v27.657c-0.133,0.22-0.317,0.43-0.435,0.64h0.435v-0.64c8.62-13.271,24.004-32.238,58.478-32.238
		C448.771,254.871,480.779,282.761,480.779,342.698L480.779,342.698z M214.803,165.373c-22.202,0-36.72,14.568-36.72,33.714
		c0,18.742,14.101,33.729,35.869,33.729h0.421c22.633,0,36.706-14.987,36.706-33.729
		C250.648,179.941,237.006,165.373,214.803,165.373L214.803,165.373z M181.94,454.624h64.871V259.452H181.94V454.624z
		 M181.94,454.624"/>
</g>
</svg>
