<?xml version="1.0" encoding="utf-8"?>
<!-- Generator: Adobe Illustrator 16.0.3, SVG Export Plug-In . SVG Version: 6.00 Build 0)  -->
<!DOCTYPE svg PUBLIC "-//W3C//DTD SVG 1.1//EN" "http://www.w3.org/Graphics/SVG/1.1/DTD/svg11.dtd">
<svg version="1.1" id="Capa_1" xmlns="http://www.w3.org/2000/svg" xmlns:xlink="http://www.w3.org/1999/xlink" x="0px" y="0px"
	 width="640px" height="640px" viewBox="0 0 640 640" enable-background="new 0 0 640 640" xml:space="preserve">
<g>
	<g>
		<path fill="#F9B418" d="M561.746,90.687h-75.279c-5.046,0-9.136,4.09-9.136,9.137c0,5.048,4.09,9.137,9.136,9.137h75.279
			c5.046,0,9.136-4.089,9.136-9.137C570.882,94.776,566.792,90.687,561.746,90.687z"/>
		<path fill="#F9B418" d="M561.746,131.703h-75.279c-5.046,0-9.136,4.09-9.136,9.136c0,5.048,4.09,9.137,9.136,9.137h75.279
			c5.046,0,9.136-4.089,9.136-9.137C570.882,135.793,566.792,131.703,561.746,131.703z"/>
		<path fill="#F9B418" d="M625.352,111.202c5.047,0,9.137-4.089,9.137-9.137V56.247c0-9.785-7.961-17.747-17.747-17.747H431.471
			c-9.785,0-17.746,7.961-17.746,17.747v73.424H114.15c-31.112,0-56.422,25.312-56.422,56.423v319.712H38.292
			c-15.191-0.001-27.552,12.357-27.552,27.551v45.587c0,15.192,12.361,27.553,27.552,27.553h52.34c5.047,0,9.137-4.091,9.137-9.137
			c0-5.048-4.089-9.138-9.137-9.138h-52.34c-5.115,0-9.278-4.162-9.278-9.278v-45.587c0-5.115,4.163-9.278,9.278-9.278H246.77
			l11.205,21.044c4.214,7.915,12.402,12.831,21.368,12.831h86.543c8.964,0,17.15-4.916,21.366-12.83l11.206-21.045h208.478
			c5.115,0,9.278,4.163,9.278,9.278v45.587c0,5.116-4.163,9.278-9.278,9.278H127.164c-5.047,0-9.137,4.09-9.137,9.138
			c0,5.046,4.09,9.137,9.137,9.137h479.772c15.191,0,27.552-12.361,27.552-27.553v-45.587c0-15.193-12.36-27.552-27.552-27.552
			h-19.434V202.166h29.238c9.786,0,17.747-7.961,17.747-17.748v-45.819c0-5.047-4.09-9.137-9.137-9.137
			c-5.048,0-9.137,4.09-9.137,9.137v45.294H478.779c-4.425,0-8.66,1.638-11.935,4.611l-34.847,31.658V56.772h184.217v45.293
			C616.215,107.111,620.306,111.203,625.352,111.202L625.352,111.202z M371.123,536.532c-1.032,1.94-3.04,3.146-5.237,3.146h-86.543
			c-2.197,0-4.205-1.205-5.237-3.145l-6.633-12.457h110.282L371.123,536.532z M569.229,505.805h-18.273v-303.64h18.273V505.805z
			 M443.405,234.485l35.575-32.321h53.699v303.638H112.548v-237.93c0-5.048-4.089-9.137-9.137-9.137s-9.137,4.089-9.137,9.137
			v237.932H76V186.093c0-21.037,17.114-38.149,38.149-38.149h299.575v18.273H114.15c-10.959,0-19.875,8.916-19.875,19.875v45.248
			c0,5.048,4.091,9.137,9.137,9.137c5.047,0,9.137-4.089,9.137-9.137v-45.248c0-0.884,0.719-1.602,1.601-1.602h299.575v36.858
			c0,7.127,4.048,13.345,10.564,16.229C430.871,240.491,438.185,239.229,443.405,234.485z"/>
		<path fill="#F9B418" d="M230.355,307.546v131.141c0,10.327,8.401,18.729,18.729,18.729H492.73
			c10.329,0,18.729-8.401,18.729-18.729V307.546c0-10.327-8.4-18.728-18.729-18.728H249.083
			C238.756,288.817,230.355,297.22,230.355,307.546z M493.187,307.546v131.141c0,0.251-0.205,0.455-0.456,0.455H249.083
			c-0.251,0-0.455-0.204-0.455-0.455V307.546c0-0.25,0.203-0.453,0.455-0.453H492.73
			C492.981,307.091,493.187,307.294,493.187,307.546z"/>
		<path fill="#F9B418" d="M280.252,382.254h156.943c5.049,0,9.138-4.089,9.138-9.137c0-5.047-4.089-9.137-9.138-9.137H280.252
			c-5.047,0-9.137,4.09-9.137,9.137C271.116,378.165,275.205,382.254,280.252,382.254L280.252,382.254z"/>
		<path fill="#F9B418" d="M280.252,343.396h108.212c5.049,0,9.138-4.09,9.138-9.137c0-5.048-4.089-9.137-9.138-9.137H280.252
			c-5.047,0-9.137,4.089-9.137,9.137C271.116,339.306,275.205,343.396,280.252,343.396z"/>
		<path fill="#F9B418" d="M280.252,421.113h181.309c5.048,0,9.137-4.091,9.137-9.138c0-5.049-4.089-9.137-9.137-9.137H280.252
			c-5.047,0-9.137,4.088-9.137,9.137C271.116,417.022,275.205,421.113,280.252,421.113L280.252,421.113z"/>
		<path fill="#F9B418" d="M179.317,236.91c-5.368-5.367-14.099-5.366-19.467,0.001l-22.049,22.049
			c-4.032,4.034-5.157,10.23-2.801,15.423l22.05,48.569c2.261,4.98,7.064,8.076,12.535,8.076c5.47,0,10.273-3.096,12.533-8.075
			l22.049-48.571c2.357-5.192,1.233-11.391-2.8-15.422L179.317,236.91z M169.585,306.354l-16.653-36.682l16.653-16.652
			l16.652,16.652L169.585,306.354z"/>
		<path fill="#F9B418" d="M246.907,270.07h153.037c5.048,0,9.138-4.09,9.138-9.137c0-5.047-4.09-9.137-9.138-9.137H246.907
			c-5.048,0-9.137,4.09-9.137,9.137C237.77,265.98,241.86,270.07,246.907,270.07L246.907,270.07z"/>
	</g>
</g>
</svg>
