<?xml version="1.0" encoding="utf-8"?>
<!-- Generator: Adobe Illustrator 16.0.3, SVG Export Plug-In . SVG Version: 6.00 Build 0)  -->
<!DOCTYPE svg PUBLIC "-//W3C//DTD SVG 1.1//EN" "http://www.w3.org/Graphics/SVG/1.1/DTD/svg11.dtd">
<svg version="1.1" id="Capa_1" xmlns="http://www.w3.org/2000/svg" xmlns:xlink="http://www.w3.org/1999/xlink" x="0px" y="0px"
	 width="640px" height="640px" viewBox="0 0 640 640" enable-background="new 0 0 640 640" xml:space="preserve">
<g>
	<g>
		<path fill="#FFFFFF" d="M321.064,636.864c-175.307,0-317.932-142.625-317.932-317.932C3.133,143.618,145.757,1,321.064,1
			C496.369,1,639,143.618,639,318.932C639,494.239,496.369,636.864,321.064,636.864z M321.064,74.811
			c-134.609,0-244.117,109.508-244.117,244.121c0,134.607,109.508,244.115,244.117,244.115
			c134.604,0,244.111-109.508,244.111-244.115C565.176,184.319,455.668,74.811,321.064,74.811z"/>
	</g>
	<path fill-rule="evenodd" clip-rule="evenodd" fill="#FFFFFF" d="M406.036,344.589c-3.848-2.102-22.728-12.293-26.268-13.731
		c-3.532-1.438-6.12-2.187-8.885,1.635c-2.745,3.81-10.585,12.346-12.956,14.867c-2.384,2.535-4.676,2.771-8.523,0.657
		c-3.835-2.102-16.293-6.711-30.74-20.601c-11.246-10.802-18.62-23.909-20.754-27.915c-2.15-4.006-0.013-6.042,2.016-7.913
		c1.829-1.701,4.088-4.433,6.133-6.639c2.029-2.207,2.749-3.822,4.15-6.383c1.402-2.555,0.834-4.866-0.076-6.862
		c-0.903-1.99-8.005-21.546-10.97-29.505c-2.971-7.946-6.274-6.77-8.557-6.855c-2.285-0.079-4.882-0.506-7.486-0.604
		c-2.62-0.105-6.896,0.722-10.619,4.498c-3.74,3.776-14.21,12.864-14.926,32.131c-0.726,19.254,12.605,38.39,14.463,41.063
		c1.855,2.686,25.44,44.424,64.624,61.59c39.204,17.165,39.414,11.938,46.599,11.544c7.203-0.381,23.509-8.603,27.121-17.612
		c3.604-9.01,3.894-16.851,2.981-18.519C412.445,347.767,409.871,346.69,406.036,344.589L406.036,344.589z M334.143,437.384
		c-25.913,0-50.059-7.774-70.209-21.112l-49.047,15.708l15.941-47.399c-15.278-21.04-24.3-46.887-24.3-74.822
		c0-70.39,57.252-127.639,127.616-127.639c70.383,0,127.633,57.25,127.633,127.639C461.775,380.128,404.525,437.384,334.143,437.384
		L334.143,437.384z M334.143,156.437c-84.663,0-153.305,68.643-153.305,153.322c0,28.966,8.041,56.054,22.002,79.163l-27.676,82.25
		l84.876-27.167c21.973,12.142,47.229,19.063,74.103,19.063c84.686,0,153.328-68.644,153.328-153.309
		C487.471,225.079,418.828,156.437,334.143,156.437L334.143,156.437z"/>
</g>
</svg>
