<?xml version="1.0" encoding="utf-8"?>
<!-- Generator: Adobe Illustrator 16.0.3, SVG Export Plug-In . SVG Version: 6.00 Build 0)  -->
<!DOCTYPE svg PUBLIC "-//W3C//DTD SVG 1.1//EN" "http://www.w3.org/Graphics/SVG/1.1/DTD/svg11.dtd">
<svg version="1.1" id="Capa_1" xmlns="http://www.w3.org/2000/svg" xmlns:xlink="http://www.w3.org/1999/xlink" x="0px" y="0px"
	 width="841px" height="841px" viewBox="0 0 841 841" enable-background="new 0 0 841 841" xml:space="preserve">
<g>
	<defs>
		<rect id="SVGID_1_" width="841" height="841"/>
	</defs>
	<clipPath id="SVGID_2_">
		<use xlink:href="#SVGID_1_"  overflow="visible"/>
	</clipPath>
	<g clip-path="url(#SVGID_2_)">
		<defs>
			<rect id="SVGID_3_" width="841.89" height="841.89"/>
		</defs>
		<clipPath id="SVGID_4_">
			<use xlink:href="#SVGID_3_"  overflow="visible"/>
		</clipPath>
		<rect clip-path="url(#SVGID_4_)" fill-rule="evenodd" clip-rule="evenodd" fill="#E5232A" width="841.89" height="841.89"/>
		
			<rect x="403.333" clip-path="url(#SVGID_4_)" fill-rule="evenodd" clip-rule="evenodd" fill="#FFFFFF" width="438.567" height="841.89"/>
		
			<rect x="621.169" y="786.874" opacity="0" clip-path="url(#SVGID_4_)" fill-rule="evenodd" clip-rule="evenodd" width="198.65" height="31.685"/>
		<g clip-path="url(#SVGID_4_)">
			<defs>
				<rect id="SVGID_5_" x="621.169" y="786.874" width="198.65" height="31.685"/>
			</defs>
			<clipPath id="SVGID_6_">
				<use xlink:href="#SVGID_5_"  overflow="visible"/>
			</clipPath>
			<g clip-path="url(#SVGID_6_)">
				<defs>
					<rect id="SVGID_7_" x="621.169" y="786.874" width="198.65" height="31.685"/>
				</defs>
				<clipPath id="SVGID_8_">
					<use xlink:href="#SVGID_7_"  overflow="visible"/>
				</clipPath>
				<g transform="matrix(1 0 0 1 1.680857e-005 -3.932452e-005)" clip-path="url(#SVGID_8_)">
					
						<image overflow="visible" width="815" height="130" xlink:href="3FFB3DC5.png"  transform="matrix(0.2437 0 0 0.2437 621.1689 786.874)">
					</image>
				</g>
			</g>
		</g>
		
			<rect x="101.142" y="48.849" opacity="0" clip-path="url(#SVGID_4_)" fill-rule="evenodd" clip-rule="evenodd" width="197.671" height="71.48"/>
		<g clip-path="url(#SVGID_4_)">
			<defs>
				<rect id="SVGID_9_" x="101.142" y="48.849" width="197.671" height="71.48"/>
			</defs>
			<clipPath id="SVGID_10_">
				<use xlink:href="#SVGID_9_"  overflow="visible"/>
			</clipPath>
			<g clip-path="url(#SVGID_10_)">
				<defs>
					<rect id="SVGID_11_" x="101.142" y="-13.854" width="197.671" height="197.665"/>
				</defs>
				<clipPath id="SVGID_12_">
					<use xlink:href="#SVGID_11_"  overflow="visible"/>
				</clipPath>
				<g transform="matrix(1 0 0 1 2.757579e-006 -1.338777e-006)" clip-path="url(#SVGID_12_)">
					
						<image overflow="visible" width="1080" height="1080" xlink:href="3FFB3DC7.png"  transform="matrix(0.183 0 0 0.183 101.1416 -13.854)">
					</image>
				</g>
			</g>
		</g>
		
			<rect x="10.421" y="778.115" opacity="0" clip-path="url(#SVGID_4_)" fill-rule="evenodd" clip-rule="evenodd" width="247.923" height="40.443"/>
		<g clip-path="url(#SVGID_4_)">
			<defs>
				<rect id="SVGID_13_" x="10.421" y="778.115" width="247.923" height="40.443"/>
			</defs>
			<clipPath id="SVGID_14_">
				<use xlink:href="#SVGID_13_"  overflow="visible"/>
			</clipPath>
			<g clip-path="url(#SVGID_14_)">
				<defs>
					<rect id="SVGID_15_" x="10.421" y="778.115" width="247.923" height="40.443"/>
				</defs>
				<clipPath id="SVGID_16_">
					<use xlink:href="#SVGID_15_"  overflow="visible"/>
				</clipPath>
				<g transform="matrix(1 0 0 1 3.122220e-007 2.572051e-005)" clip-path="url(#SVGID_16_)">
					
						<image overflow="visible" width="472" height="77" xlink:href="3FFB3DC2.png"  transform="matrix(0.5253 0 0 0.5252 10.4214 778.1152)">
					</image>
				</g>
			</g>
		</g>
		
			<rect x="418.773" y="70.801" opacity="0" clip-path="url(#SVGID_4_)" fill-rule="evenodd" clip-rule="evenodd" width="398.882" height="58.181"/>
		<g clip-path="url(#SVGID_4_)">
			<text transform="matrix(1 0 0 1 486.8262 112.1108)" font-family="'Corbel-Bold'" font-size="36">Mes: DICIEMBRE</text>
		</g>
		
			<rect x="14.293" y="167.25" opacity="0" clip-path="url(#SVGID_4_)" fill-rule="evenodd" clip-rule="evenodd" width="365.693" height="497.905"/>
		<g clip-path="url(#SVGID_4_)">
			<text transform="matrix(1 0 0 1 25.291 197.0396)" fill="#FFFFFF" font-family="'Montserrat-Regular'" font-size="24">1.</text>
		</g>
		<g clip-path="url(#SVGID_4_)">
			<text transform="matrix(1 0 0 1 57.043 197.0396)"><tspan x="0" y="0" fill="#FFFFFF" font-family="'Corbel-Bold'" font-size="24">DISEÑO DE</tspan><tspan x="120.832" y="0" fill="#FFFFFF" font-family="'Corbel-Bold'" font-size="24"> </tspan><tspan x="125.201" y="0" fill="#FFFFFF" font-family="'Corbel-Bold'" font-size="24">SOLUCIONES: </tspan></text>
		</g>
		<g clip-path="url(#SVGID_4_)">
			<text transform="matrix(1 0 0 1 57.043 225.8389)"><tspan x="0" y="0" fill="#FFFFFF" font-family="'Corbel-Bold'" font-size="24">PROPUES</tspan><tspan x="105.809" y="0" fill="#FFFFFF" font-family="'Corbel-Bold'" font-size="24" letter-spacing="-1">T</tspan><tspan x="118.224" y="0" fill="#FFFFFF" font-family="'Corbel-Bold'" font-size="24">A DE</tspan><tspan x="169.107" y="0" fill="#FFFFFF" font-family="'Corbel-Bold'" font-size="24" letter-spacing="-1"> </tspan><tspan x="172.42" y="0" fill="#FFFFFF" font-family="'Corbel-Bold'" font-size="24" letter-spacing="-1">V</tspan><tspan x="186.453" y="0" fill="#FFFFFF" font-family="'Corbel-Bold'" font-size="24">A</tspan><tspan x="202.227" y="0" fill="#FFFFFF" font-family="'Corbel-Bold'" font-size="24">L</tspan><tspan x="214.193" y="0" fill="#FFFFFF" font-family="'Corbel-Bold'" font-size="24">OR</tspan></text>
		</g>
		<g clip-path="url(#SVGID_4_)">
			<text transform="matrix(1 0 0 1 57.043 254.6401)" fill="#FFFFFF" font-family="'Corbel'" font-size="24">Paso a paso de cómo diseñar un </text>
		</g>
		<g clip-path="url(#SVGID_4_)">
			<text transform="matrix(1 0 0 1 57.043 283.4395)" fill="#FFFFFF" font-family="'Corbel'" font-size="24">producto; visión, concepto, </text>
		</g>
		<g clip-path="url(#SVGID_4_)">
			<text transform="matrix(1 0 0 1 57.043 312.2393)"><tspan x="0" y="0" fill="#FFFFFF" font-family="'Corbel'" font-size="24">propuesta de</tspan><tspan x="130.066" y="0" fill="#FFFFFF" font-family="'Corbel'" font-size="24" letter-spacing="-1"> </tspan><tspan x="133.239" y="0" fill="#FFFFFF" font-family="'Corbel'" font-size="24">Valor y </tspan></text>
		</g>
		<g clip-path="url(#SVGID_4_)">
			<text transform="matrix(1 0 0 1 57.043 341.0396)" fill="#FFFFFF" font-family="'Corbel'" font-size="24">funcionalidades. </text>
		</g>
		<g clip-path="url(#SVGID_4_)">
			<text transform="matrix(1 0 0 1 57.043 369.8389)" fill="#FFFFFF" font-family="'Corbel-Bold'" font-size="24">[04 Horas]</text>
		</g>
		<g clip-path="url(#SVGID_4_)">
			<text transform="matrix(1 0 0 1 20.083 427.4395)"><tspan x="0" y="0" fill="#FFFFFF" font-family="'Montserrat-Regular'" font-size="24">2</tspan><tspan x="12.216" y="0" fill="#FFFFFF" font-family="'Montserrat-Regular'" font-size="24">.</tspan></text>
		</g>
		<g clip-path="url(#SVGID_4_)">
			<text transform="matrix(1 0 0 1 57.043 427.4395)" fill="#FFFFFF" font-family="'Corbel-Bold'" font-size="24">DISEÑO DE EXPERIENCIAS: </text>
		</g>
		<g clip-path="url(#SVGID_4_)">
			<text transform="matrix(1 0 0 1 57.043 456.2393)" fill="#FFFFFF" font-family="'Corbel-Bold'" font-size="24">CX</text>
		</g>
		<g clip-path="url(#SVGID_4_)">
			<text transform="matrix(1 0 0 1 57.043 485.04)" fill="#FFFFFF" font-family="'Corbel'" font-size="24">Paso a paso de cómo diseñar </text>
		</g>
		<g clip-path="url(#SVGID_4_)">
			<text transform="matrix(1 0 0 1 57.043 513.8398)" fill="#FFFFFF" font-family="'Corbel'" font-size="24">una experiencia a través de un </text>
		</g>
		<g clip-path="url(#SVGID_4_)">
			<text transform="matrix(1 0 0 1 57.043 542.6387)"><tspan x="0" y="0" fill="#FFFFFF" font-family="'Corbel'" font-size="24">customer journ</tspan><tspan x="150.152" y="0" fill="#FFFFFF" font-family="'Corbel'" font-size="24">e</tspan><tspan x="161.998" y="0" fill="#FFFFFF" font-family="'Corbel'" font-size="24">y y blueprint. </tspan></text>
		</g>
		<g clip-path="url(#SVGID_4_)">
			<text transform="matrix(1 0 0 1 57.043 571.4395)" fill="#FFFFFF" font-family="'Corbel-Bold'" font-size="24">[04 Horas]</text>
		</g>
		
			<rect x="418.773" y="185.246" opacity="0" clip-path="url(#SVGID_4_)" fill-rule="evenodd" clip-rule="evenodd" width="398.882" height="123.614"/>
		<g clip-path="url(#SVGID_4_)">
			<text transform="matrix(1 0 0 1 443.209 220.7949)" font-family="'Handlee-Regular'" font-size="30">“</text>
		</g>
		<g clip-path="url(#SVGID_4_)">
			
				<text transform="matrix(1 0 0 1 443.209 220.7949)" fill="none" stroke="#000000" stroke-width="0.0033" stroke-linecap="square" stroke-miterlimit="10" font-family="'Handlee-Regular'" font-size="30">“</text>
		</g>
		<g clip-path="url(#SVGID_4_)">
			<text transform="matrix(1 0 0 1 453.1094 220.7949)" font-family="'Handlee-Regular'" font-size="30">L</text>
		</g>
		<g clip-path="url(#SVGID_4_)">
			
				<text transform="matrix(1 0 0 1 453.1094 220.7949)" fill="none" stroke="#000000" stroke-width="0.0033" stroke-linecap="square" stroke-miterlimit="10" font-family="'Handlee-Regular'" font-size="30">L</text>
		</g>
		<g clip-path="url(#SVGID_4_)">
			<text transform="matrix(1 0 0 1 469.1592 220.7949)" font-family="'Handlee-Regular'" font-size="30">a</text>
		</g>
		<g clip-path="url(#SVGID_4_)">
			
				<text transform="matrix(1 0 0 1 469.1592 220.7949)" fill="none" stroke="#000000" stroke-width="0.0033" stroke-linecap="square" stroke-miterlimit="10" font-family="'Handlee-Regular'" font-size="30">a</text>
		</g>
		<g clip-path="url(#SVGID_4_)">
			<text transform="matrix(1 0 0 1 482.6289 220.7949)" font-family="'Handlee-Regular'" font-size="30"> </text>
		</g>
		<g clip-path="url(#SVGID_4_)">
			
				<text transform="matrix(1 0 0 1 482.6289 220.7949)" fill="none" stroke="#000000" stroke-width="0.0033" stroke-linecap="square" stroke-miterlimit="10" font-family="'Handlee-Regular'" font-size="30"> </text>
		</g>
		<g clip-path="url(#SVGID_4_)">
			<text transform="matrix(1 0 0 1 489.4092 220.7949)" font-family="'Handlee-Regular'" font-size="30">m</text>
		</g>
		<g clip-path="url(#SVGID_4_)">
			
				<text transform="matrix(1 0 0 1 489.4092 220.7949)" fill="none" stroke="#000000" stroke-width="0.0033" stroke-linecap="square" stroke-miterlimit="10" font-family="'Handlee-Regular'" font-size="30">m</text>
		</g>
		<g clip-path="url(#SVGID_4_)">
			<text transform="matrix(1 0 0 1 509.4492 220.7949)" font-family="'Handlee-Regular'" font-size="30">e</text>
		</g>
		<g clip-path="url(#SVGID_4_)">
			
				<text transform="matrix(1 0 0 1 509.4492 220.7949)" fill="none" stroke="#000000" stroke-width="0.0033" stroke-linecap="square" stroke-miterlimit="10" font-family="'Handlee-Regular'" font-size="30">e</text>
		</g>
		<g clip-path="url(#SVGID_4_)">
			<text transform="matrix(1 0 0 1 523.6396 220.7949)" font-family="'Handlee-Regular'" font-size="30">j</text>
		</g>
		<g clip-path="url(#SVGID_4_)">
			
				<text transform="matrix(1 0 0 1 523.6396 220.7949)" fill="none" stroke="#000000" stroke-width="0.0033" stroke-linecap="square" stroke-miterlimit="10" font-family="'Handlee-Regular'" font-size="30">j</text>
		</g>
		<g clip-path="url(#SVGID_4_)">
			<text transform="matrix(1 0 0 1 529.6699 220.7949)" font-family="'Handlee-Regular'" font-size="30">o</text>
		</g>
		<g clip-path="url(#SVGID_4_)">
			
				<text transform="matrix(1 0 0 1 529.6699 220.7949)" fill="none" stroke="#000000" stroke-width="0.0033" stroke-linecap="square" stroke-miterlimit="10" font-family="'Handlee-Regular'" font-size="30">o</text>
		</g>
		<g clip-path="url(#SVGID_4_)">
			<text transform="matrix(1 0 0 1 544.3691 220.7949)" font-family="'Handlee-Regular'" font-size="30">r</text>
		</g>
		<g clip-path="url(#SVGID_4_)">
			
				<text transform="matrix(1 0 0 1 544.3691 220.7949)" fill="none" stroke="#000000" stroke-width="0.0033" stroke-linecap="square" stroke-miterlimit="10" font-family="'Handlee-Regular'" font-size="30">r</text>
		</g>
		<g clip-path="url(#SVGID_4_)">
			<text transform="matrix(1 0 0 1 556.3096 220.7949)" font-family="'Handlee-Regular'" font-size="30"> </text>
		</g>
		<g clip-path="url(#SVGID_4_)">
			
				<text transform="matrix(1 0 0 1 556.3096 220.7949)" fill="none" stroke="#000000" stroke-width="0.0033" stroke-linecap="square" stroke-miterlimit="10" font-family="'Handlee-Regular'" font-size="30"> </text>
		</g>
		<g clip-path="url(#SVGID_4_)">
			<text transform="matrix(1 0 0 1 563.0898 220.7949)" font-family="'Handlee-Regular'" font-size="30">m</text>
		</g>
		<g clip-path="url(#SVGID_4_)">
			
				<text transform="matrix(1 0 0 1 563.0898 220.7949)" fill="none" stroke="#000000" stroke-width="0.0033" stroke-linecap="square" stroke-miterlimit="10" font-family="'Handlee-Regular'" font-size="30">m</text>
		</g>
		<g clip-path="url(#SVGID_4_)">
			<text transform="matrix(1 0 0 1 583.1289 220.7949)" font-family="'Handlee-Regular'" font-size="30">a</text>
		</g>
		<g clip-path="url(#SVGID_4_)">
			
				<text transform="matrix(1 0 0 1 583.1289 220.7949)" fill="none" stroke="#000000" stroke-width="0.0033" stroke-linecap="square" stroke-miterlimit="10" font-family="'Handlee-Regular'" font-size="30">a</text>
		</g>
		<g clip-path="url(#SVGID_4_)">
			<text transform="matrix(1 0 0 1 596.5996 220.7949)" font-family="'Handlee-Regular'" font-size="30">n</text>
		</g>
		<g clip-path="url(#SVGID_4_)">
			
				<text transform="matrix(1 0 0 1 596.5996 220.7949)" fill="none" stroke="#000000" stroke-width="0.0033" stroke-linecap="square" stroke-miterlimit="10" font-family="'Handlee-Regular'" font-size="30">n</text>
		</g>
		<g clip-path="url(#SVGID_4_)">
			<text transform="matrix(1 0 0 1 610.8799 220.7949)" font-family="'Handlee-Regular'" font-size="30">e</text>
		</g>
		<g clip-path="url(#SVGID_4_)">
			
				<text transform="matrix(1 0 0 1 610.8799 220.7949)" fill="none" stroke="#000000" stroke-width="0.0033" stroke-linecap="square" stroke-miterlimit="10" font-family="'Handlee-Regular'" font-size="30">e</text>
		</g>
		<g clip-path="url(#SVGID_4_)">
			<text transform="matrix(1 0 0 1 625.0693 220.7949)" font-family="'Handlee-Regular'" font-size="30">r</text>
		</g>
		<g clip-path="url(#SVGID_4_)">
			
				<text transform="matrix(1 0 0 1 625.0693 220.7949)" fill="none" stroke="#000000" stroke-width="0.0033" stroke-linecap="square" stroke-miterlimit="10" font-family="'Handlee-Regular'" font-size="30">r</text>
		</g>
		<g clip-path="url(#SVGID_4_)">
			<text transform="matrix(1 0 0 1 636.6797 220.7949)" font-family="'Handlee-Regular'" font-size="30">a</text>
		</g>
		<g clip-path="url(#SVGID_4_)">
			
				<text transform="matrix(1 0 0 1 636.6797 220.7949)" fill="none" stroke="#000000" stroke-width="0.0033" stroke-linecap="square" stroke-miterlimit="10" font-family="'Handlee-Regular'" font-size="30">a</text>
		</g>
		<g clip-path="url(#SVGID_4_)">
			<text transform="matrix(1 0 0 1 650.1494 220.7949)" font-family="'Handlee-Regular'" font-size="30"> </text>
		</g>
		<g clip-path="url(#SVGID_4_)">
			
				<text transform="matrix(1 0 0 1 650.1494 220.7949)" fill="none" stroke="#000000" stroke-width="0.0033" stroke-linecap="square" stroke-miterlimit="10" font-family="'Handlee-Regular'" font-size="30"> </text>
		</g>
		<g clip-path="url(#SVGID_4_)">
			<text transform="matrix(1 0 0 1 656.9297 220.7949)" font-family="'Handlee-Regular'" font-size="30">d</text>
		</g>
		<g clip-path="url(#SVGID_4_)">
			
				<text transform="matrix(1 0 0 1 656.9297 220.7949)" fill="none" stroke="#000000" stroke-width="0.0033" stroke-linecap="square" stroke-miterlimit="10" font-family="'Handlee-Regular'" font-size="30">d</text>
		</g>
		<g clip-path="url(#SVGID_4_)">
			<text transform="matrix(1 0 0 1 671.1201 220.7949)" font-family="'Handlee-Regular'" font-size="30">e</text>
		</g>
		<g clip-path="url(#SVGID_4_)">
			
				<text transform="matrix(1 0 0 1 671.1201 220.7949)" fill="none" stroke="#000000" stroke-width="0.0033" stroke-linecap="square" stroke-miterlimit="10" font-family="'Handlee-Regular'" font-size="30">e</text>
		</g>
		<g clip-path="url(#SVGID_4_)">
			<text transform="matrix(1 0 0 1 685.3096 220.7949)" font-family="'Handlee-Regular'" font-size="30"> </text>
		</g>
		<g clip-path="url(#SVGID_4_)">
			
				<text transform="matrix(1 0 0 1 685.3096 220.7949)" fill="none" stroke="#000000" stroke-width="0.0033" stroke-linecap="square" stroke-miterlimit="10" font-family="'Handlee-Regular'" font-size="30"> </text>
		</g>
		<g clip-path="url(#SVGID_4_)">
			<text transform="matrix(1 0 0 1 692.0898 220.7949)" font-family="'Handlee-Regular'" font-size="30">e</text>
		</g>
		<g clip-path="url(#SVGID_4_)">
			
				<text transform="matrix(1 0 0 1 692.0898 220.7949)" fill="none" stroke="#000000" stroke-width="0.0033" stroke-linecap="square" stroke-miterlimit="10" font-family="'Handlee-Regular'" font-size="30">e</text>
		</g>
		<g clip-path="url(#SVGID_4_)">
			<text transform="matrix(1 0 0 1 706.2803 220.7949)" font-family="'Handlee-Regular'" font-size="30">m</text>
		</g>
		<g clip-path="url(#SVGID_4_)">
			
				<text transform="matrix(1 0 0 1 706.2803 220.7949)" fill="none" stroke="#000000" stroke-width="0.0033" stroke-linecap="square" stroke-miterlimit="10" font-family="'Handlee-Regular'" font-size="30">m</text>
		</g>
		<g clip-path="url(#SVGID_4_)">
			<text transform="matrix(1 0 0 1 726.3203 220.7949)" font-family="'Handlee-Regular'" font-size="30">p</text>
		</g>
		<g clip-path="url(#SVGID_4_)">
			
				<text transform="matrix(1 0 0 1 726.3203 220.7949)" fill="none" stroke="#000000" stroke-width="0.0033" stroke-linecap="square" stroke-miterlimit="10" font-family="'Handlee-Regular'" font-size="30">p</text>
		</g>
		<g clip-path="url(#SVGID_4_)">
			<text transform="matrix(1 0 0 1 740.4502 220.7949)" font-family="'Handlee-Regular'" font-size="30">e</text>
		</g>
		<g clip-path="url(#SVGID_4_)">
			
				<text transform="matrix(1 0 0 1 740.4502 220.7949)" fill="none" stroke="#000000" stroke-width="0.0033" stroke-linecap="square" stroke-miterlimit="10" font-family="'Handlee-Regular'" font-size="30">e</text>
		</g>
		<g clip-path="url(#SVGID_4_)">
			<text transform="matrix(1 0 0 1 754.6396 220.7949)" font-family="'Handlee-Regular'" font-size="30">z</text>
		</g>
		<g clip-path="url(#SVGID_4_)">
			
				<text transform="matrix(1 0 0 1 754.6396 220.7949)" fill="none" stroke="#000000" stroke-width="0.0033" stroke-linecap="square" stroke-miterlimit="10" font-family="'Handlee-Regular'" font-size="30">z</text>
		</g>
		<g clip-path="url(#SVGID_4_)">
			<text transform="matrix(1 0 0 1 767.8408 220.7949)" font-family="'Handlee-Regular'" font-size="30">a</text>
		</g>
		<g clip-path="url(#SVGID_4_)">
			
				<text transform="matrix(1 0 0 1 767.8408 220.7949)" fill="none" stroke="#000000" stroke-width="0.0033" stroke-linecap="square" stroke-miterlimit="10" font-family="'Handlee-Regular'" font-size="30">a</text>
		</g>
		<g clip-path="url(#SVGID_4_)">
			<text transform="matrix(1 0 0 1 781.3105 220.7949)" font-family="'Handlee-Regular'" font-size="30">r</text>
		</g>
		<g clip-path="url(#SVGID_4_)">
			
				<text transform="matrix(1 0 0 1 781.3105 220.7949)" fill="none" stroke="#000000" stroke-width="0.0033" stroke-linecap="square" stroke-miterlimit="10" font-family="'Handlee-Regular'" font-size="30">r</text>
		</g>
		<g clip-path="url(#SVGID_4_)">
			<text transform="matrix(1 0 0 1 793.25 220.7949)" font-family="'Handlee-Regular'" font-size="30"> </text>
		</g>
		<g clip-path="url(#SVGID_4_)">
			
				<text transform="matrix(1 0 0 1 793.25 220.7949)" fill="none" stroke="#000000" stroke-width="0.0033" stroke-linecap="square" stroke-miterlimit="10" font-family="'Handlee-Regular'" font-size="30"> </text>
		</g>
		<g clip-path="url(#SVGID_4_)">
			<text transform="matrix(1 0 0 1 432.5889 256.7949)" font-family="'Handlee-Regular'" font-size="30">a</text>
		</g>
		<g clip-path="url(#SVGID_4_)">
			
				<text transform="matrix(1 0 0 1 432.5889 256.7949)" fill="none" stroke="#000000" stroke-width="0.0033" stroke-linecap="square" stroke-miterlimit="10" font-family="'Handlee-Regular'" font-size="30">a</text>
		</g>
		<g clip-path="url(#SVGID_4_)">
			<text transform="matrix(1 0 0 1 446.0596 256.7949)" font-family="'Handlee-Regular'" font-size="30">l</text>
		</g>
		<g clip-path="url(#SVGID_4_)">
			
				<text transform="matrix(1 0 0 1 446.0596 256.7949)" fill="none" stroke="#000000" stroke-width="0.0033" stroke-linecap="square" stroke-miterlimit="10" font-family="'Handlee-Regular'" font-size="30">l</text>
		</g>
		<g clip-path="url(#SVGID_4_)">
			<text transform="matrix(1 0 0 1 453.1992 256.7949)" font-family="'Handlee-Regular'" font-size="30">g</text>
		</g>
		<g clip-path="url(#SVGID_4_)">
			
				<text transform="matrix(1 0 0 1 453.1992 256.7949)" fill="none" stroke="#000000" stroke-width="0.0033" stroke-linecap="square" stroke-miterlimit="10" font-family="'Handlee-Regular'" font-size="30">g</text>
		</g>
		<g clip-path="url(#SVGID_4_)">
			<text transform="matrix(1 0 0 1 467.1797 256.7949)" font-family="'Handlee-Regular'" font-size="30">o</text>
		</g>
		<g clip-path="url(#SVGID_4_)">
			
				<text transform="matrix(1 0 0 1 467.1797 256.7949)" fill="none" stroke="#000000" stroke-width="0.0033" stroke-linecap="square" stroke-miterlimit="10" font-family="'Handlee-Regular'" font-size="30">o</text>
		</g>
		<g clip-path="url(#SVGID_4_)">
			<text transform="matrix(1 0 0 1 481.8799 256.7949)" font-family="'Handlee-Regular'" font-size="30"> </text>
		</g>
		<g clip-path="url(#SVGID_4_)">
			
				<text transform="matrix(1 0 0 1 481.8799 256.7949)" fill="none" stroke="#000000" stroke-width="0.0033" stroke-linecap="square" stroke-miterlimit="10" font-family="'Handlee-Regular'" font-size="30"> </text>
		</g>
		<g clip-path="url(#SVGID_4_)">
			<text transform="matrix(1 0 0 1 488.6592 256.7949)" font-family="'Handlee-Regular'" font-size="30">e</text>
		</g>
		<g clip-path="url(#SVGID_4_)">
			
				<text transform="matrix(1 0 0 1 488.6592 256.7949)" fill="none" stroke="#000000" stroke-width="0.0033" stroke-linecap="square" stroke-miterlimit="10" font-family="'Handlee-Regular'" font-size="30">e</text>
		</g>
		<g clip-path="url(#SVGID_4_)">
			<text transform="matrix(1 0 0 1 502.8496 256.7949)" font-family="'Handlee-Regular'" font-size="30">s</text>
		</g>
		<g clip-path="url(#SVGID_4_)">
			
				<text transform="matrix(1 0 0 1 502.8496 256.7949)" fill="none" stroke="#000000" stroke-width="0.0033" stroke-linecap="square" stroke-miterlimit="10" font-family="'Handlee-Regular'" font-size="30">s</text>
		</g>
		<g clip-path="url(#SVGID_4_)">
			<text transform="matrix(1 0 0 1 515.9297 256.7949)" font-family="'Handlee-Regular'" font-size="30"> </text>
		</g>
		<g clip-path="url(#SVGID_4_)">
			
				<text transform="matrix(1 0 0 1 515.9297 256.7949)" fill="none" stroke="#000000" stroke-width="0.0033" stroke-linecap="square" stroke-miterlimit="10" font-family="'Handlee-Regular'" font-size="30"> </text>
		</g>
		<g clip-path="url(#SVGID_4_)">
			<text transform="matrix(1 0 0 1 522.71 256.7949)" font-family="'Handlee-Regular'" font-size="30">d</text>
		</g>
		<g clip-path="url(#SVGID_4_)">
			
				<text transform="matrix(1 0 0 1 522.71 256.7949)" fill="none" stroke="#000000" stroke-width="0.0033" stroke-linecap="square" stroke-miterlimit="10" font-family="'Handlee-Regular'" font-size="30">d</text>
		</g>
		<g clip-path="url(#SVGID_4_)">
			<text transform="matrix(1 0 0 1 536.9004 256.7949)" font-family="'Handlee-Regular'" font-size="30">e</text>
		</g>
		<g clip-path="url(#SVGID_4_)">
			
				<text transform="matrix(1 0 0 1 536.9004 256.7949)" fill="none" stroke="#000000" stroke-width="0.0033" stroke-linecap="square" stroke-miterlimit="10" font-family="'Handlee-Regular'" font-size="30">e</text>
		</g>
		<g clip-path="url(#SVGID_4_)">
			<text transform="matrix(1 0 0 1 551.0898 256.7949)" font-family="'Handlee-Regular'" font-size="30">j</text>
		</g>
		<g clip-path="url(#SVGID_4_)">
			
				<text transform="matrix(1 0 0 1 551.0898 256.7949)" fill="none" stroke="#000000" stroke-width="0.0033" stroke-linecap="square" stroke-miterlimit="10" font-family="'Handlee-Regular'" font-size="30">j</text>
		</g>
		<g clip-path="url(#SVGID_4_)">
			<text transform="matrix(1 0 0 1 557.1201 256.7949)" font-family="'Handlee-Regular'" font-size="30">a</text>
		</g>
		<g clip-path="url(#SVGID_4_)">
			
				<text transform="matrix(1 0 0 1 557.1201 256.7949)" fill="none" stroke="#000000" stroke-width="0.0033" stroke-linecap="square" stroke-miterlimit="10" font-family="'Handlee-Regular'" font-size="30">a</text>
		</g>
		<g clip-path="url(#SVGID_4_)">
			<text transform="matrix(1 0 0 1 570.5908 256.7949)" font-family="'Handlee-Regular'" font-size="30">r</text>
		</g>
		<g clip-path="url(#SVGID_4_)">
			
				<text transform="matrix(1 0 0 1 570.5908 256.7949)" fill="none" stroke="#000000" stroke-width="0.0033" stroke-linecap="square" stroke-miterlimit="10" font-family="'Handlee-Regular'" font-size="30">r</text>
		</g>
		<g clip-path="url(#SVGID_4_)">
			<text transform="matrix(1 0 0 1 582.5303 256.7949)" font-family="'Handlee-Regular'" font-size="30"> </text>
		</g>
		<g clip-path="url(#SVGID_4_)">
			
				<text transform="matrix(1 0 0 1 582.5303 256.7949)" fill="none" stroke="#000000" stroke-width="0.0033" stroke-linecap="square" stroke-miterlimit="10" font-family="'Handlee-Regular'" font-size="30"> </text>
		</g>
		<g clip-path="url(#SVGID_4_)">
			<text transform="matrix(1 0 0 1 589.3105 256.7949)" font-family="'Handlee-Regular'" font-size="30">d</text>
		</g>
		<g clip-path="url(#SVGID_4_)">
			
				<text transform="matrix(1 0 0 1 589.3105 256.7949)" fill="none" stroke="#000000" stroke-width="0.0033" stroke-linecap="square" stroke-miterlimit="10" font-family="'Handlee-Regular'" font-size="30">d</text>
		</g>
		<g clip-path="url(#SVGID_4_)">
			<text transform="matrix(1 0 0 1 603.501 256.7949)" font-family="'Handlee-Regular'" font-size="30">e</text>
		</g>
		<g clip-path="url(#SVGID_4_)">
			
				<text transform="matrix(1 0 0 1 603.501 256.7949)" fill="none" stroke="#000000" stroke-width="0.0033" stroke-linecap="square" stroke-miterlimit="10" font-family="'Handlee-Regular'" font-size="30">e</text>
		</g>
		<g clip-path="url(#SVGID_4_)">
			<text transform="matrix(1 0 0 1 617.6904 256.7949)" font-family="'Handlee-Regular'" font-size="30"> </text>
		</g>
		<g clip-path="url(#SVGID_4_)">
			
				<text transform="matrix(1 0 0 1 617.6904 256.7949)" fill="none" stroke="#000000" stroke-width="0.0033" stroke-linecap="square" stroke-miterlimit="10" font-family="'Handlee-Regular'" font-size="30"> </text>
		</g>
		<g clip-path="url(#SVGID_4_)">
			<text transform="matrix(1 0 0 1 624.4707 256.7949)" font-family="'Handlee-Regular'" font-size="30">h</text>
		</g>
		<g clip-path="url(#SVGID_4_)">
			
				<text transform="matrix(1 0 0 1 624.4707 256.7949)" fill="none" stroke="#000000" stroke-width="0.0033" stroke-linecap="square" stroke-miterlimit="10" font-family="'Handlee-Regular'" font-size="30">h</text>
		</g>
		<g clip-path="url(#SVGID_4_)">
			<text transform="matrix(1 0 0 1 639.1113 256.7949)" font-family="'Handlee-Regular'" font-size="30">a</text>
		</g>
		<g clip-path="url(#SVGID_4_)">
			
				<text transform="matrix(1 0 0 1 639.1113 256.7949)" fill="none" stroke="#000000" stroke-width="0.0033" stroke-linecap="square" stroke-miterlimit="10" font-family="'Handlee-Regular'" font-size="30">a</text>
		</g>
		<g clip-path="url(#SVGID_4_)">
			<text transform="matrix(1 0 0 1 652.5811 256.7949)" font-family="'Handlee-Regular'" font-size="30">b</text>
		</g>
		<g clip-path="url(#SVGID_4_)">
			
				<text transform="matrix(1 0 0 1 652.5811 256.7949)" fill="none" stroke="#000000" stroke-width="0.0033" stroke-linecap="square" stroke-miterlimit="10" font-family="'Handlee-Regular'" font-size="30">b</text>
		</g>
		<g clip-path="url(#SVGID_4_)">
			<text transform="matrix(1 0 0 1 666.1406 256.7949)" font-family="'Handlee-Regular'" font-size="30">l</text>
		</g>
		<g clip-path="url(#SVGID_4_)">
			
				<text transform="matrix(1 0 0 1 666.1406 256.7949)" fill="none" stroke="#000000" stroke-width="0.0033" stroke-linecap="square" stroke-miterlimit="10" font-family="'Handlee-Regular'" font-size="30">l</text>
		</g>
		<g clip-path="url(#SVGID_4_)">
			<text transform="matrix(1 0 0 1 673.2813 256.7949)" font-family="'Handlee-Regular'" font-size="30">a</text>
		</g>
		<g clip-path="url(#SVGID_4_)">
			
				<text transform="matrix(1 0 0 1 673.2813 256.7949)" fill="none" stroke="#000000" stroke-width="0.0033" stroke-linecap="square" stroke-miterlimit="10" font-family="'Handlee-Regular'" font-size="30">a</text>
		</g>
		<g clip-path="url(#SVGID_4_)">
			<text transform="matrix(1 0 0 1 686.751 256.7949)" font-family="'Handlee-Regular'" font-size="30">r</text>
		</g>
		<g clip-path="url(#SVGID_4_)">
			
				<text transform="matrix(1 0 0 1 686.751 256.7949)" fill="none" stroke="#000000" stroke-width="0.0033" stroke-linecap="square" stroke-miterlimit="10" font-family="'Handlee-Regular'" font-size="30">r</text>
		</g>
		<g clip-path="url(#SVGID_4_)">
			<text transform="matrix(1 0 0 1 698.6914 256.7949)" font-family="'Handlee-Regular'" font-size="30"> </text>
		</g>
		<g clip-path="url(#SVGID_4_)">
			
				<text transform="matrix(1 0 0 1 698.6914 256.7949)" fill="none" stroke="#000000" stroke-width="0.0033" stroke-linecap="square" stroke-miterlimit="10" font-family="'Handlee-Regular'" font-size="30"> </text>
		</g>
		<g clip-path="url(#SVGID_4_)">
			<text transform="matrix(1 0 0 1 705.4707 256.7949)" font-family="'Handlee-Regular'" font-size="30">d</text>
		</g>
		<g clip-path="url(#SVGID_4_)">
			
				<text transform="matrix(1 0 0 1 705.4707 256.7949)" fill="none" stroke="#000000" stroke-width="0.0033" stroke-linecap="square" stroke-miterlimit="10" font-family="'Handlee-Regular'" font-size="30">d</text>
		</g>
		<g clip-path="url(#SVGID_4_)">
			<text transform="matrix(1 0 0 1 719.6611 256.7949)" font-family="'Handlee-Regular'" font-size="30">e</text>
		</g>
		<g clip-path="url(#SVGID_4_)">
			
				<text transform="matrix(1 0 0 1 719.6611 256.7949)" fill="none" stroke="#000000" stroke-width="0.0033" stroke-linecap="square" stroke-miterlimit="10" font-family="'Handlee-Regular'" font-size="30">e</text>
		</g>
		<g clip-path="url(#SVGID_4_)">
			<text transform="matrix(1 0 0 1 733.8506 256.7949)" font-family="'Handlee-Regular'" font-size="30"> </text>
		</g>
		<g clip-path="url(#SVGID_4_)">
			
				<text transform="matrix(1 0 0 1 733.8506 256.7949)" fill="none" stroke="#000000" stroke-width="0.0033" stroke-linecap="square" stroke-miterlimit="10" font-family="'Handlee-Regular'" font-size="30"> </text>
		</g>
		<g clip-path="url(#SVGID_4_)">
			<text transform="matrix(1 0 0 1 740.6309 256.7949)" font-family="'Handlee-Regular'" font-size="30">e</text>
		</g>
		<g clip-path="url(#SVGID_4_)">
			
				<text transform="matrix(1 0 0 1 740.6309 256.7949)" fill="none" stroke="#000000" stroke-width="0.0033" stroke-linecap="square" stroke-miterlimit="10" font-family="'Handlee-Regular'" font-size="30">e</text>
		</g>
		<g clip-path="url(#SVGID_4_)">
			<text transform="matrix(1 0 0 1 754.8213 256.7949)" font-family="'Handlee-Regular'" font-size="30">l</text>
		</g>
		<g clip-path="url(#SVGID_4_)">
			
				<text transform="matrix(1 0 0 1 754.8213 256.7949)" fill="none" stroke="#000000" stroke-width="0.0033" stroke-linecap="square" stroke-miterlimit="10" font-family="'Handlee-Regular'" font-size="30">l</text>
		</g>
		<g clip-path="url(#SVGID_4_)">
			<text transform="matrix(1 0 0 1 761.9609 256.7949)" font-family="'Handlee-Regular'" font-size="30">l</text>
		</g>
		<g clip-path="url(#SVGID_4_)">
			
				<text transform="matrix(1 0 0 1 761.9609 256.7949)" fill="none" stroke="#000000" stroke-width="0.0033" stroke-linecap="square" stroke-miterlimit="10" font-family="'Handlee-Regular'" font-size="30">l</text>
		</g>
		<g clip-path="url(#SVGID_4_)">
			<text transform="matrix(1 0 0 1 769.1016 256.7949)" font-family="'Handlee-Regular'" font-size="30">o</text>
		</g>
		<g clip-path="url(#SVGID_4_)">
			
				<text transform="matrix(1 0 0 1 769.1016 256.7949)" fill="none" stroke="#000000" stroke-width="0.0033" stroke-linecap="square" stroke-miterlimit="10" font-family="'Handlee-Regular'" font-size="30">o</text>
		</g>
		<g clip-path="url(#SVGID_4_)">
			<text transform="matrix(1 0 0 1 783.8018 256.7949)" font-family="'Handlee-Regular'" font-size="30"> </text>
		</g>
		<g clip-path="url(#SVGID_4_)">
			
				<text transform="matrix(1 0 0 1 783.8018 256.7949)" fill="none" stroke="#000000" stroke-width="0.0033" stroke-linecap="square" stroke-miterlimit="10" font-family="'Handlee-Regular'" font-size="30"> </text>
		</g>
		<g clip-path="url(#SVGID_4_)">
			<text transform="matrix(1 0 0 1 790.582 256.7949)" font-family="'Handlee-Regular'" font-size="30">y</text>
		</g>
		<g clip-path="url(#SVGID_4_)">
			
				<text transform="matrix(1 0 0 1 790.582 256.7949)" fill="none" stroke="#000000" stroke-width="0.0033" stroke-linecap="square" stroke-miterlimit="10" font-family="'Handlee-Regular'" font-size="30">y</text>
		</g>
		<g clip-path="url(#SVGID_4_)">
			<text transform="matrix(1 0 0 1 803.8418 256.7949)" font-family="'Handlee-Regular'" font-size="30"> </text>
		</g>
		<g clip-path="url(#SVGID_4_)">
			
				<text transform="matrix(1 0 0 1 803.8418 256.7949)" fill="none" stroke="#000000" stroke-width="0.0033" stroke-linecap="square" stroke-miterlimit="10" font-family="'Handlee-Regular'" font-size="30"> </text>
		</g>
		<g clip-path="url(#SVGID_4_)">
			<text transform="matrix(1 0 0 1 502.7441 292.7949)" font-family="'Handlee-Regular'" font-size="30">e</text>
		</g>
		<g clip-path="url(#SVGID_4_)">
			
				<text transform="matrix(1 0 0 1 502.7441 292.7949)" fill="none" stroke="#000000" stroke-width="0.0033" stroke-linecap="square" stroke-miterlimit="10" font-family="'Handlee-Regular'" font-size="30">e</text>
		</g>
		<g clip-path="url(#SVGID_4_)">
			<text transform="matrix(1 0 0 1 516.9346 292.7949)" font-family="'Handlee-Regular'" font-size="30">m</text>
		</g>
		<g clip-path="url(#SVGID_4_)">
			
				<text transform="matrix(1 0 0 1 516.9346 292.7949)" fill="none" stroke="#000000" stroke-width="0.0033" stroke-linecap="square" stroke-miterlimit="10" font-family="'Handlee-Regular'" font-size="30">m</text>
		</g>
		<g clip-path="url(#SVGID_4_)">
			<text transform="matrix(1 0 0 1 536.9736 292.7949)" font-family="'Handlee-Regular'" font-size="30">p</text>
		</g>
		<g clip-path="url(#SVGID_4_)">
			
				<text transform="matrix(1 0 0 1 536.9736 292.7949)" fill="none" stroke="#000000" stroke-width="0.0033" stroke-linecap="square" stroke-miterlimit="10" font-family="'Handlee-Regular'" font-size="30">p</text>
		</g>
		<g clip-path="url(#SVGID_4_)">
			<text transform="matrix(1 0 0 1 551.1035 292.7949)" font-family="'Handlee-Regular'" font-size="30">e</text>
		</g>
		<g clip-path="url(#SVGID_4_)">
			
				<text transform="matrix(1 0 0 1 551.1035 292.7949)" fill="none" stroke="#000000" stroke-width="0.0033" stroke-linecap="square" stroke-miterlimit="10" font-family="'Handlee-Regular'" font-size="30">e</text>
		</g>
		<g clip-path="url(#SVGID_4_)">
			<text transform="matrix(1 0 0 1 565.2939 292.7949)" font-family="'Handlee-Regular'" font-size="30">z</text>
		</g>
		<g clip-path="url(#SVGID_4_)">
			
				<text transform="matrix(1 0 0 1 565.2939 292.7949)" fill="none" stroke="#000000" stroke-width="0.0033" stroke-linecap="square" stroke-miterlimit="10" font-family="'Handlee-Regular'" font-size="30">z</text>
		</g>
		<g clip-path="url(#SVGID_4_)">
			<text transform="matrix(1 0 0 1 578.4941 292.7949)" font-family="'Handlee-Regular'" font-size="30">a</text>
		</g>
		<g clip-path="url(#SVGID_4_)">
			
				<text transform="matrix(1 0 0 1 578.4941 292.7949)" fill="none" stroke="#000000" stroke-width="0.0033" stroke-linecap="square" stroke-miterlimit="10" font-family="'Handlee-Regular'" font-size="30">a</text>
		</g>
		<g clip-path="url(#SVGID_4_)">
			<text transform="matrix(1 0 0 1 591.9639 292.7949)" font-family="'Handlee-Regular'" font-size="30">r</text>
		</g>
		<g clip-path="url(#SVGID_4_)">
			
				<text transform="matrix(1 0 0 1 591.9639 292.7949)" fill="none" stroke="#000000" stroke-width="0.0033" stroke-linecap="square" stroke-miterlimit="10" font-family="'Handlee-Regular'" font-size="30">r</text>
		</g>
		<g clip-path="url(#SVGID_4_)">
			<text transform="matrix(1 0 0 1 603.9043 292.7949)" font-family="'Handlee-Regular'" font-size="30"> </text>
		</g>
		<g clip-path="url(#SVGID_4_)">
			
				<text transform="matrix(1 0 0 1 603.9043 292.7949)" fill="none" stroke="#000000" stroke-width="0.0033" stroke-linecap="square" stroke-miterlimit="10" font-family="'Handlee-Regular'" font-size="30"> </text>
		</g>
		<g clip-path="url(#SVGID_4_)">
			<text transform="matrix(1 0 0 1 610.6846 292.7949)" font-family="'Handlee-Regular'" font-size="30">a</text>
		</g>
		<g clip-path="url(#SVGID_4_)">
			
				<text transform="matrix(1 0 0 1 610.6846 292.7949)" fill="none" stroke="#000000" stroke-width="0.0033" stroke-linecap="square" stroke-miterlimit="10" font-family="'Handlee-Regular'" font-size="30">a</text>
		</g>
		<g clip-path="url(#SVGID_4_)">
			<text transform="matrix(1 0 0 1 624.1543 292.7949)" font-family="'Handlee-Regular'" font-size="30"> </text>
		</g>
		<g clip-path="url(#SVGID_4_)">
			
				<text transform="matrix(1 0 0 1 624.1543 292.7949)" fill="none" stroke="#000000" stroke-width="0.0033" stroke-linecap="square" stroke-miterlimit="10" font-family="'Handlee-Regular'" font-size="30"> </text>
		</g>
		<g clip-path="url(#SVGID_4_)">
			<text transform="matrix(1 0 0 1 630.9346 292.7949)" font-family="'Handlee-Regular'" font-size="30">h</text>
		</g>
		<g clip-path="url(#SVGID_4_)">
			
				<text transform="matrix(1 0 0 1 630.9346 292.7949)" fill="none" stroke="#000000" stroke-width="0.0033" stroke-linecap="square" stroke-miterlimit="10" font-family="'Handlee-Regular'" font-size="30">h</text>
		</g>
		<g clip-path="url(#SVGID_4_)">
			<text transform="matrix(1 0 0 1 645.5742 292.7949)" font-family="'Handlee-Regular'" font-size="30">a</text>
		</g>
		<g clip-path="url(#SVGID_4_)">
			
				<text transform="matrix(1 0 0 1 645.5742 292.7949)" fill="none" stroke="#000000" stroke-width="0.0033" stroke-linecap="square" stroke-miterlimit="10" font-family="'Handlee-Regular'" font-size="30">a</text>
		</g>
		<g clip-path="url(#SVGID_4_)">
			<text transform="matrix(1 0 0 1 659.0449 292.7949)" font-family="'Handlee-Regular'" font-size="30">c</text>
		</g>
		<g clip-path="url(#SVGID_4_)">
			
				<text transform="matrix(1 0 0 1 659.0449 292.7949)" fill="none" stroke="#000000" stroke-width="0.0033" stroke-linecap="square" stroke-miterlimit="10" font-family="'Handlee-Regular'" font-size="30">c</text>
		</g>
		<g clip-path="url(#SVGID_4_)">
			<text transform="matrix(1 0 0 1 672.4248 292.7949)" font-family="'Handlee-Regular'" font-size="30">e</text>
		</g>
		<g clip-path="url(#SVGID_4_)">
			
				<text transform="matrix(1 0 0 1 672.4248 292.7949)" fill="none" stroke="#000000" stroke-width="0.0033" stroke-linecap="square" stroke-miterlimit="10" font-family="'Handlee-Regular'" font-size="30">e</text>
		</g>
		<g clip-path="url(#SVGID_4_)">
			<text transform="matrix(1 0 0 1 686.6143 292.7949)" font-family="'Handlee-Regular'" font-size="30">r</text>
		</g>
		<g clip-path="url(#SVGID_4_)">
			
				<text transform="matrix(1 0 0 1 686.6143 292.7949)" fill="none" stroke="#000000" stroke-width="0.0033" stroke-linecap="square" stroke-miterlimit="10" font-family="'Handlee-Regular'" font-size="30">r</text>
		</g>
		<g clip-path="url(#SVGID_4_)">
			<text transform="matrix(1 0 0 1 698.5547 292.7949)" font-family="'Handlee-Regular'" font-size="30">l</text>
		</g>
		<g clip-path="url(#SVGID_4_)">
			
				<text transform="matrix(1 0 0 1 698.5547 292.7949)" fill="none" stroke="#000000" stroke-width="0.0033" stroke-linecap="square" stroke-miterlimit="10" font-family="'Handlee-Regular'" font-size="30">l</text>
		</g>
		<g clip-path="url(#SVGID_4_)">
			<text transform="matrix(1 0 0 1 705.6943 292.7949)" font-family="'Handlee-Regular'" font-size="30">o</text>
		</g>
		<g clip-path="url(#SVGID_4_)">
			
				<text transform="matrix(1 0 0 1 705.6943 292.7949)" fill="none" stroke="#000000" stroke-width="0.0033" stroke-linecap="square" stroke-miterlimit="10" font-family="'Handlee-Regular'" font-size="30">o</text>
		</g>
		<g clip-path="url(#SVGID_4_)">
			<text transform="matrix(1 0 0 1 720.3955 292.7949)" font-family="'Handlee-Regular'" font-size="30">.</text>
		</g>
		<g clip-path="url(#SVGID_4_)">
			
				<text transform="matrix(1 0 0 1 720.3955 292.7949)" fill="none" stroke="#000000" stroke-width="0.0033" stroke-linecap="square" stroke-miterlimit="10" font-family="'Handlee-Regular'" font-size="30">.</text>
		</g>
		<g clip-path="url(#SVGID_4_)">
			<text transform="matrix(1 0 0 1 723.8145 292.7949)" font-family="'Handlee-Regular'" font-size="30">”</text>
		</g>
		<g clip-path="url(#SVGID_4_)">
			
				<text transform="matrix(1 0 0 1 723.8145 292.7949)" fill="none" stroke="#000000" stroke-width="0.0033" stroke-linecap="square" stroke-miterlimit="10" font-family="'Handlee-Regular'" font-size="30">”</text>
		</g>
		
			<rect x="436.256" y="316.339" opacity="0" clip-path="url(#SVGID_4_)" fill-rule="evenodd" clip-rule="evenodd" width="380.281" height="509.878"/>
		<g clip-path="url(#SVGID_4_)">
			<defs>
				<rect id="SVGID_17_" x="436.256" y="316.339" width="380.281" height="509.878"/>
			</defs>
			<clipPath id="SVGID_18_">
				<use xlink:href="#SVGID_17_"  overflow="visible"/>
			</clipPath>
			<g clip-path="url(#SVGID_18_)">
				<defs>
					<rect id="SVGID_19_" x="436.256" y="258.875" width="380.281" height="567.341"/>
				</defs>
				<clipPath id="SVGID_20_">
					<use xlink:href="#SVGID_19_"  overflow="visible"/>
				</clipPath>
				<g transform="matrix(1 0 0 1 3.788579e-005 1.647139e-005)" clip-path="url(#SVGID_20_)">
					
						<image overflow="visible" width="904" height="1280" xlink:href="3FFB3DC3.jpg"  transform="matrix(0.4207 0 0 0.4432 436.2559 258.8755)">
					</image>
				</g>
			</g>
		</g>
		
			<rect x="621.169" y="786.874" opacity="0" clip-path="url(#SVGID_4_)" fill-rule="evenodd" clip-rule="evenodd" width="198.65" height="31.685"/>
		<g clip-path="url(#SVGID_4_)">
			<defs>
				<rect id="SVGID_21_" x="621.169" y="786.874" width="198.65" height="31.685"/>
			</defs>
			<clipPath id="SVGID_22_">
				<use xlink:href="#SVGID_21_"  overflow="visible"/>
			</clipPath>
			<g clip-path="url(#SVGID_22_)">
				<defs>
					<rect id="SVGID_23_" x="621.169" y="786.874" width="198.65" height="31.685"/>
				</defs>
				<clipPath id="SVGID_24_">
					<use xlink:href="#SVGID_23_"  overflow="visible"/>
				</clipPath>
				<g transform="matrix(1 0 0 1 1.680857e-005 -3.932452e-005)" clip-path="url(#SVGID_24_)">
					
						<image overflow="visible" width="815" height="130" xlink:href="3FFB3DCD.png"  transform="matrix(0.2437 0 0 0.2437 621.1689 786.874)">
					</image>
				</g>
			</g>
		</g>
	</g>
</g>
</svg>
