<?xml version="1.0" encoding="utf-8"?>
<!-- Generator: Adobe Illustrator 16.0.3, SVG Export Plug-In . SVG Version: 6.00 Build 0)  -->
<!DOCTYPE svg PUBLIC "-//W3C//DTD SVG 1.1//EN" "http://www.w3.org/Graphics/SVG/1.1/DTD/svg11.dtd">
<svg version="1.1" id="Capa_1" xmlns="http://www.w3.org/2000/svg" xmlns:xlink="http://www.w3.org/1999/xlink" x="0px" y="0px"
	 width="841px" height="841px" viewBox="0 0 841 841" enable-background="new 0 0 841 841" xml:space="preserve">
<g>
	<defs>
		<rect id="SVGID_1_" width="841" height="841"/>
	</defs>
	<clipPath id="SVGID_2_">
		<use xlink:href="#SVGID_1_"  overflow="visible"/>
	</clipPath>
	<g clip-path="url(#SVGID_2_)">
		<defs>
			<rect id="SVGID_3_" width="841.89" height="841.89"/>
		</defs>
		<clipPath id="SVGID_4_">
			<use xlink:href="#SVGID_3_"  overflow="visible"/>
		</clipPath>
		<rect clip-path="url(#SVGID_4_)" fill-rule="evenodd" clip-rule="evenodd" fill="#FFFFFF" width="841.89" height="841.89"/>
		
			<rect x="403.333" clip-path="url(#SVGID_4_)" fill-rule="evenodd" clip-rule="evenodd" fill="#FAB518" width="438.567" height="841.89"/>
		
			<rect x="621.169" y="786.874" opacity="0" clip-path="url(#SVGID_4_)" fill-rule="evenodd" clip-rule="evenodd" width="198.65" height="31.685"/>
		<g clip-path="url(#SVGID_4_)">
			<defs>
				<rect id="SVGID_5_" x="621.169" y="786.874" width="198.65" height="31.685"/>
			</defs>
			<clipPath id="SVGID_6_">
				<use xlink:href="#SVGID_5_"  overflow="visible"/>
			</clipPath>
			<g clip-path="url(#SVGID_6_)">
				<defs>
					<rect id="SVGID_7_" x="621.169" y="786.874" width="198.65" height="31.685"/>
				</defs>
				<clipPath id="SVGID_8_">
					<use xlink:href="#SVGID_7_"  overflow="visible"/>
				</clipPath>
				<g transform="matrix(1 0 0 1 1.680857e-005 -3.932452e-005)" clip-path="url(#SVGID_8_)">
					
						<image overflow="visible" width="815" height="130" xlink:href="B9AE16A1.png"  transform="matrix(0.2437 0 0 0.2437 621.1689 786.874)">
					</image>
				</g>
			</g>
		</g>
		
			<rect x="498.306" y="31.567" opacity="0" clip-path="url(#SVGID_4_)" fill-rule="evenodd" clip-rule="evenodd" width="248.62" height="107.357"/>
		<g clip-path="url(#SVGID_4_)">
			<defs>
				<rect id="SVGID_9_" x="498.306" y="31.567" width="248.62" height="107.357"/>
			</defs>
			<clipPath id="SVGID_10_">
				<use xlink:href="#SVGID_9_"  overflow="visible"/>
			</clipPath>
			<g clip-path="url(#SVGID_10_)">
				<defs>
					<rect id="SVGID_11_" x="498.306" y="-32.847" width="248.62" height="248.606"/>
				</defs>
				<clipPath id="SVGID_12_">
					<use xlink:href="#SVGID_11_"  overflow="visible"/>
				</clipPath>
				<g transform="matrix(1 0 0 1 -1.433389e-005 6.895259e-007)" clip-path="url(#SVGID_12_)">
					
						<image overflow="visible" width="1080" height="1080" xlink:href="B9AE16A3.png"  transform="matrix(0.2302 0 0 0.2302 498.3057 -32.8472)">
					</image>
				</g>
			</g>
		</g>
		
			<rect x="420.575" y="167.25" opacity="0" clip-path="url(#SVGID_4_)" fill-rule="evenodd" clip-rule="evenodd" width="401.362" height="497.882"/>
		<g clip-path="url(#SVGID_4_)">
			<text transform="matrix(1 0 0 1 526.6904 197.0396)"><tspan x="0" y="0" fill="#FFFFFF" font-family="'Corbel-Bold'" font-size="24">PLANIFIC</tspan><tspan x="100.324" y="0" fill="#FFFFFF" font-family="'Corbel-Bold'" font-size="24">A</tspan><tspan x="115.882" y="0" fill="#FFFFFF" font-family="'Corbel-Bold'" font-size="24">CIÓN</tspan><tspan x="171.616" y="0" fill="#FFFFFF" font-family="'Corbel-Bold'" font-size="24" letter-spacing="-2"> </tspan><tspan x="173.945" y="0" fill="#FFFFFF" font-family="'Corbel-Bold'" font-size="24">Y</tspan></text>
		</g>
		<g clip-path="url(#SVGID_4_)">
			<text transform="matrix(1 0 0 1 503.1885 225.8389)"><tspan x="0" y="0" fill="#FFFFFF" font-family="'Corbel-Bold'" font-size="24">GESTIÓN DEL</tspan><tspan x="147.023" y="0" fill="#FFFFFF" font-family="'Corbel-Bold'" font-size="24" letter-spacing="-1"> </tspan><tspan x="150.337" y="0" fill="#FFFFFF" font-family="'Corbel-Bold'" font-size="24">TIEMPO</tspan></text>
		</g>
		<g clip-path="url(#SVGID_4_)">
			<text transform="matrix(1 0 0 1 568.7959 254.6401)"><tspan x="0" y="0" fill="#FFFFFF" font-family="'Corbel-Bold'" font-size="24">[</tspan><tspan x="7.57" y="0" fill="#FFFFFF" font-family="'Corbel-Bold'" font-size="24">0</tspan><tspan x="19.478" y="0" fill="#FFFFFF" font-family="'Corbel-Bold'" font-size="24">2 Horas]</tspan></text>
		</g>
		<g clip-path="url(#SVGID_4_)">
			<text transform="matrix(1 0 0 1 440.9619 312.2393)" fill="#FFFFFF" font-family="'Corbel'" font-size="24">El tiempo es uno de los recursos más </text>
		</g>
		<g clip-path="url(#SVGID_4_)">
			<text transform="matrix(1 0 0 1 455.2119 341.0396)" fill="#FFFFFF" font-family="'Corbel'" font-size="24">importantes y todo profesional se </text>
		</g>
		<g clip-path="url(#SVGID_4_)">
			<text transform="matrix(1 0 0 1 476.3584 369.8389)" fill="#FFFFFF" font-family="'Corbel'" font-size="24">enfrenta a la problemática de </text>
		</g>
		<g clip-path="url(#SVGID_4_)">
			<text transform="matrix(1 0 0 1 439.6846 398.6396)"><tspan x="0" y="0" fill="#FFFFFF" font-family="'Corbel'" font-size="24">administrarlo </tspan><tspan x="137.32" y="0" fill="#FFFFFF" font-family="'Corbel'" font-size="24">¿</tspan><tspan x="146.975" y="0" fill="#FFFFFF" font-family="'Corbel'" font-size="24">Qué genera más valor </tspan></text>
		</g>
		<g clip-path="url(#SVGID_4_)">
			<text transform="matrix(1 0 0 1 481.0342 427.4395)" fill="#FFFFFF" font-family="'Corbel'" font-size="24">realizar y en qué momento?. </text>
		</g>
		<g clip-path="url(#SVGID_4_)">
			<text transform="matrix(1 0 0 1 453.3193 485.04)" fill="#FFFFFF" font-family="'Corbel'" font-size="24">El participante aprenderá técnicas </text>
		</g>
		<g clip-path="url(#SVGID_4_)">
			<text transform="matrix(1 0 0 1 437.2998 513.8398)" fill="#FFFFFF" font-family="'Corbel'" font-size="24">concretas de priorización y formas de </text>
		</g>
		<g clip-path="url(#SVGID_4_)">
			<text transform="matrix(1 0 0 1 452.6631 542.6387)" fill="#FFFFFF" font-family="'Corbel'" font-size="24">organizar su día a día para ser más </text>
		</g>
		<g clip-path="url(#SVGID_4_)">
			<text transform="matrix(1 0 0 1 575.2002 571.4395)" fill="#FFFFFF" font-family="'Corbel'" font-size="24">eﬁciente. </text>
		</g>
		
			<rect x="13.935" y="70.801" opacity="0" clip-path="url(#SVGID_4_)" fill-rule="evenodd" clip-rule="evenodd" width="401.362" height="66.472"/>
		<g clip-path="url(#SVGID_4_)">
			<text transform="matrix(1 0 0 1 73.4985 112.1108)"><tspan x="0" y="0" font-family="'Corbel-Bold'" font-size="36">Mes: N</tspan><tspan x="107.596" y="0" font-family="'Corbel-Bold'" font-size="36">O</tspan><tspan x="133.709" y="0" font-family="'Corbel-Bold'" font-size="36">VIEMBRE</tspan></text>
		</g>
		
			<rect x="621.169" y="786.874" opacity="0" clip-path="url(#SVGID_4_)" fill-rule="evenodd" clip-rule="evenodd" width="198.65" height="31.685"/>
		<g clip-path="url(#SVGID_4_)">
			<defs>
				<rect id="SVGID_13_" x="621.169" y="786.874" width="198.65" height="31.685"/>
			</defs>
			<clipPath id="SVGID_14_">
				<use xlink:href="#SVGID_13_"  overflow="visible"/>
			</clipPath>
			<g clip-path="url(#SVGID_14_)">
				<defs>
					<rect id="SVGID_15_" x="621.169" y="786.874" width="198.65" height="31.685"/>
				</defs>
				<clipPath id="SVGID_16_">
					<use xlink:href="#SVGID_15_"  overflow="visible"/>
				</clipPath>
				<g transform="matrix(1 0 0 1 1.680857e-005 -3.932452e-005)" clip-path="url(#SVGID_16_)">
					
						<image overflow="visible" width="815" height="130" xlink:href="B9AE16A6.png"  transform="matrix(0.2437 0 0 0.2437 621.1689 786.874)">
					</image>
				</g>
			</g>
		</g>
		
			<rect x="13.935" y="185.246" opacity="0" clip-path="url(#SVGID_4_)" fill-rule="evenodd" clip-rule="evenodd" width="379.606" height="159.992"/>
		<g clip-path="url(#SVGID_4_)">
			<text transform="matrix(1 0 0 1 29.0776 220.7949)" font-family="'Handlee-Regular'" font-size="30">“</text>
		</g>
		<g clip-path="url(#SVGID_4_)">
			
				<text transform="matrix(1 0 0 1 29.0776 220.7949)" fill="none" stroke="#000000" stroke-width="0.0033" stroke-linecap="square" stroke-miterlimit="10" font-family="'Handlee-Regular'" font-size="30">“</text>
		</g>
		<g clip-path="url(#SVGID_4_)">
			<text transform="matrix(1 0 0 1 38.978 220.7949)" font-family="'Handlee-Regular'" font-size="30">M</text>
		</g>
		<g clip-path="url(#SVGID_4_)">
			
				<text transform="matrix(1 0 0 1 38.978 220.7949)" fill="none" stroke="#000000" stroke-width="0.0033" stroke-linecap="square" stroke-miterlimit="10" font-family="'Handlee-Regular'" font-size="30">M</text>
		</g>
		<g clip-path="url(#SVGID_4_)">
			<text transform="matrix(1 0 0 1 64.5376 220.7949)" font-family="'Handlee-Regular'" font-size="30">u</text>
		</g>
		<g clip-path="url(#SVGID_4_)">
			
				<text transform="matrix(1 0 0 1 64.5376 220.7949)" fill="none" stroke="#000000" stroke-width="0.0033" stroke-linecap="square" stroke-miterlimit="10" font-family="'Handlee-Regular'" font-size="30">u</text>
		</g>
		<g clip-path="url(#SVGID_4_)">
			<text transform="matrix(1 0 0 1 78.2773 220.7949)" font-family="'Handlee-Regular'" font-size="30">c</text>
		</g>
		<g clip-path="url(#SVGID_4_)">
			
				<text transform="matrix(1 0 0 1 78.2773 220.7949)" fill="none" stroke="#000000" stroke-width="0.0033" stroke-linecap="square" stroke-miterlimit="10" font-family="'Handlee-Regular'" font-size="30">c</text>
		</g>
		<g clip-path="url(#SVGID_4_)">
			<text transform="matrix(1 0 0 1 91.6572 220.7949)" font-family="'Handlee-Regular'" font-size="30">h</text>
		</g>
		<g clip-path="url(#SVGID_4_)">
			
				<text transform="matrix(1 0 0 1 91.6572 220.7949)" fill="none" stroke="#000000" stroke-width="0.0033" stroke-linecap="square" stroke-miterlimit="10" font-family="'Handlee-Regular'" font-size="30">h</text>
		</g>
		<g clip-path="url(#SVGID_4_)">
			<text transform="matrix(1 0 0 1 106.2979 220.7949)" font-family="'Handlee-Regular'" font-size="30">a</text>
		</g>
		<g clip-path="url(#SVGID_4_)">
			
				<text transform="matrix(1 0 0 1 106.2979 220.7949)" fill="none" stroke="#000000" stroke-width="0.0033" stroke-linecap="square" stroke-miterlimit="10" font-family="'Handlee-Regular'" font-size="30">a</text>
		</g>
		<g clip-path="url(#SVGID_4_)">
			<text transform="matrix(1 0 0 1 119.7676 220.7949)" font-family="'Handlee-Regular'" font-size="30">s</text>
		</g>
		<g clip-path="url(#SVGID_4_)">
			
				<text transform="matrix(1 0 0 1 119.7676 220.7949)" fill="none" stroke="#000000" stroke-width="0.0033" stroke-linecap="square" stroke-miterlimit="10" font-family="'Handlee-Regular'" font-size="30">s</text>
		</g>
		<g clip-path="url(#SVGID_4_)">
			<text transform="matrix(1 0 0 1 132.8481 220.7949)" font-family="'Handlee-Regular'" font-size="30"> </text>
		</g>
		<g clip-path="url(#SVGID_4_)">
			
				<text transform="matrix(1 0 0 1 132.8481 220.7949)" fill="none" stroke="#000000" stroke-width="0.0033" stroke-linecap="square" stroke-miterlimit="10" font-family="'Handlee-Regular'" font-size="30"> </text>
		</g>
		<g clip-path="url(#SVGID_4_)">
			<text transform="matrix(1 0 0 1 139.6279 220.7949)" font-family="'Handlee-Regular'" font-size="30">c</text>
		</g>
		<g clip-path="url(#SVGID_4_)">
			
				<text transform="matrix(1 0 0 1 139.6279 220.7949)" fill="none" stroke="#000000" stroke-width="0.0033" stroke-linecap="square" stroke-miterlimit="10" font-family="'Handlee-Regular'" font-size="30">c</text>
		</g>
		<g clip-path="url(#SVGID_4_)">
			<text transform="matrix(1 0 0 1 153.0078 220.7949)" font-family="'Handlee-Regular'" font-size="30">o</text>
		</g>
		<g clip-path="url(#SVGID_4_)">
			
				<text transform="matrix(1 0 0 1 153.0078 220.7949)" fill="none" stroke="#000000" stroke-width="0.0033" stroke-linecap="square" stroke-miterlimit="10" font-family="'Handlee-Regular'" font-size="30">o</text>
		</g>
		<g clip-path="url(#SVGID_4_)">
			<text transform="matrix(1 0 0 1 167.708 220.7949)" font-family="'Handlee-Regular'" font-size="30">m</text>
		</g>
		<g clip-path="url(#SVGID_4_)">
			
				<text transform="matrix(1 0 0 1 167.708 220.7949)" fill="none" stroke="#000000" stroke-width="0.0033" stroke-linecap="square" stroke-miterlimit="10" font-family="'Handlee-Regular'" font-size="30">m</text>
		</g>
		<g clip-path="url(#SVGID_4_)">
			<text transform="matrix(1 0 0 1 187.748 220.7949)" font-family="'Handlee-Regular'" font-size="30">p</text>
		</g>
		<g clip-path="url(#SVGID_4_)">
			
				<text transform="matrix(1 0 0 1 187.748 220.7949)" fill="none" stroke="#000000" stroke-width="0.0033" stroke-linecap="square" stroke-miterlimit="10" font-family="'Handlee-Regular'" font-size="30">p</text>
		</g>
		<g clip-path="url(#SVGID_4_)">
			<text transform="matrix(1 0 0 1 201.8779 220.7949)" font-family="'Handlee-Regular'" font-size="30">a</text>
		</g>
		<g clip-path="url(#SVGID_4_)">
			
				<text transform="matrix(1 0 0 1 201.8779 220.7949)" fill="none" stroke="#000000" stroke-width="0.0033" stroke-linecap="square" stroke-miterlimit="10" font-family="'Handlee-Regular'" font-size="30">a</text>
		</g>
		<g clip-path="url(#SVGID_4_)">
			<text transform="matrix(1 0 0 1 215.3481 220.7949)" font-family="'Handlee-Regular'" font-size="30">ñ</text>
		</g>
		<g clip-path="url(#SVGID_4_)">
			
				<text transform="matrix(1 0 0 1 215.3481 220.7949)" fill="none" stroke="#000000" stroke-width="0.0033" stroke-linecap="square" stroke-miterlimit="10" font-family="'Handlee-Regular'" font-size="30">ñ</text>
		</g>
		<g clip-path="url(#SVGID_4_)">
			<text transform="matrix(1 0 0 1 229.6279 220.7949)" font-family="'Handlee-Regular'" font-size="30">í</text>
		</g>
		<g clip-path="url(#SVGID_4_)">
			
				<text transform="matrix(1 0 0 1 229.6279 220.7949)" fill="none" stroke="#000000" stroke-width="0.0033" stroke-linecap="square" stroke-miterlimit="10" font-family="'Handlee-Regular'" font-size="30">í</text>
		</g>
		<g clip-path="url(#SVGID_4_)">
			<text transform="matrix(1 0 0 1 235.6279 220.7949)" font-family="'Handlee-Regular'" font-size="30">a</text>
		</g>
		<g clip-path="url(#SVGID_4_)">
			
				<text transform="matrix(1 0 0 1 235.6279 220.7949)" fill="none" stroke="#000000" stroke-width="0.0033" stroke-linecap="square" stroke-miterlimit="10" font-family="'Handlee-Regular'" font-size="30">a</text>
		</g>
		<g clip-path="url(#SVGID_4_)">
			<text transform="matrix(1 0 0 1 249.0981 220.7949)" font-family="'Handlee-Regular'" font-size="30">s</text>
		</g>
		<g clip-path="url(#SVGID_4_)">
			
				<text transform="matrix(1 0 0 1 249.0981 220.7949)" fill="none" stroke="#000000" stroke-width="0.0033" stroke-linecap="square" stroke-miterlimit="10" font-family="'Handlee-Regular'" font-size="30">s</text>
		</g>
		<g clip-path="url(#SVGID_4_)">
			<text transform="matrix(1 0 0 1 262.1782 220.7949)" font-family="'Handlee-Regular'" font-size="30"> </text>
		</g>
		<g clip-path="url(#SVGID_4_)">
			
				<text transform="matrix(1 0 0 1 262.1782 220.7949)" fill="none" stroke="#000000" stroke-width="0.0033" stroke-linecap="square" stroke-miterlimit="10" font-family="'Handlee-Regular'" font-size="30"> </text>
		</g>
		<g clip-path="url(#SVGID_4_)">
			<text transform="matrix(1 0 0 1 268.958 220.7949)" font-family="'Handlee-Regular'" font-size="30">n</text>
		</g>
		<g clip-path="url(#SVGID_4_)">
			
				<text transform="matrix(1 0 0 1 268.958 220.7949)" fill="none" stroke="#000000" stroke-width="0.0033" stroke-linecap="square" stroke-miterlimit="10" font-family="'Handlee-Regular'" font-size="30">n</text>
		</g>
		<g clip-path="url(#SVGID_4_)">
			<text transform="matrix(1 0 0 1 283.2383 220.7949)" font-family="'Handlee-Regular'" font-size="30">o</text>
		</g>
		<g clip-path="url(#SVGID_4_)">
			
				<text transform="matrix(1 0 0 1 283.2383 220.7949)" fill="none" stroke="#000000" stroke-width="0.0033" stroke-linecap="square" stroke-miterlimit="10" font-family="'Handlee-Regular'" font-size="30">o</text>
		</g>
		<g clip-path="url(#SVGID_4_)">
			<text transform="matrix(1 0 0 1 297.938 220.7949)" font-family="'Handlee-Regular'" font-size="30"> </text>
		</g>
		<g clip-path="url(#SVGID_4_)">
			
				<text transform="matrix(1 0 0 1 297.938 220.7949)" fill="none" stroke="#000000" stroke-width="0.0033" stroke-linecap="square" stroke-miterlimit="10" font-family="'Handlee-Regular'" font-size="30"> </text>
		</g>
		<g clip-path="url(#SVGID_4_)">
			<text transform="matrix(1 0 0 1 304.7183 220.7949)" font-family="'Handlee-Regular'" font-size="30">t</text>
		</g>
		<g clip-path="url(#SVGID_4_)">
			
				<text transform="matrix(1 0 0 1 304.7183 220.7949)" fill="none" stroke="#000000" stroke-width="0.0033" stroke-linecap="square" stroke-miterlimit="10" font-family="'Handlee-Regular'" font-size="30">t</text>
		</g>
		<g clip-path="url(#SVGID_4_)">
			<text transform="matrix(1 0 0 1 315.458 220.7949)" font-family="'Handlee-Regular'" font-size="30">i</text>
		</g>
		<g clip-path="url(#SVGID_4_)">
			
				<text transform="matrix(1 0 0 1 315.458 220.7949)" fill="none" stroke="#000000" stroke-width="0.0033" stroke-linecap="square" stroke-miterlimit="10" font-family="'Handlee-Regular'" font-size="30">i</text>
		</g>
		<g clip-path="url(#SVGID_4_)">
			<text transform="matrix(1 0 0 1 321.458 220.7949)" font-family="'Handlee-Regular'" font-size="30">e</text>
		</g>
		<g clip-path="url(#SVGID_4_)">
			
				<text transform="matrix(1 0 0 1 321.458 220.7949)" fill="none" stroke="#000000" stroke-width="0.0033" stroke-linecap="square" stroke-miterlimit="10" font-family="'Handlee-Regular'" font-size="30">e</text>
		</g>
		<g clip-path="url(#SVGID_4_)">
			<text transform="matrix(1 0 0 1 335.6479 220.7949)" font-family="'Handlee-Regular'" font-size="30">n</text>
		</g>
		<g clip-path="url(#SVGID_4_)">
			
				<text transform="matrix(1 0 0 1 335.6479 220.7949)" fill="none" stroke="#000000" stroke-width="0.0033" stroke-linecap="square" stroke-miterlimit="10" font-family="'Handlee-Regular'" font-size="30">n</text>
		</g>
		<g clip-path="url(#SVGID_4_)">
			<text transform="matrix(1 0 0 1 349.9277 220.7949)" font-family="'Handlee-Regular'" font-size="30">e</text>
		</g>
		<g clip-path="url(#SVGID_4_)">
			
				<text transform="matrix(1 0 0 1 349.9277 220.7949)" fill="none" stroke="#000000" stroke-width="0.0033" stroke-linecap="square" stroke-miterlimit="10" font-family="'Handlee-Regular'" font-size="30">e</text>
		</g>
		<g clip-path="url(#SVGID_4_)">
			<text transform="matrix(1 0 0 1 364.1187 220.7949)" font-family="'Handlee-Regular'" font-size="30">n</text>
		</g>
		<g clip-path="url(#SVGID_4_)">
			
				<text transform="matrix(1 0 0 1 364.1187 220.7949)" fill="none" stroke="#000000" stroke-width="0.0033" stroke-linecap="square" stroke-miterlimit="10" font-family="'Handlee-Regular'" font-size="30">n</text>
		</g>
		<g clip-path="url(#SVGID_4_)">
			<text transform="matrix(1 0 0 1 378.3979 220.7949)" font-family="'Handlee-Regular'" font-size="30"> </text>
		</g>
		<g clip-path="url(#SVGID_4_)">
			
				<text transform="matrix(1 0 0 1 378.3979 220.7949)" fill="none" stroke="#000000" stroke-width="0.0033" stroke-linecap="square" stroke-miterlimit="10" font-family="'Handlee-Regular'" font-size="30"> </text>
		</g>
		<g clip-path="url(#SVGID_4_)">
			<text transform="matrix(1 0 0 1 47.4678 256.7949)" font-family="'Handlee-Regular'" font-size="30">é</text>
		</g>
		<g clip-path="url(#SVGID_4_)">
			
				<text transform="matrix(1 0 0 1 47.4678 256.7949)" fill="none" stroke="#000000" stroke-width="0.0033" stroke-linecap="square" stroke-miterlimit="10" font-family="'Handlee-Regular'" font-size="30">é</text>
		</g>
		<g clip-path="url(#SVGID_4_)">
			<text transform="matrix(1 0 0 1 61.6582 256.7949)" font-family="'Handlee-Regular'" font-size="30">x</text>
		</g>
		<g clip-path="url(#SVGID_4_)">
			
				<text transform="matrix(1 0 0 1 61.6582 256.7949)" fill="none" stroke="#000000" stroke-width="0.0033" stroke-linecap="square" stroke-miterlimit="10" font-family="'Handlee-Regular'" font-size="30">x</text>
		</g>
		<g clip-path="url(#SVGID_4_)">
			<text transform="matrix(1 0 0 1 73.2681 256.7949)" font-family="'Handlee-Regular'" font-size="30">i</text>
		</g>
		<g clip-path="url(#SVGID_4_)">
			
				<text transform="matrix(1 0 0 1 73.2681 256.7949)" fill="none" stroke="#000000" stroke-width="0.0033" stroke-linecap="square" stroke-miterlimit="10" font-family="'Handlee-Regular'" font-size="30">i</text>
		</g>
		<g clip-path="url(#SVGID_4_)">
			<text transform="matrix(1 0 0 1 79.2676 256.7949)" font-family="'Handlee-Regular'" font-size="30">t</text>
		</g>
		<g clip-path="url(#SVGID_4_)">
			
				<text transform="matrix(1 0 0 1 79.2676 256.7949)" fill="none" stroke="#000000" stroke-width="0.0033" stroke-linecap="square" stroke-miterlimit="10" font-family="'Handlee-Regular'" font-size="30">t</text>
		</g>
		<g clip-path="url(#SVGID_4_)">
			<text transform="matrix(1 0 0 1 90.0078 256.7949)" font-family="'Handlee-Regular'" font-size="30">o</text>
		</g>
		<g clip-path="url(#SVGID_4_)">
			
				<text transform="matrix(1 0 0 1 90.0078 256.7949)" fill="none" stroke="#000000" stroke-width="0.0033" stroke-linecap="square" stroke-miterlimit="10" font-family="'Handlee-Regular'" font-size="30">o</text>
		</g>
		<g clip-path="url(#SVGID_4_)">
			<text transform="matrix(1 0 0 1 104.708 256.7949)" font-family="'Handlee-Regular'" font-size="30"> </text>
		</g>
		<g clip-path="url(#SVGID_4_)">
			
				<text transform="matrix(1 0 0 1 104.708 256.7949)" fill="none" stroke="#000000" stroke-width="0.0033" stroke-linecap="square" stroke-miterlimit="10" font-family="'Handlee-Regular'" font-size="30"> </text>
		</g>
		<g clip-path="url(#SVGID_4_)">
			<text transform="matrix(1 0 0 1 111.4883 256.7949)" font-family="'Handlee-Regular'" font-size="30">c</text>
		</g>
		<g clip-path="url(#SVGID_4_)">
			
				<text transform="matrix(1 0 0 1 111.4883 256.7949)" fill="none" stroke="#000000" stroke-width="0.0033" stroke-linecap="square" stroke-miterlimit="10" font-family="'Handlee-Regular'" font-size="30">c</text>
		</g>
		<g clip-path="url(#SVGID_4_)">
			<text transform="matrix(1 0 0 1 124.8682 256.7949)" font-family="'Handlee-Regular'" font-size="30">o</text>
		</g>
		<g clip-path="url(#SVGID_4_)">
			
				<text transform="matrix(1 0 0 1 124.8682 256.7949)" fill="none" stroke="#000000" stroke-width="0.0033" stroke-linecap="square" stroke-miterlimit="10" font-family="'Handlee-Regular'" font-size="30">o</text>
		</g>
		<g clip-path="url(#SVGID_4_)">
			<text transform="matrix(1 0 0 1 139.5679 256.7949)" font-family="'Handlee-Regular'" font-size="30">n</text>
		</g>
		<g clip-path="url(#SVGID_4_)">
			
				<text transform="matrix(1 0 0 1 139.5679 256.7949)" fill="none" stroke="#000000" stroke-width="0.0033" stroke-linecap="square" stroke-miterlimit="10" font-family="'Handlee-Regular'" font-size="30">n</text>
		</g>
		<g clip-path="url(#SVGID_4_)">
			<text transform="matrix(1 0 0 1 153.8481 256.7949)" font-family="'Handlee-Regular'" font-size="30"> </text>
		</g>
		<g clip-path="url(#SVGID_4_)">
			
				<text transform="matrix(1 0 0 1 153.8481 256.7949)" fill="none" stroke="#000000" stroke-width="0.0033" stroke-linecap="square" stroke-miterlimit="10" font-family="'Handlee-Regular'" font-size="30"> </text>
		</g>
		<g clip-path="url(#SVGID_4_)">
			<text transform="matrix(1 0 0 1 160.6279 256.7949)" font-family="'Handlee-Regular'" font-size="30">d</text>
		</g>
		<g clip-path="url(#SVGID_4_)">
			
				<text transform="matrix(1 0 0 1 160.6279 256.7949)" fill="none" stroke="#000000" stroke-width="0.0033" stroke-linecap="square" stroke-miterlimit="10" font-family="'Handlee-Regular'" font-size="30">d</text>
		</g>
		<g clip-path="url(#SVGID_4_)">
			<text transform="matrix(1 0 0 1 174.8184 256.7949)" font-family="'Handlee-Regular'" font-size="30">e</text>
		</g>
		<g clip-path="url(#SVGID_4_)">
			
				<text transform="matrix(1 0 0 1 174.8184 256.7949)" fill="none" stroke="#000000" stroke-width="0.0033" stroke-linecap="square" stroke-miterlimit="10" font-family="'Handlee-Regular'" font-size="30">e</text>
		</g>
		<g clip-path="url(#SVGID_4_)">
			<text transform="matrix(1 0 0 1 189.0083 256.7949)" font-family="'Handlee-Regular'" font-size="30">l</text>
		</g>
		<g clip-path="url(#SVGID_4_)">
			
				<text transform="matrix(1 0 0 1 189.0083 256.7949)" fill="none" stroke="#000000" stroke-width="0.0033" stroke-linecap="square" stroke-miterlimit="10" font-family="'Handlee-Regular'" font-size="30">l</text>
		</g>
		<g clip-path="url(#SVGID_4_)">
			<text transform="matrix(1 0 0 1 196.1489 256.7949)" font-family="'Handlee-Regular'" font-size="30"> </text>
		</g>
		<g clip-path="url(#SVGID_4_)">
			
				<text transform="matrix(1 0 0 1 196.1489 256.7949)" fill="none" stroke="#000000" stroke-width="0.0033" stroke-linecap="square" stroke-miterlimit="10" font-family="'Handlee-Regular'" font-size="30"> </text>
		</g>
		<g clip-path="url(#SVGID_4_)">
			<text transform="matrix(1 0 0 1 202.9287 256.7949)" font-family="'Handlee-Regular'" font-size="30">t</text>
		</g>
		<g clip-path="url(#SVGID_4_)">
			
				<text transform="matrix(1 0 0 1 202.9287 256.7949)" fill="none" stroke="#000000" stroke-width="0.0033" stroke-linecap="square" stroke-miterlimit="10" font-family="'Handlee-Regular'" font-size="30">t</text>
		</g>
		<g clip-path="url(#SVGID_4_)">
			<text transform="matrix(1 0 0 1 213.6685 256.7949)" font-family="'Handlee-Regular'" font-size="30">i</text>
		</g>
		<g clip-path="url(#SVGID_4_)">
			
				<text transform="matrix(1 0 0 1 213.6685 256.7949)" fill="none" stroke="#000000" stroke-width="0.0033" stroke-linecap="square" stroke-miterlimit="10" font-family="'Handlee-Regular'" font-size="30">i</text>
		</g>
		<g clip-path="url(#SVGID_4_)">
			<text transform="matrix(1 0 0 1 219.6685 256.7949)" font-family="'Handlee-Regular'" font-size="30">e</text>
		</g>
		<g clip-path="url(#SVGID_4_)">
			
				<text transform="matrix(1 0 0 1 219.6685 256.7949)" fill="none" stroke="#000000" stroke-width="0.0033" stroke-linecap="square" stroke-miterlimit="10" font-family="'Handlee-Regular'" font-size="30">e</text>
		</g>
		<g clip-path="url(#SVGID_4_)">
			<text transform="matrix(1 0 0 1 233.8589 256.7949)" font-family="'Handlee-Regular'" font-size="30">m</text>
		</g>
		<g clip-path="url(#SVGID_4_)">
			
				<text transform="matrix(1 0 0 1 233.8589 256.7949)" fill="none" stroke="#000000" stroke-width="0.0033" stroke-linecap="square" stroke-miterlimit="10" font-family="'Handlee-Regular'" font-size="30">m</text>
		</g>
		<g clip-path="url(#SVGID_4_)">
			<text transform="matrix(1 0 0 1 253.8989 256.7949)" font-family="'Handlee-Regular'" font-size="30">p</text>
		</g>
		<g clip-path="url(#SVGID_4_)">
			
				<text transform="matrix(1 0 0 1 253.8989 256.7949)" fill="none" stroke="#000000" stroke-width="0.0033" stroke-linecap="square" stroke-miterlimit="10" font-family="'Handlee-Regular'" font-size="30">p</text>
		</g>
		<g clip-path="url(#SVGID_4_)">
			<text transform="matrix(1 0 0 1 268.0288 256.7949)" font-family="'Handlee-Regular'" font-size="30">o</text>
		</g>
		<g clip-path="url(#SVGID_4_)">
			
				<text transform="matrix(1 0 0 1 268.0288 256.7949)" fill="none" stroke="#000000" stroke-width="0.0033" stroke-linecap="square" stroke-miterlimit="10" font-family="'Handlee-Regular'" font-size="30">o</text>
		</g>
		<g clip-path="url(#SVGID_4_)">
			<text transform="matrix(1 0 0 1 282.7285 256.7949)" font-family="'Handlee-Regular'" font-size="30">.</text>
		</g>
		<g clip-path="url(#SVGID_4_)">
			
				<text transform="matrix(1 0 0 1 282.7285 256.7949)" fill="none" stroke="#000000" stroke-width="0.0033" stroke-linecap="square" stroke-miterlimit="10" font-family="'Handlee-Regular'" font-size="30">.</text>
		</g>
		<g clip-path="url(#SVGID_4_)">
			<text transform="matrix(1 0 0 1 289.5088 256.7949)" font-family="'Handlee-Regular'" font-size="30"> </text>
		</g>
		<g clip-path="url(#SVGID_4_)">
			
				<text transform="matrix(1 0 0 1 289.5088 256.7949)" fill="none" stroke="#000000" stroke-width="0.0033" stroke-linecap="square" stroke-miterlimit="10" font-family="'Handlee-Regular'" font-size="30"> </text>
		</g>
		<g clip-path="url(#SVGID_4_)">
			<text transform="matrix(1 0 0 1 296.2886 256.7949)" font-family="'Handlee-Regular'" font-size="30">¿</text>
		</g>
		<g clip-path="url(#SVGID_4_)">
			
				<text transform="matrix(1 0 0 1 296.2886 256.7949)" fill="none" stroke="#000000" stroke-width="0.0033" stroke-linecap="square" stroke-miterlimit="10" font-family="'Handlee-Regular'" font-size="30">¿</text>
		</g>
		<g clip-path="url(#SVGID_4_)">
			<text transform="matrix(1 0 0 1 308.6479 256.7949)" font-family="'Handlee-Regular'" font-size="30">Q</text>
		</g>
		<g clip-path="url(#SVGID_4_)">
			
				<text transform="matrix(1 0 0 1 308.6479 256.7949)" fill="none" stroke="#000000" stroke-width="0.0033" stroke-linecap="square" stroke-miterlimit="10" font-family="'Handlee-Regular'" font-size="30">Q</text>
		</g>
		<g clip-path="url(#SVGID_4_)">
			<text transform="matrix(1 0 0 1 332.1079 256.7949)" font-family="'Handlee-Regular'" font-size="30">u</text>
		</g>
		<g clip-path="url(#SVGID_4_)">
			
				<text transform="matrix(1 0 0 1 332.1079 256.7949)" fill="none" stroke="#000000" stroke-width="0.0033" stroke-linecap="square" stroke-miterlimit="10" font-family="'Handlee-Regular'" font-size="30">u</text>
		</g>
		<g clip-path="url(#SVGID_4_)">
			<text transform="matrix(1 0 0 1 345.8477 256.7949)" font-family="'Handlee-Regular'" font-size="30">é</text>
		</g>
		<g clip-path="url(#SVGID_4_)">
			
				<text transform="matrix(1 0 0 1 345.8477 256.7949)" fill="none" stroke="#000000" stroke-width="0.0033" stroke-linecap="square" stroke-miterlimit="10" font-family="'Handlee-Regular'" font-size="30">é</text>
		</g>
		<g clip-path="url(#SVGID_4_)">
			<text transform="matrix(1 0 0 1 360.0381 256.7949)" font-family="'Handlee-Regular'" font-size="30"> </text>
		</g>
		<g clip-path="url(#SVGID_4_)">
			
				<text transform="matrix(1 0 0 1 360.0381 256.7949)" fill="none" stroke="#000000" stroke-width="0.0033" stroke-linecap="square" stroke-miterlimit="10" font-family="'Handlee-Regular'" font-size="30"> </text>
		</g>
		<g clip-path="url(#SVGID_4_)">
			<text transform="matrix(1 0 0 1 52.3877 292.7949)" font-family="'Handlee-Regular'" font-size="30">h</text>
		</g>
		<g clip-path="url(#SVGID_4_)">
			
				<text transform="matrix(1 0 0 1 52.3877 292.7949)" fill="none" stroke="#000000" stroke-width="0.0033" stroke-linecap="square" stroke-miterlimit="10" font-family="'Handlee-Regular'" font-size="30">h</text>
		</g>
		<g clip-path="url(#SVGID_4_)">
			<text transform="matrix(1 0 0 1 67.0283 292.7949)" font-family="'Handlee-Regular'" font-size="30">a</text>
		</g>
		<g clip-path="url(#SVGID_4_)">
			
				<text transform="matrix(1 0 0 1 67.0283 292.7949)" fill="none" stroke="#000000" stroke-width="0.0033" stroke-linecap="square" stroke-miterlimit="10" font-family="'Handlee-Regular'" font-size="30">a</text>
		</g>
		<g clip-path="url(#SVGID_4_)">
			<text transform="matrix(1 0 0 1 80.498 292.7949)" font-family="'Handlee-Regular'" font-size="30">c</text>
		</g>
		<g clip-path="url(#SVGID_4_)">
			
				<text transform="matrix(1 0 0 1 80.498 292.7949)" fill="none" stroke="#000000" stroke-width="0.0033" stroke-linecap="square" stroke-miterlimit="10" font-family="'Handlee-Regular'" font-size="30">c</text>
		</g>
		<g clip-path="url(#SVGID_4_)">
			<text transform="matrix(1 0 0 1 93.8779 292.7949)" font-family="'Handlee-Regular'" font-size="30">e</text>
		</g>
		<g clip-path="url(#SVGID_4_)">
			
				<text transform="matrix(1 0 0 1 93.8779 292.7949)" fill="none" stroke="#000000" stroke-width="0.0033" stroke-linecap="square" stroke-miterlimit="10" font-family="'Handlee-Regular'" font-size="30">e</text>
		</g>
		<g clip-path="url(#SVGID_4_)">
			<text transform="matrix(1 0 0 1 108.0684 292.7949)" font-family="'Handlee-Regular'" font-size="30">n</text>
		</g>
		<g clip-path="url(#SVGID_4_)">
			
				<text transform="matrix(1 0 0 1 108.0684 292.7949)" fill="none" stroke="#000000" stroke-width="0.0033" stroke-linecap="square" stroke-miterlimit="10" font-family="'Handlee-Regular'" font-size="30">n</text>
		</g>
		<g clip-path="url(#SVGID_4_)">
			<text transform="matrix(1 0 0 1 122.3486 292.7949)" font-family="'Handlee-Regular'" font-size="30"> </text>
		</g>
		<g clip-path="url(#SVGID_4_)">
			
				<text transform="matrix(1 0 0 1 122.3486 292.7949)" fill="none" stroke="#000000" stroke-width="0.0033" stroke-linecap="square" stroke-miterlimit="10" font-family="'Handlee-Regular'" font-size="30"> </text>
		</g>
		<g clip-path="url(#SVGID_4_)">
			<text transform="matrix(1 0 0 1 129.1284 292.7949)" font-family="'Handlee-Regular'" font-size="30">m</text>
		</g>
		<g clip-path="url(#SVGID_4_)">
			
				<text transform="matrix(1 0 0 1 129.1284 292.7949)" fill="none" stroke="#000000" stroke-width="0.0033" stroke-linecap="square" stroke-miterlimit="10" font-family="'Handlee-Regular'" font-size="30">m</text>
		</g>
		<g clip-path="url(#SVGID_4_)">
			<text transform="matrix(1 0 0 1 149.1685 292.7949)" font-family="'Handlee-Regular'" font-size="30">a</text>
		</g>
		<g clip-path="url(#SVGID_4_)">
			
				<text transform="matrix(1 0 0 1 149.1685 292.7949)" fill="none" stroke="#000000" stroke-width="0.0033" stroke-linecap="square" stroke-miterlimit="10" font-family="'Handlee-Regular'" font-size="30">a</text>
		</g>
		<g clip-path="url(#SVGID_4_)">
			<text transform="matrix(1 0 0 1 162.6387 292.7949)" font-family="'Handlee-Regular'" font-size="30">l</text>
		</g>
		<g clip-path="url(#SVGID_4_)">
			
				<text transform="matrix(1 0 0 1 162.6387 292.7949)" fill="none" stroke="#000000" stroke-width="0.0033" stroke-linecap="square" stroke-miterlimit="10" font-family="'Handlee-Regular'" font-size="30">l</text>
		</g>
		<g clip-path="url(#SVGID_4_)">
			<text transform="matrix(1 0 0 1 169.7788 292.7949)" font-family="'Handlee-Regular'" font-size="30">?</text>
		</g>
		<g clip-path="url(#SVGID_4_)">
			
				<text transform="matrix(1 0 0 1 169.7788 292.7949)" fill="none" stroke="#000000" stroke-width="0.0033" stroke-linecap="square" stroke-miterlimit="10" font-family="'Handlee-Regular'" font-size="30">?</text>
		</g>
		<g clip-path="url(#SVGID_4_)">
			<text transform="matrix(1 0 0 1 182.9785 292.7949)" font-family="'Handlee-Regular'" font-size="30"> </text>
		</g>
		<g clip-path="url(#SVGID_4_)">
			
				<text transform="matrix(1 0 0 1 182.9785 292.7949)" fill="none" stroke="#000000" stroke-width="0.0033" stroke-linecap="square" stroke-miterlimit="10" font-family="'Handlee-Regular'" font-size="30"> </text>
		</g>
		<g clip-path="url(#SVGID_4_)">
			<text transform="matrix(1 0 0 1 189.7588 292.7949)" font-family="'Handlee-Regular'" font-size="30">S</text>
		</g>
		<g clip-path="url(#SVGID_4_)">
			
				<text transform="matrix(1 0 0 1 189.7588 292.7949)" fill="none" stroke="#000000" stroke-width="0.0033" stroke-linecap="square" stroke-miterlimit="10" font-family="'Handlee-Regular'" font-size="30">S</text>
		</g>
		<g clip-path="url(#SVGID_4_)">
			<text transform="matrix(1 0 0 1 208.5688 292.7949)" font-family="'Handlee-Regular'" font-size="30">e</text>
		</g>
		<g clip-path="url(#SVGID_4_)">
			
				<text transform="matrix(1 0 0 1 208.5688 292.7949)" fill="none" stroke="#000000" stroke-width="0.0033" stroke-linecap="square" stroke-miterlimit="10" font-family="'Handlee-Regular'" font-size="30">e</text>
		</g>
		<g clip-path="url(#SVGID_4_)">
			<text transform="matrix(1 0 0 1 222.7588 292.7949)" font-family="'Handlee-Regular'" font-size="30"> </text>
		</g>
		<g clip-path="url(#SVGID_4_)">
			
				<text transform="matrix(1 0 0 1 222.7588 292.7949)" fill="none" stroke="#000000" stroke-width="0.0033" stroke-linecap="square" stroke-miterlimit="10" font-family="'Handlee-Regular'" font-size="30"> </text>
		</g>
		<g clip-path="url(#SVGID_4_)">
			<text transform="matrix(1 0 0 1 229.5386 292.7949)" font-family="'Handlee-Regular'" font-size="30">o</text>
		</g>
		<g clip-path="url(#SVGID_4_)">
			
				<text transform="matrix(1 0 0 1 229.5386 292.7949)" fill="none" stroke="#000000" stroke-width="0.0033" stroke-linecap="square" stroke-miterlimit="10" font-family="'Handlee-Regular'" font-size="30">o</text>
		</g>
		<g clip-path="url(#SVGID_4_)">
			<text transform="matrix(1 0 0 1 244.2388 292.7949)" font-family="'Handlee-Regular'" font-size="30">l</text>
		</g>
		<g clip-path="url(#SVGID_4_)">
			
				<text transform="matrix(1 0 0 1 244.2388 292.7949)" fill="none" stroke="#000000" stroke-width="0.0033" stroke-linecap="square" stroke-miterlimit="10" font-family="'Handlee-Regular'" font-size="30">l</text>
		</g>
		<g clip-path="url(#SVGID_4_)">
			<text transform="matrix(1 0 0 1 251.3794 292.7949)" font-family="'Handlee-Regular'" font-size="30">v</text>
		</g>
		<g clip-path="url(#SVGID_4_)">
			
				<text transform="matrix(1 0 0 1 251.3794 292.7949)" fill="none" stroke="#000000" stroke-width="0.0033" stroke-linecap="square" stroke-miterlimit="10" font-family="'Handlee-Regular'" font-size="30">v</text>
		</g>
		<g clip-path="url(#SVGID_4_)">
			<text transform="matrix(1 0 0 1 264.8491 292.7949)" font-family="'Handlee-Regular'" font-size="30">i</text>
		</g>
		<g clip-path="url(#SVGID_4_)">
			
				<text transform="matrix(1 0 0 1 264.8491 292.7949)" fill="none" stroke="#000000" stroke-width="0.0033" stroke-linecap="square" stroke-miterlimit="10" font-family="'Handlee-Regular'" font-size="30">i</text>
		</g>
		<g clip-path="url(#SVGID_4_)">
			<text transform="matrix(1 0 0 1 270.8491 292.7949)" font-family="'Handlee-Regular'" font-size="30">d</text>
		</g>
		<g clip-path="url(#SVGID_4_)">
			
				<text transform="matrix(1 0 0 1 270.8491 292.7949)" fill="none" stroke="#000000" stroke-width="0.0033" stroke-linecap="square" stroke-miterlimit="10" font-family="'Handlee-Regular'" font-size="30">d</text>
		</g>
		<g clip-path="url(#SVGID_4_)">
			<text transform="matrix(1 0 0 1 285.0396 292.7949)" font-family="'Handlee-Regular'" font-size="30">a</text>
		</g>
		<g clip-path="url(#SVGID_4_)">
			
				<text transform="matrix(1 0 0 1 285.0396 292.7949)" fill="none" stroke="#000000" stroke-width="0.0033" stroke-linecap="square" stroke-miterlimit="10" font-family="'Handlee-Regular'" font-size="30">a</text>
		</g>
		<g clip-path="url(#SVGID_4_)">
			<text transform="matrix(1 0 0 1 298.5093 292.7949)" font-family="'Handlee-Regular'" font-size="30">n</text>
		</g>
		<g clip-path="url(#SVGID_4_)">
			
				<text transform="matrix(1 0 0 1 298.5093 292.7949)" fill="none" stroke="#000000" stroke-width="0.0033" stroke-linecap="square" stroke-miterlimit="10" font-family="'Handlee-Regular'" font-size="30">n</text>
		</g>
		<g clip-path="url(#SVGID_4_)">
			<text transform="matrix(1 0 0 1 312.7896 292.7949)" font-family="'Handlee-Regular'" font-size="30"> </text>
		</g>
		<g clip-path="url(#SVGID_4_)">
			
				<text transform="matrix(1 0 0 1 312.7896 292.7949)" fill="none" stroke="#000000" stroke-width="0.0033" stroke-linecap="square" stroke-miterlimit="10" font-family="'Handlee-Regular'" font-size="30"> </text>
		</g>
		<g clip-path="url(#SVGID_4_)">
			<text transform="matrix(1 0 0 1 319.5693 292.7949)" font-family="'Handlee-Regular'" font-size="30">d</text>
		</g>
		<g clip-path="url(#SVGID_4_)">
			
				<text transform="matrix(1 0 0 1 319.5693 292.7949)" fill="none" stroke="#000000" stroke-width="0.0033" stroke-linecap="square" stroke-miterlimit="10" font-family="'Handlee-Regular'" font-size="30">d</text>
		</g>
		<g clip-path="url(#SVGID_4_)">
			<text transform="matrix(1 0 0 1 333.7598 292.7949)" font-family="'Handlee-Regular'" font-size="30">e</text>
		</g>
		<g clip-path="url(#SVGID_4_)">
			
				<text transform="matrix(1 0 0 1 333.7598 292.7949)" fill="none" stroke="#000000" stroke-width="0.0033" stroke-linecap="square" stroke-miterlimit="10" font-family="'Handlee-Regular'" font-size="30">e</text>
		</g>
		<g clip-path="url(#SVGID_4_)">
			<text transform="matrix(1 0 0 1 347.9497 292.7949)" font-family="'Handlee-Regular'" font-size="30">l</text>
		</g>
		<g clip-path="url(#SVGID_4_)">
			
				<text transform="matrix(1 0 0 1 347.9497 292.7949)" fill="none" stroke="#000000" stroke-width="0.0033" stroke-linecap="square" stroke-miterlimit="10" font-family="'Handlee-Regular'" font-size="30">l</text>
		</g>
		<g clip-path="url(#SVGID_4_)">
			<text transform="matrix(1 0 0 1 355.0898 292.7949)" font-family="'Handlee-Regular'" font-size="30"> </text>
		</g>
		<g clip-path="url(#SVGID_4_)">
			
				<text transform="matrix(1 0 0 1 355.0898 292.7949)" fill="none" stroke="#000000" stroke-width="0.0033" stroke-linecap="square" stroke-miterlimit="10" font-family="'Handlee-Regular'" font-size="30"> </text>
		</g>
		<g clip-path="url(#SVGID_4_)">
			<text transform="matrix(1 0 0 1 160.0879 328.7949)" font-family="'Handlee-Regular'" font-size="30">f</text>
		</g>
		<g clip-path="url(#SVGID_4_)">
			
				<text transform="matrix(1 0 0 1 160.0879 328.7949)" fill="none" stroke="#000000" stroke-width="0.0033" stroke-linecap="square" stroke-miterlimit="10" font-family="'Handlee-Regular'" font-size="30">f</text>
		</g>
		<g clip-path="url(#SVGID_4_)">
			<text transform="matrix(1 0 0 1 169.3877 328.7949)" font-family="'Handlee-Regular'" font-size="30">u</text>
		</g>
		<g clip-path="url(#SVGID_4_)">
			
				<text transform="matrix(1 0 0 1 169.3877 328.7949)" fill="none" stroke="#000000" stroke-width="0.0033" stroke-linecap="square" stroke-miterlimit="10" font-family="'Handlee-Regular'" font-size="30">u</text>
		</g>
		<g clip-path="url(#SVGID_4_)">
			<text transform="matrix(1 0 0 1 183.1274 328.7949)" font-family="'Handlee-Regular'" font-size="30">t</text>
		</g>
		<g clip-path="url(#SVGID_4_)">
			
				<text transform="matrix(1 0 0 1 183.1274 328.7949)" fill="none" stroke="#000000" stroke-width="0.0033" stroke-linecap="square" stroke-miterlimit="10" font-family="'Handlee-Regular'" font-size="30">t</text>
		</g>
		<g clip-path="url(#SVGID_4_)">
			<text transform="matrix(1 0 0 1 193.8677 328.7949)" font-family="'Handlee-Regular'" font-size="30">u</text>
		</g>
		<g clip-path="url(#SVGID_4_)">
			
				<text transform="matrix(1 0 0 1 193.8677 328.7949)" fill="none" stroke="#000000" stroke-width="0.0033" stroke-linecap="square" stroke-miterlimit="10" font-family="'Handlee-Regular'" font-size="30">u</text>
		</g>
		<g clip-path="url(#SVGID_4_)">
			<text transform="matrix(1 0 0 1 207.6074 328.7949)" font-family="'Handlee-Regular'" font-size="30">r</text>
		</g>
		<g clip-path="url(#SVGID_4_)">
			
				<text transform="matrix(1 0 0 1 207.6074 328.7949)" fill="none" stroke="#000000" stroke-width="0.0033" stroke-linecap="square" stroke-miterlimit="10" font-family="'Handlee-Regular'" font-size="30">r</text>
		</g>
		<g clip-path="url(#SVGID_4_)">
			<text transform="matrix(1 0 0 1 219.4272 328.7949)" font-family="'Handlee-Regular'" font-size="30">o</text>
		</g>
		<g clip-path="url(#SVGID_4_)">
			
				<text transform="matrix(1 0 0 1 219.4272 328.7949)" fill="none" stroke="#000000" stroke-width="0.0033" stroke-linecap="square" stroke-miterlimit="10" font-family="'Handlee-Regular'" font-size="30">o</text>
		</g>
		<g clip-path="url(#SVGID_4_)">
			<text transform="matrix(1 0 0 1 234.1274 328.7949)" font-family="'Handlee-Regular'" font-size="30">.</text>
		</g>
		<g clip-path="url(#SVGID_4_)">
			
				<text transform="matrix(1 0 0 1 234.1274 328.7949)" fill="none" stroke="#000000" stroke-width="0.0033" stroke-linecap="square" stroke-miterlimit="10" font-family="'Handlee-Regular'" font-size="30">.</text>
		</g>
		<g clip-path="url(#SVGID_4_)">
			<text transform="matrix(1 0 0 1 237.5171 328.7949)" font-family="'Handlee-Regular'" font-size="30">”</text>
		</g>
		<g clip-path="url(#SVGID_4_)">
			
				<text transform="matrix(1 0 0 1 237.5171 328.7949)" fill="none" stroke="#000000" stroke-width="0.0033" stroke-linecap="square" stroke-miterlimit="10" font-family="'Handlee-Regular'" font-size="30">”</text>
		</g>
		
			<rect x="48.485" y="356.655" opacity="0" clip-path="url(#SVGID_4_)" fill-rule="evenodd" clip-rule="evenodd" width="310.506" height="466.424"/>
		<g clip-path="url(#SVGID_4_)">
			<defs>
				<rect id="SVGID_17_" x="48.485" y="356.655" width="310.506" height="466.424"/>
			</defs>
			<clipPath id="SVGID_18_">
				<use xlink:href="#SVGID_17_"  overflow="visible"/>
			</clipPath>
			<g clip-path="url(#SVGID_18_)">
				<defs>
					<rect id="SVGID_19_" x="5.139" y="293.175" width="397.168" height="592.59"/>
				</defs>
				<clipPath id="SVGID_20_">
					<use xlink:href="#SVGID_19_"  overflow="visible"/>
				</clipPath>
				<g transform="matrix(1 0 0 1 -4.856906e-008 1.909201e-005)" clip-path="url(#SVGID_20_)">
					
						<image overflow="visible" width="904" height="1280" xlink:href="B9AE16A7.jpg"  transform="matrix(0.4393 0 0 0.463 5.1387 293.1753)">
					</image>
				</g>
			</g>
		</g>
	</g>
</g>
</svg>
